#N canvas 0 22 803 725 12;
#X obj 30 25 r~ clean;
#X msg 211 56 all \$1;
#X obj 211 25 r berelays;
#X obj 105 25 r berelay-\$1;
#X obj 30 135 _berelay-control \$1 \$3;
#X obj 30 80 clone -s \$2 _berelay \$3 \$4 \$1;
#X obj 607 21 namecanvas berelays-\$1;
#X connect 0 0 5 0;
#X connect 1 0 5 2;
#X connect 2 0 1 0;
#X connect 3 0 5 1;
