#N canvas 334 100 450 300 12;
#N canvas 888 92 719 548 delay 1;
#X obj 320 41 block~ 1;
#X obj 50 23 inlet~;
#X obj 47 476 outlet~;
#X obj 47 434 delread~ \$0-d;
#X obj 264 23 inlet;
#X obj 50 292 delwrite~ \$0-d \$2;
#X obj 541 130 r clear_berelays;
#X msg 460 163 clear;
#X obj 545 221 _switch;
#X obj 47 455 *~;
#X obj 443 117 t b b;
#X msg 583 188 1;
#X obj 584 160 loadbang;
#X obj 442 93 sel;
#X msg 543 190 0;
#X obj 50 47 *~;
#X obj 50 137 lop~ 22050;
#X obj 50 195 hip~ 20;
#N canvas 714 75 450 300 lopass 0;
#X obj 72 223 outlet;
#X obj 72 192 change;
#X floatatom 230 83 5 0 0 0 - - -;
#X obj 170 46 r _berelay-lopass-\$3-\$1;
#X obj 170 83 * 127;
#X obj 170 121 mtof;
#X obj 55 43 r berelays-lop;
#X connect 1 0 0 0;
#X connect 3 0 2 0;
#X connect 3 0 4 0;
#X connect 4 0 5 0;
#X connect 5 0 1 0;
#X connect 6 0 1 0;
#X restore 117 113 pd lopass;
#N canvas 714 75 450 300 hipass 0;
#X obj 72 223 outlet;
#X obj 72 192 change;
#X floatatom 230 83 5 0 0 0 - - -;
#X obj 170 83 * 127;
#X obj 170 121 mtof;
#X obj 170 46 r _berelay-hipass-\$3-\$1;
#X obj 55 43 r berelays-hip;
#X connect 1 0 0 0;
#X connect 3 0 4 0;
#X connect 4 0 1 0;
#X connect 5 0 2 0;
#X connect 5 0 3 0;
#X connect 6 0 1 0;
#X restore 139 149 pd hipass;
#X obj 50 243 *~;
#X obj 139 173 t f b;
#X obj 202 224 vline~;
#X msg 206 198 0 1 \, 1 10 10;
#X obj 110 196 pipe 1;
#X connect 1 0 15 0;
#X connect 3 0 9 0;
#X connect 4 0 3 0;
#X connect 6 0 14 0;
#X connect 7 0 5 0;
#X connect 8 0 9 1;
#X connect 8 0 15 1;
#X connect 8 1 13 0;
#X connect 9 0 2 0;
#X connect 10 0 11 0;
#X connect 10 1 7 0;
#X connect 11 0 8 0;
#X connect 12 0 11 0;
#X connect 13 0 10 0;
#X connect 14 0 8 0;
#X connect 15 0 16 0;
#X connect 16 0 17 0;
#X connect 17 0 20 0;
#X connect 18 0 16 1;
#X connect 19 0 21 0;
#X connect 20 0 5 0;
#X connect 21 0 24 0;
#X connect 21 1 23 0;
#X connect 22 0 20 1;
#X connect 23 0 22 0;
#X connect 24 0 17 1;
#X restore 28 159 pd delay;
#X obj 39 251 throw~ dacout-\$1;
#X obj 110 7 inlet;
#X obj 28 226 *~;
#X obj 332 11 inlet;
#X obj 332 207 _switch;
#X obj 378 252 switch~;
#X obj 57 88 delread~ \$0-d;
#X obj 57 112 *~;
#X obj 28 112 +~;
#X obj 233 65 pack f 10;
#X obj 233 93 line~;
#X obj 28 7 inlet~;
#X obj 109 31 unpack f f f;
#N canvas 0 22 450 300 fb-time 0;
#X obj 72 223 outlet;
#X obj 73 25 inlet;
#X obj 72 192 change;
#X obj 168 122 * \$2;
#X obj 168 45 r _berelay-fb-time-\$3-\$1;
#X obj 73 162 clip 0.1 \$2;
#X connect 1 0 5 0;
#X connect 2 0 0 0;
#X connect 3 0 5 0;
#X connect 4 0 3 0;
#X connect 5 0 2 0;
#X restore 57 62 pd fb-time;
#N canvas 0 22 450 300 pre 0;
#X obj 72 223 outlet;
#X obj 73 25 inlet;
#X obj 72 192 change;
#X obj 161 101 * \$2;
#X obj 161 27 r _berelay-pre-del-\$3-\$1;
#X obj 73 162 clip 0.1 \$2;
#X connect 1 0 5 0;
#X connect 2 0 0 0;
#X connect 3 0 5 0;
#X connect 4 0 3 0;
#X connect 5 0 2 0;
#X restore 149 140 pd pre;
#N canvas 0 22 450 300 fb-amount 0;
#X obj 72 161 clip 0 0.9999;
#X obj 72 223 outlet;
#X obj 72 44 inlet;
#X obj 72 192 change;
#X floatatom 230 83 5 0 0 0 - - -;
#X obj 170 46 r _berelay-fb-amount-\$3-\$1;
#X connect 0 0 3 0;
#X connect 2 0 0 0;
#X connect 3 0 1 0;
#X connect 5 0 0 0;
#X connect 5 0 4 0;
#X restore 233 39 pd fb-amount;
#X obj 230 122 r berelay-vol;
#X obj 230 177 pack f 10;
#X obj 230 201 line~;
#X obj 28 192 *~;
#X obj 230 149 dbtorms;
#X obj 28 273 throw~ berelay-sum;
#X connect 0 0 20 0;
#X connect 2 0 13 0;
#X connect 3 0 1 0;
#X connect 3 0 22 0;
#X connect 4 0 5 0;
#X connect 5 0 3 1;
#X connect 5 1 6 0;
#X connect 7 0 8 0;
#X connect 8 0 9 1;
#X connect 9 0 0 0;
#X connect 10 0 11 0;
#X connect 11 0 8 1;
#X connect 12 0 9 0;
#X connect 13 0 14 0;
#X connect 13 1 15 0;
#X connect 13 2 16 0;
#X connect 14 0 7 0;
#X connect 15 0 0 1;
#X connect 16 0 10 0;
#X connect 17 0 21 0;
#X connect 18 0 19 0;
#X connect 19 0 20 1;
#X connect 20 0 3 0;
#X connect 21 0 18 0;
