#N canvas 523 50 595 363 12;
#X obj 116 121 dbtorms;
#X obj 116 143 pack f 20;
#X obj 116 165 line~;
#X obj 56 55 catch~ dacout-\$1;
#X obj 292 239 dac~ \$1;
#X obj 116 98 r \$2;
#X obj 39 283 outlet~;
#X obj 39 9 inlet~;
#X obj 39 184 *~;
#X obj 39 220 hip~ 3;
#X obj 39 89 hip~ 20;
#X obj 292 29 loadbang;
#X obj 292 85 f \$1;
#X obj 292 167 + 1;
#X msg 292 190 set \$1;
#X obj 335 85 f \$3;
#X obj 335 143 sel;
#X obj 292 143 mod 2;
#X obj 292 114 t f f;
#X obj 415 302 throw~;
#X obj 415 176 makefilename;
#X msg 415 150 set \$1-%d;
#X msg 415 200 set \$1;
#X symbolatom 427 225 10 0 0 0 - - -;
#X floatatom 298 214 5 0 0 0 - - -;
#X obj 420 65 symbol \$2;
#X symbolatom 420 89 10 0 0 0 - - -;
#X obj 415 125 symbol \$4;
#X obj 374 141 + 1;
#X obj 239 156 f \$5;
#X obj 239 180 sel;
#X obj 292 57 t b b b b b;
#X connect 0 0 1 0;
#X connect 1 0 2 0;
#X connect 2 0 8 1;
#X connect 3 0 10 0;
#X connect 5 0 0 0;
#X connect 7 0 10 0;
#X connect 8 0 9 0;
#X connect 9 0 4 0;
#X connect 9 0 6 0;
#X connect 9 0 19 0;
#X connect 10 0 8 0;
#X connect 11 0 31 0;
#X connect 12 0 18 0;
#X connect 13 0 14 0;
#X connect 14 0 4 0;
#X connect 14 0 24 0;
#X connect 15 0 16 0;
#X connect 16 1 17 1;
#X connect 17 0 13 0;
#X connect 18 0 17 0;
#X connect 18 1 28 0;
#X connect 20 0 22 0;
#X connect 21 0 20 0;
#X connect 22 0 19 0;
#X connect 22 0 23 0;
#X connect 25 0 26 0;
#X connect 27 0 21 0;
#X connect 28 0 20 0;
#X connect 29 0 30 0;
#X connect 30 1 14 0;
#X connect 31 0 29 0;
#X connect 31 1 12 0;
#X connect 31 2 15 0;
#X connect 31 3 27 0;
#X connect 31 4 25 0;
