#N canvas 741 100 450 340 12;
#N canvas 561 92 719 548 delay 0;
#X obj 320 41 block~ 1;
#X obj 50 23 inlet~;
#X obj 47 476 outlet~;
#X obj 47 434 delread~ \$0-d;
#X obj 264 23 inlet;
#X obj 50 292 delwrite~ \$0-d \$2;
#X obj 541 130 r clear_berelays;
#X msg 460 163 clear;
#X obj 545 221 _switch;
#X obj 47 455 *~;
#X obj 443 117 t b b;
#X msg 583 188 1;
#X obj 584 160 loadbang;
#X obj 442 93 sel;
#X msg 543 190 0;
#X obj 50 47 *~;
#X obj 50 137 lop~ 22050;
#X obj 50 195 hip~ 20;
#N canvas 714 75 450 300 lopass 0;
#X obj 72 223 outlet;
#X obj 72 192 change;
#X floatatom 230 83 5 0 0 0 - - -;
#X obj 170 46 r _berelay-lopass-\$3-\$1;
#X obj 170 83 * 127;
#X obj 170 121 mtof;
#X obj 55 43 r berelays-lop;
#X connect 1 0 0 0;
#X connect 3 0 2 0;
#X connect 3 0 4 0;
#X connect 4 0 5 0;
#X connect 5 0 1 0;
#X connect 6 0 1 0;
#X restore 117 113 pd lopass;
#N canvas 714 75 450 300 hipass 0;
#X obj 72 223 outlet;
#X obj 72 192 change;
#X floatatom 230 83 5 0 0 0 - - -;
#X obj 170 83 * 127;
#X obj 170 121 mtof;
#X obj 170 46 r _berelay-hipass-\$3-\$1;
#X obj 55 43 r berelays-hip;
#X connect 1 0 0 0;
#X connect 3 0 4 0;
#X connect 4 0 1 0;
#X connect 5 0 2 0;
#X connect 5 0 3 0;
#X connect 6 0 1 0;
#X restore 139 149 pd hipass;
#X obj 50 243 *~;
#X obj 139 173 t f b;
#X obj 202 224 vline~;
#X msg 206 198 0 1 \, 1 10 10;
#X obj 110 196 pipe 1;
#X connect 1 0 15 0;
#X connect 3 0 9 0;
#X connect 4 0 3 0;
#X connect 6 0 14 0;
#X connect 7 0 5 0;
#X connect 8 0 9 1;
#X connect 8 0 15 1;
#X connect 8 1 13 0;
#X connect 9 0 2 0;
#X connect 10 0 11 0;
#X connect 10 1 7 0;
#X connect 11 0 8 0;
#X connect 12 0 11 0;
#X connect 13 0 10 0;
#X connect 14 0 8 0;
#X connect 15 0 16 0;
#X connect 16 0 17 0;
#X connect 17 0 20 0;
#X connect 18 0 16 1;
#X connect 19 0 21 0;
#X connect 20 0 5 0;
#X connect 21 0 24 0;
#X connect 21 1 23 0;
#X connect 22 0 20 1;
#X connect 23 0 22 0;
#X connect 24 0 17 1;
#X restore 28 159 pd delay;
#X obj 110 7 inlet;
#X obj 28 226 *~;
#X obj 332 11 inlet;
#X obj 332 207 _switch;
#X obj 378 252 switch~;
#X obj 57 88 delread~ \$0-d;
#X obj 57 112 *~;
#X obj 28 112 +~;
#X obj 233 65 pack f 10;
#X obj 233 93 line~;
#X obj 28 7 inlet~;
#X obj 109 31 unpack f f f;
#N canvas 0 22 450 300 fb-time 0;
#X obj 72 223 outlet;
#X obj 73 25 inlet;
#X obj 72 192 change;
#X obj 168 122 * \$2;
#X obj 168 45 r _berelay-fb-time-\$3-\$1;
#X obj 73 162 clip 0.1 \$2;
#X connect 1 0 5 0;
#X connect 2 0 0 0;
#X connect 3 0 5 0;
#X connect 4 0 3 0;
#X connect 5 0 2 0;
#X restore 57 43 pd fb-time;
#N canvas 0 22 450 300 pre 0;
#X obj 72 223 outlet;
#X obj 73 25 inlet;
#X obj 72 192 change;
#X obj 161 101 * \$2;
#X obj 161 27 r _berelay-pre-del-\$3-\$1;
#X obj 73 162 clip 0.1 \$2;
#X connect 1 0 5 0;
#X connect 2 0 0 0;
#X connect 3 0 5 0;
#X connect 4 0 3 0;
#X connect 5 0 2 0;
#X restore 149 140 pd pre;
#N canvas 0 22 450 300 fb-amount 0;
#X obj 72 161 clip 0 0.9999;
#X obj 72 223 outlet;
#X obj 72 44 inlet;
#X obj 72 192 change;
#X floatatom 230 83 5 0 0 0 - - -;
#X obj 170 46 r _berelay-fb-amount-\$3-\$1;
#X connect 0 0 3 0;
#X connect 2 0 0 0;
#X connect 3 0 1 0;
#X connect 5 0 0 0;
#X connect 5 0 4 0;
#X restore 233 19 pd fb-amount;
#X obj 230 122 r berelay-vol;
#X obj 230 177 pack f 10;
#X obj 230 201 line~;
#X obj 28 192 *~;
#X obj 230 149 dbtorms;
#X obj 28 303 outlet~;
#X floatatom 64 66 5 0 0 0 - - -;
#X floatatom 242 42 5 0 0 0 - - -;
#X floatatom 149 164 5 0 0 0 - - -;
#X obj 175 6 inlet;
#X obj 60 273 clone _vbap-out \$4 \$5;
#N canvas 0 22 744 680 vbap 0;
#X obj 231 553 vbap, f 16;
#X obj 11 532 list trim;
#X obj 11 506 text get matrices;
#X obj 56 412 t b f;
#X obj 12 478 r update_matrices;
#X obj 54 281 unpack f f f;
#X obj 188 92 r _berelay-vb-azi-\$3-\$1;
#X obj 63 332 r g_azi;
#X obj 53 48 inlet;
#X obj 231 579 outlet;
#X floatatom 200 117 5 0 0 0 - - -;
#X obj 188 195 +;
#X obj 197 141 r g_azi-offset;
#X obj 197 167 t b f;
#X obj 188 275 / 10000;
#X obj 188 249 mod 10001;
#X obj 188 223 * 10000;
#X obj 55 382 * 360;
#X floatatom 231 193 5 0 0 0 - - -;
#X floatatom 63 358 5 0 0 0 - - -;
#X obj 238 412 t b f;
#X floatatom 382 117 5 0 0 0 - - -;
#X obj 370 195 +;
#X obj 379 167 t b f;
#X obj 370 275 / 10000;
#X obj 370 249 mod 10001;
#X obj 370 223 * 10000;
#X floatatom 413 193 5 0 0 0 - - -;
#X floatatom 245 358 5 0 0 0 - - -;
#X obj 370 92 r _berelay-vb-ele-\$3-\$1;
#X obj 379 141 r g_ele-offset;
#X obj 245 332 r g_ele;
#X obj 237 382 * 100;
#X obj 415 412 t b f;
#X floatatom 559 117 5 0 0 0 - - -;
#X obj 547 195 +;
#X obj 556 167 t b f;
#X obj 547 275 / 10000;
#X obj 547 249 mod 10001;
#X obj 547 223 * 10000;
#X floatatom 590 193 5 0 0 0 - - -;
#X floatatom 422 358 5 0 0 0 - - -;
#X obj 414 382 * 100;
#X obj 547 92 r _berelay-vb-spr-\$3-\$1;
#X obj 422 332 r g_spr;
#X obj 556 141 r g_spr-offset;
#X floatatom 126 418 5 0 0 0 - - -;
#X floatatom 287 425 5 0 0 0 - - -;
#X floatatom 506 449 5 0 0 0 - - -;
#N canvas 766 148 450 521 vbap-crawl 0;
#X obj 49 20 r vbap-crawl;
#X obj 50 122 crand 10 4000;
#X obj 50 148 t f f;
#X obj 50 96 metro 10;
#X obj 49 46 t f f;
#X obj 164 25 sel 1;
#X obj 161 91 random 100;
#X obj 161 117 + 10;
#X obj 55 274 pack;
#X obj 93 252 loadbang;
#X obj 61 308 line;
#X obj 162 58 t b b;
#X obj 59 446 outlet;
#X obj 176 229 crand 0 1;
#X obj 176 277 pack;
#X obj 214 255 loadbang;
#X obj 213 283 crand 0 1;
#X obj 171 177 t b f;
#X obj 182 311 line;
#X obj 180 449 outlet;
#X obj 287 223 crand 0 1;
#X obj 287 271 pack;
#X obj 325 249 loadbang;
#X obj 324 277 crand 0 1;
#X obj 282 171 t b f;
#X obj 293 305 line;
#X obj 291 443 outlet;
#X obj 183 352 * 100;
#X obj 294 346 * 100;
#X obj 50 174 t b f f f;
#X obj 55 226 crand -1 1;
#X obj 92 280 crand -1 1;
#X obj 62 349 * 180;
#X connect 0 0 4 0;
#X connect 1 0 2 0;
#X connect 2 0 29 0;
#X connect 2 1 3 1;
#X connect 3 0 1 0;
#X connect 4 0 3 0;
#X connect 4 1 5 0;
#X connect 5 0 11 0;
#X connect 6 0 7 0;
#X connect 7 0 3 1;
#X connect 8 0 10 0;
#X connect 9 0 31 0;
#X connect 10 0 32 0;
#X connect 11 0 6 0;
#X connect 13 0 14 0;
#X connect 14 0 18 0;
#X connect 15 0 16 0;
#X connect 16 0 18 0;
#X connect 17 0 13 0;
#X connect 17 1 14 1;
#X connect 18 0 27 0;
#X connect 20 0 21 0;
#X connect 21 0 25 0;
#X connect 22 0 23 0;
#X connect 23 0 25 0;
#X connect 24 0 20 0;
#X connect 24 1 21 1;
#X connect 25 0 28 0;
#X connect 27 0 19 0;
#X connect 28 0 26 0;
#X connect 29 0 30 0;
#X connect 29 1 8 1;
#X connect 30 0 8 0;
#X connect 31 0 10 0;
#X connect 32 0 12 0;
#X restore 266 468 pd vbap-crawl;
#X obj 266 494 t b f;
#X connect 0 0 9 0;
#X connect 1 0 0 0;
#X connect 2 0 1 0;
#X connect 3 0 0 0;
#X connect 3 1 0 1;
#X connect 3 1 46 0;
#X connect 4 0 2 0;
#X connect 5 0 17 0;
#X connect 5 1 32 0;
#X connect 5 2 42 0;
#X connect 6 0 10 0;
#X connect 6 0 11 0;
#X connect 7 0 17 0;
#X connect 7 0 19 0;
#X connect 8 0 5 0;
#X connect 11 0 16 0;
#X connect 12 0 13 0;
#X connect 13 0 11 0;
#X connect 13 1 11 1;
#X connect 13 1 18 0;
#X connect 14 0 17 0;
#X connect 15 0 14 0;
#X connect 16 0 15 0;
#X connect 17 0 3 0;
#X connect 20 0 0 0;
#X connect 20 1 0 2;
#X connect 20 1 47 0;
#X connect 22 0 26 0;
#X connect 23 0 22 0;
#X connect 23 1 22 1;
#X connect 23 1 27 0;
#X connect 24 0 32 0;
#X connect 25 0 24 0;
#X connect 26 0 25 0;
#X connect 29 0 21 0;
#X connect 29 0 22 0;
#X connect 30 0 23 0;
#X connect 31 0 28 0;
#X connect 31 0 32 0;
#X connect 32 0 20 0;
#X connect 33 0 0 0;
#X connect 33 1 0 3;
#X connect 33 1 48 0;
#X connect 35 0 39 0;
#X connect 36 0 35 0;
#X connect 36 1 35 1;
#X connect 36 1 40 0;
#X connect 37 0 42 0;
#X connect 38 0 37 0;
#X connect 39 0 38 0;
#X connect 42 0 33 0;
#X connect 43 0 34 0;
#X connect 43 0 35 0;
#X connect 44 0 41 0;
#X connect 44 0 42 0;
#X connect 45 0 36 0;
#X connect 49 0 50 0;
#X connect 49 1 0 2;
#X connect 49 2 0 3;
#X connect 50 0 0 0;
#X connect 50 1 0 1;
#X restore 175 239 pd vbap;
#X connect 0 0 19 0;
#X connect 1 0 12 0;
#X connect 2 0 21 0;
#X connect 2 0 26 0;
#X connect 3 0 4 0;
#X connect 4 0 2 1;
#X connect 4 1 5 0;
#X connect 6 0 7 0;
#X connect 7 0 8 1;
#X connect 8 0 0 0;
#X connect 9 0 10 0;
#X connect 10 0 7 1;
#X connect 11 0 8 0;
#X connect 12 0 13 0;
#X connect 12 1 14 0;
#X connect 12 2 15 0;
#X connect 13 0 6 0;
#X connect 13 0 22 0;
#X connect 14 0 0 1;
#X connect 14 0 24 0;
#X connect 15 0 9 0;
#X connect 15 0 23 0;
#X connect 16 0 20 0;
#X connect 17 0 18 0;
#X connect 18 0 19 1;
#X connect 19 0 2 0;
#X connect 20 0 17 0;
#X connect 25 0 27 0;
#X connect 27 0 26 1;
