#N canvas 321 254 769 700 12;
#X obj 32 12 inlet;
#X obj 78 270 tabplay~ \$2;
#X obj 95 103 spigot 1;
#X msg 154 74 1;
#X msg 167 101 0;
#X obj 497 515 fd_switch;
#X msg 541 212 1;
#X obj 570 562 switch~;
#X obj 90 596 *~;
#X obj 99 173 list;
#X obj 262 86 t b b;
#X obj 351 135 sel 1;
#X obj 400 24 inlet;
#X msg 31 146 stop;
#X obj 95 136 t b a b b;
#X obj 351 110 f \$3;
#X obj 399 73 unpack;
#X obj 358 223 del;
#X msg 267 380 0 \, 1 \$1;
#X obj 100 199 t a a;
#X obj 293 316 samplerate~;
#X obj 262 318 /;
#X obj 267 404 vline~;
#X obj 267 428 *~ 2048;
#X obj 267 452 +~ 1;
#X obj 99 494 *~;
#X obj 268 477 tabread4~ 0-tra;
#X obj 262 289 t f b;
#X obj 263 346 * 1000;
#X obj 355 422 r play-envelope;
#X msg 355 446 set \$1;
#X obj 343 364 r play-env-amoun;
#X obj 343 388 * 2048;
#X obj 223 256 list split 1;
#X obj 32 38 route stop list;
#X obj 418 140 crand;
#X msg 466 112 set 0.001 \$1 \, bang;
#X obj 466 88 max 0.002;
#X obj 45 221 t a a;
#X obj 69 640 throw~ loops-1;
#X obj 284 644 throw~ loops-2;
#X obj 279 605 *~;
#X obj 188 493 osc~;
#X obj 123 338 loadbang;
#X obj 122 384 crand;
#X obj 167 401 crand;
#X obj 122 361 t b b;
#X obj 188 517 *~ 0.5;
#X obj 188 541 +~ 0.1;
#X obj 278 522 sig~ 1;
#X obj 278 546 -~;
#X obj 94 545 *~;
#X obj 254 582 *~;
#X obj 483 272 r random-env;
#X obj 483 296 random 13;
#X obj 483 320 fd_seltab;
#X connect 0 0 34 0;
#X connect 1 0 25 0;
#X connect 1 1 10 0;
#X connect 2 0 14 0;
#X connect 3 0 2 1;
#X connect 4 0 2 1;
#X connect 5 0 8 1;
#X connect 5 0 41 1;
#X connect 5 1 7 0;
#X connect 6 0 5 0;
#X connect 8 0 39 0;
#X connect 9 0 19 0;
#X connect 10 0 3 0;
#X connect 10 1 15 0;
#X connect 11 0 17 0;
#X connect 11 1 5 0;
#X connect 12 0 16 0;
#X connect 13 0 38 0;
#X connect 14 0 9 0;
#X connect 14 1 9 1;
#X connect 14 2 4 0;
#X connect 14 3 6 0;
#X connect 15 0 11 0;
#X connect 16 0 15 1;
#X connect 16 1 37 0;
#X connect 17 0 9 0;
#X connect 18 0 22 0;
#X connect 19 0 1 0;
#X connect 19 1 33 0;
#X connect 20 0 21 1;
#X connect 21 0 28 0;
#X connect 22 0 23 0;
#X connect 23 0 24 0;
#X connect 24 0 26 0;
#X connect 25 0 51 0;
#X connect 25 0 52 0;
#X connect 26 0 25 1;
#X connect 27 0 21 0;
#X connect 27 1 20 0;
#X connect 28 0 18 0;
#X connect 29 0 30 0;
#X connect 30 0 26 0;
#X connect 31 0 32 0;
#X connect 32 0 23 1;
#X connect 33 1 27 0;
#X connect 34 0 13 0;
#X connect 34 1 2 0;
#X connect 35 0 17 1;
#X connect 36 0 35 0;
#X connect 37 0 36 0;
#X connect 38 0 1 0;
#X connect 38 1 17 0;
#X connect 41 0 40 0;
#X connect 42 0 47 0;
#X connect 43 0 46 0;
#X connect 44 0 42 0;
#X connect 45 0 42 1;
#X connect 46 0 44 0;
#X connect 46 1 45 0;
#X connect 47 0 48 0;
#X connect 48 0 50 1;
#X connect 48 0 51 1;
#X connect 49 0 50 0;
#X connect 50 0 52 1;
#X connect 51 0 8 0;
#X connect 52 0 41 0;
#X connect 53 0 54 0;
#X connect 54 0 55 0;
#X connect 55 0 30 0;
