#N canvas 450 191 450 300 12;
#X obj 35 32 inlet~;
#X obj 136 19 inlet;
#X obj 146 79 pack f 10;
#X obj 146 105 line~;
#X obj 53 155 *~;
#X obj 53 181 throw~;
#X obj 267 70 loadbang;
#X obj 267 132 f \$1;
#X obj 267 158 mod \$2;
#X obj 267 184 + 1;
#X msg 267 210 set dacout-\$1;
#X floatatom 201 47 5 0 0 0 - - -;
#X connect 0 0 4 0;
#X connect 1 0 2 0;
#X connect 1 0 11 0;
#X connect 2 0 3 0;
#X connect 3 0 4 1;
#X connect 4 0 5 0;
#X connect 6 0 7 0;
#X connect 7 0 8 0;
#X connect 8 0 9 0;
#X connect 9 0 10 0;
#X connect 10 0 5 0;
