#N canvas 1019 510 450 300 12;
#N canvas 0 22 450 300 delay 0;
#X obj 320 41 block~ 1;
#X obj 50 43 inlet~;
#X obj 50 213 outlet~;
#X obj 50 171 delread~ \$0-d;
#X obj 193 43 inlet;
#X obj 50 67 delwrite~ \$0-d \$2;
#X connect 1 0 5 0;
#X connect 3 0 2 0;
#X connect 4 0 3 0;
#X restore 28 159 pd delay;
#X obj 28 253 throw~ dacout-\$1;
#X obj 110 7 inlet;
#X obj 28 206 *~;
#X obj 332 11 inlet;
#X obj 332 187 _switch;
#X obj 378 232 switch~;
#X obj 57 88 delread~ \$0-d;
#X obj 57 112 *~;
#X obj 28 112 +~;
#X obj 213 65 pack f 10;
#X obj 213 93 line~;
#X obj 166 159 change;
#X obj 115 159 change;
#X obj 28 7 inlet~;
#X obj 109 31 unpack f f f;
#X obj 213 37 change;
#X connect 0 0 3 0;
#X connect 2 0 15 0;
#X connect 3 0 1 0;
#X connect 4 0 5 0;
#X connect 5 0 3 1;
#X connect 5 1 6 0;
#X connect 7 0 8 0;
#X connect 8 0 9 1;
#X connect 9 0 0 0;
#X connect 10 0 11 0;
#X connect 11 0 8 1;
#X connect 12 0 7 0;
#X connect 13 0 0 1;
#X connect 14 0 9 0;
#X connect 15 0 13 0;
#X connect 15 1 12 0;
#X connect 15 2 16 0;
#X connect 16 0 10 0;
