#N canvas 221 8 714 739 12;
#X obj 352 409 *~;
#X obj 352 346 delread~ line1;
#X obj 352 284 * 1;
#X obj 262 40 loadbang;
#X obj 501 264 r del-\$1-atten;
#X obj 370 216 r del-amount;
#X obj 352 159 r del-amount-go;
#X obj 262 63 t b b b;
#X obj 352 193 f;
#X obj 352 241 +;
#X obj 352 316 * 1000;
#X obj 61 82 f \$3;
#X obj 490 82 f \$2;
#X obj 285 89 f \$1;
#X obj 79 194 r dist-adjust;
#X obj 61 226 * 1;
#X obj 77 151 r dist-adjust-go;
#X msg 61 368 set \$1 \$2 \, bang;
#X obj 61 311 swap;
#X obj 61 419 list prepend;
#X obj 61 343 pack f 100;
#X obj 61 257 t b f f f;
#X obj 220 238 t b f;
#X obj 285 157 t f f;
#X obj 522 367 pack f 100;
#X obj 522 390 line~;
#X obj 352 449 delwrite~ \$4-del 100;
#X msg 175 626 all \$1;
#X msg 490 626 all \$1;
#X msg 289 574 all \$1;
#X obj 289 598 t a a;
#X obj 61 443 t a a;
#X msg 61 288 1 \, 2 \, 3 \, 4 \, 5;
#X obj 318 669 clone -s 1 _subdel 5 \$4-del del-R;
#X obj 289 549 abs;
#X obj 289 526 expr 5000-$f1*400;
#X obj 61 669 clone -s 1 _subdel 5 \$4-del del-L;
#X obj 387 419 r clear-dels;
#X obj 61 391 _crand;
#X obj 490 326 t f f;
#X floatatom 512 291 5 0 0 0 - - -;
#X floatatom 292 120 5 0 0 0 - - -;
#X obj 352 373 hip~ 20;
#X floatatom 72 107 5 0 0 0 - - -;
#X floatatom 500 109 5 0 0 0 - - -;
#X connect 0 0 26 0;
#X connect 1 0 42 0;
#X connect 2 0 10 0;
#X connect 3 0 7 0;
#X connect 4 0 39 0;
#X connect 4 0 40 0;
#X connect 5 0 9 1;
#X connect 6 0 8 0;
#X connect 7 0 11 0;
#X connect 7 1 13 0;
#X connect 7 2 12 0;
#X connect 8 0 9 0;
#X connect 9 0 2 0;
#X connect 10 0 1 0;
#X connect 11 0 15 0;
#X connect 11 0 43 0;
#X connect 12 0 39 0;
#X connect 12 0 44 0;
#X connect 13 0 23 0;
#X connect 13 0 41 0;
#X connect 14 0 15 1;
#X connect 15 0 21 0;
#X connect 16 0 15 0;
#X connect 17 0 38 0;
#X connect 18 0 20 0;
#X connect 18 1 19 1;
#X connect 19 0 31 0;
#X connect 20 0 17 0;
#X connect 21 0 32 0;
#X connect 21 1 18 1;
#X connect 21 2 35 0;
#X connect 21 3 22 0;
#X connect 22 0 8 0;
#X connect 22 1 2 1;
#X connect 23 0 27 0;
#X connect 23 1 8 0;
#X connect 24 0 25 0;
#X connect 25 0 0 1;
#X connect 27 0 36 1;
#X connect 28 0 33 1;
#X connect 29 0 30 0;
#X connect 30 0 36 2;
#X connect 30 1 33 2;
#X connect 31 0 36 0;
#X connect 31 1 33 0;
#X connect 32 0 18 0;
#X connect 34 0 29 0;
#X connect 35 0 34 0;
#X connect 37 0 26 0;
#X connect 38 0 19 0;
#X connect 39 0 28 0;
#X connect 39 1 24 0;
#X connect 42 0 0 0;
