#N canvas 0 22 716 507 12;
#X obj 117 214 clip~ -1 1;
#X obj 99 245 *~;
#X obj 99 372 outlet~;
#X obj 99 56 inlet;
#X obj 99 80 pack f 10;
#X obj 99 104 line~;
#X obj 117 190 catch~ del-\$2-\$1;
#X obj 275 92 loadbang;
#X obj 275 116 f \$1;
#X msg 307 198 set dacout-\$1;
#X obj 126 300 throw~;
#X obj 275 140 sel 4;
#X msg 275 164 6;
#X connect 0 0 1 1;
#X connect 1 0 10 0;
#X connect 1 0 2 0;
#X connect 3 0 4 0;
#X connect 4 0 5 0;
#X connect 5 0 1 0;
#X connect 6 0 0 0;
#X connect 7 0 8 0;
#X connect 8 0 11 0;
#X connect 9 0 10 0;
#X connect 11 0 12 0;
#X connect 11 1 9 0;
#X connect 12 0 9 0;
