#N canvas 529 50 652 243 12;
#X obj 132 43 hsl 100 30 0 127 0 0 repeats repeats-set empty -2 -8
0 10 #fcfcfc #000000 #000000 0 1;
#X text 157 49 Repeats;
#X obj 22 43 hsl 100 30 0 127 0 0 level level-set empty -2 -8 0 10
#fcfcfc #000000 #000000 0 1;
#X text 52 49 Level;
#X obj 242 43 hsl 100 30 0 127 0 0 time time-set empty -2 -8 0 10 #fcfcfc
#000000 #000000 780 1;
#X text 274 49 Time;
#X obj 192 93 hsl 100 30 0 127 0 0 mod mod-set empty -2 -8 0 10 #fcfcfc
#000000 #000000 0 1;
#X obj 82 93 hsl 100 30 0 127 0 0 levelt2 levelt2-set empty -2 -8 0
10 #fcfcfc #000000 #000000 0 1;
#X text 98 98 Level T/2;
#X obj 314 100 tgl 30 0 feedback feedback-set empty 17 7 0 10 #fcfcfc
#000000 #000000 0 1;
#X text 300 78 Feedback;
#X obj 113 132 hradio 30 1 0 6 div div-set empty 0 -8 0 10 #fcfcfc
#000000 #000000 0;
#X text 224 98 Mod;
#X obj 29 170 tgl 30 0 bypass bypass-set empty 17 7 0 10 #fcfcfc #000000
#000000 0 1;
#X text 22 145 Bypass;
#X text 123 139 4;
#X text 150 139 8;
#X text 183 139 3;
#X text 209 139 8+;
#X text 242 139 5;
#X text 268 139 PH;
#X text 78 138 Div;
#X obj 189 170 nbx 4 30 0 340 0 0 tempo tempo-set empty 0 -8 0 25 #fcfcfc
#000000 #000000 0 256;
#X text 109 178 Tempo;
#X obj 155 170 bng 30 100 50 0 tap tap-set empty 17 7 0 10 #fcfcfc
#000000 #000000;
#X text 157 176 Tap;
#X obj 316 161 bng 30 250 50 0 clear clear-set empty 17 7 0 10 #fcfcfc
#000000 #000000;
#X text 311 138 Clear;
#X obj 240 79 nbx 5 14 -1e+37 1e+37 0 0 fine fine-set empty 0 -8 0
10 #fcfcfc #000000 #000000 0 256;
#X obj 226 79 bng 14 250 50 0 mod-kill mod-kill-set empty 17 7 0 10
#fcfcfc #000000 #000000;
#X obj 123 170 tgl 10 0 tempo-flash tempo-flash-set empty 17 7 0 10
#fcfcfc #000000 #000000 1 1;
#X obj 456 46 throw~ input;
#X obj 457 144 catch~ output;
#N canvas 0 22 537 397 test 0;
#X msg 61 123 1 \, 0 1000;
#X obj 61 147 line~;
#X obj 56 220 *~;
#X obj 162 249 *~ 0.1;
#X obj 172 18 random 12;
#X obj 172 42 + 60;
#X obj 172 66 mtof;
#X obj 5 246 env~;
#X floatatom 5 270 5 0 0 0 - - -;
#X obj 61 171 *~;
#X obj 61 193 lop~ 100;
#X obj 141 159 osc~;
#X obj 161 229 +~;
#X obj 193 162 osc~;
#X obj 257 159 osc~;
#X obj 299 157 osc~;
#X obj 163 94 sig~;
#X obj 149 130 *~ 1;
#X obj 221 131 *~ 3;
#X obj 257 129 *~ 4;
#X obj 137 195 *~ 0.5;
#X obj 253 195 *~ 0.3;
#X obj 295 193 *~ 0.2;
#X obj 189 198 *~ 0.3;
#X obj 185 128 *~ 2;
#X obj 156 324 throw~ input;
#X obj 39 44 spigot;
#X obj 39 20 r beat;
#X obj 94 77 t b b b;
#X obj 92 17 r test;
#X obj 411 58 r test;
#X obj 380 144 _switch;
#X obj 434 231 switch~;
#X obj 154 295 *~;
#X connect 0 0 1 0;
#X connect 1 0 9 0;
#X connect 1 0 9 1;
#X connect 2 0 7 0;
#X connect 2 0 33 0;
#X connect 3 0 2 1;
#X connect 4 0 5 0;
#X connect 5 0 6 0;
#X connect 6 0 16 0;
#X connect 7 0 8 0;
#X connect 9 0 10 0;
#X connect 10 0 2 0;
#X connect 11 0 20 0;
#X connect 12 0 3 0;
#X connect 13 0 23 0;
#X connect 14 0 21 0;
#X connect 15 0 22 0;
#X connect 16 0 17 0;
#X connect 16 0 19 0;
#X connect 16 0 18 0;
#X connect 16 0 24 0;
#X connect 17 0 11 0;
#X connect 18 0 14 0;
#X connect 19 0 15 0;
#X connect 20 0 12 0;
#X connect 21 0 12 1;
#X connect 22 0 12 1;
#X connect 23 0 12 0;
#X connect 24 0 13 0;
#X connect 26 0 28 0;
#X connect 27 0 26 0;
#X connect 28 0 0 0;
#X connect 28 1 4 0;
#X connect 29 0 26 1;
#X connect 30 0 31 0;
#X connect 31 0 33 1;
#X connect 31 1 32 0;
#X connect 33 0 25 0;
#X restore 380 28 pd test;
#X obj 380 100 tgl 15 0 empty empty empty 17 7 0 10 #fcfcfc #000000
#000000 0 1;
#X obj 380 120 s test;
#X obj 456 22 adc~ 1;
#X obj 380 144 tgl 15 0 empty empty empty 17 7 0 10 #fcfcfc #000000
#000000 0 1;
#X obj 380 164 s click;
#N canvas 0 22 450 300 click 0;
#X obj 81 137 vline~;
#X obj 80 210 hip~ 4000;
#X obj 112 160 osc~ 5500;
#X obj 112 184 *~ 0.1;
#X obj 80 186 *~;
#X msg 79 107 1 \, 0 100;
#X obj 80 162 *~;
#X obj 84 269 throw~ output;
#X obj 73 83 spigot;
#X obj 119 55 r click;
#X obj 229 61 r click;
#X obj 77 31 r beat;
#X obj 231 86 _switch;
#X obj 285 173 switch~;
#X obj 82 240 *~;
#X connect 0 0 6 0;
#X connect 0 0 6 1;
#X connect 1 0 14 0;
#X connect 2 0 3 0;
#X connect 3 0 4 1;
#X connect 4 0 1 0;
#X connect 5 0 0 0;
#X connect 6 0 4 0;
#X connect 8 0 5 0;
#X connect 9 0 8 1;
#X connect 10 0 12 0;
#X connect 11 0 8 0;
#X connect 12 0 14 1;
#X connect 12 1 13 0;
#X connect 14 0 7 0;
#X restore 380 52 pd click;
#N canvas 862 200 1058 811 glue 0;
#X obj 481 216 r div;
#X obj 748 184 r tap;
#X obj 748 258 timer;
#X obj 748 208 tgl 15 0 empty empty empty 17 7 0 10 #fcfcfc #000000
#000000 0 1;
#X obj 748 232 sel 1 0;
#X obj 736 370 /;
#X obj 736 394 s tempo-set;
#X obj 352 618 r tempo;
#X obj 352 672 f;
#X floatatom 384 698 5 0 0 0 - - -;
#X obj 383 672 t b f;
#X obj 481 240 sel 0 1 2 3 4 5;
#X obj 563 380 t b b;
#X obj 481 384 t b b;
#X msg 702 449 1;
#X obj 702 473 +;
#X msg 741 440 5;
#X obj 741 464 sqrt;
#X obj 702 497 / 2;
#X obj 656 422 t b b b;
#X obj 642 627 r tempo;
#X obj 642 681 f;
#X floatatom 676 706 5 0 0 0 - - -;
#X obj 673 681 t b f;
#X obj 437 34 r time;
#X obj 469 142 s time-1;
#X obj 437 168 s time-2;
#X msg 736 346 60000 \$1;
#X obj 437 55 * 4.25197;
#X floatatom 500 102 5 0 0 0 - - -;
#X obj 642 729 s time-2;
#X obj 755 710 r mod-kill;
#X msg 755 734 \; mod-set 0 \; fine-set 0;
#X floatatom 836 390 5 0 0 0 - - -;
#X floatatom 832 287 5 0 0 0 - - -;
#X floatatom 678 299 5 0 0 0 - - -;
#X obj 836 342 * 60;
#X obj 836 366 / 1000;
#X floatatom 768 369 5 0 0 0 - - -;
#X obj 798 520 * 60;
#X floatatom 801 537 5 0 0 0 - - -;
#X obj 823 455 /;
#X msg 824 431 60 \$1;
#X obj 823 479 * 1000;
#X floatatom 823 503 5 0 0 0 - - -;
#X obj 438 118 t f f f;
#X obj 481 747 s time-1;
#X obj 353 769 s time-set;
#X obj 352 720 / 1200;
#X obj 352 744 * 127;
#X obj 581 500 t f f;
#X obj 612 530 *;
#X floatatom 709 523 5 0 0 0 - - -;
#X floatatom 612 554 5 0 0 0 - - -;
#X obj 479 644 r tempo;
#X obj 479 698 f;
#X floatatom 511 724 5 0 0 0 - - -;
#X obj 510 698 t b f;
#X obj 352 696 / 4;
#X obj 479 722 / 4;
#X obj 642 705 / 4;
#X obj 352 645 * 4;
#X obj 479 671 * 4;
#X obj 642 654 * 4;
#X obj 422 546 * 1;
#X obj 504 548 * 1;
#X obj 567 553 * 1;
#X msg 577 432 0.2;
#X msg 441 285 0.5;
#X msg 450 311 0.25;
#X msg 461 338 0.165;
#X msg 521 422 0.5;
#X msg 566 410 0.5;
#X msg 632 453 0.5;
#X msg 465 419 0.33;
#X obj 56 256 metro 100;
#X obj 45 346 del 50;
#X msg 45 370 0;
#X msg 79 368 1;
#X floatatom 202 221 5 0 0 0 - - -;
#X obj 164 252 t f f;
#X obj 162 292 * 0.5;
#X obj 186 148 /;
#X msg 187 124 60 \$1;
#X obj 197 198 * 1000;
#X obj 30 93 r time-1;
#X obj 187 170 * 4;
#X obj 49 411 s tempo-flash-set;
#X obj 32 125 t b f;
#X obj 64 291 t b b b;
#X obj 113 323 s beat;
#X obj 48 497 loadbang;
#X floatatom 422 570 5 0 0 0 - - -;
#X floatatom 409 733 5 0 0 0 - - -;
#X floatatom 564 122 5 0 0 0 - - -;
#X floatatom 525 193 5 0 0 0 - - -;
#X obj 615 67 hradio 30 1 0 6 div div-set empty 0 -8 0 10 #fcfcfc #000000
#000000 0;
#X text 625 74 4;
#X text 652 74 8;
#X text 685 74 3;
#X text 711 74 8+;
#X text 744 74 5;
#X text 770 74 PH;
#X text 580 73 Div;
#X msg 47 520 \; pd dsp 1 \; bypass-set 0 \; time-set 10 \; level-set
0 \; levelt2-set 0 \; repeats-set 0 \; mod-kill bang \; div-set set
0 \; tempo-flash-set set 0 \; feedback-set 0 \;;
#X connect 0 0 11 0;
#X connect 0 0 95 0;
#X connect 1 0 3 0;
#X connect 2 0 27 0;
#X connect 2 0 35 0;
#X connect 2 0 36 0;
#X connect 3 0 4 0;
#X connect 4 0 2 0;
#X connect 4 1 2 1;
#X connect 5 0 6 0;
#X connect 5 0 38 0;
#X connect 7 0 61 0;
#X connect 8 0 58 0;
#X connect 10 0 8 0;
#X connect 10 1 58 1;
#X connect 11 0 68 0;
#X connect 11 1 69 0;
#X connect 11 2 70 0;
#X connect 11 3 13 0;
#X connect 11 4 12 0;
#X connect 11 5 19 0;
#X connect 12 0 72 0;
#X connect 12 1 67 0;
#X connect 13 0 74 0;
#X connect 13 1 71 0;
#X connect 14 0 15 0;
#X connect 15 0 18 0;
#X connect 16 0 17 0;
#X connect 17 0 15 1;
#X connect 18 0 51 1;
#X connect 18 0 52 0;
#X connect 19 0 73 0;
#X connect 19 1 14 0;
#X connect 19 2 16 0;
#X connect 20 0 63 0;
#X connect 21 0 60 0;
#X connect 23 0 21 0;
#X connect 23 1 60 1;
#X connect 24 0 28 0;
#X connect 27 0 5 0;
#X connect 28 0 45 0;
#X connect 31 0 32 0;
#X connect 34 0 27 0;
#X connect 34 0 36 0;
#X connect 36 0 37 0;
#X connect 37 0 33 0;
#X connect 38 0 42 0;
#X connect 39 0 40 0;
#X connect 41 0 43 0;
#X connect 42 0 41 0;
#X connect 43 0 44 0;
#X connect 45 0 26 0;
#X connect 45 1 25 0;
#X connect 45 1 29 0;
#X connect 48 0 49 0;
#X connect 49 0 93 0;
#X connect 49 0 47 0;
#X connect 50 0 65 0;
#X connect 50 1 51 0;
#X connect 51 0 53 0;
#X connect 51 0 66 0;
#X connect 54 0 62 0;
#X connect 55 0 59 0;
#X connect 57 0 55 0;
#X connect 57 1 59 1;
#X connect 58 0 9 0;
#X connect 58 0 48 0;
#X connect 59 0 56 0;
#X connect 59 0 46 0;
#X connect 60 0 22 0;
#X connect 60 0 30 0;
#X connect 61 0 8 0;
#X connect 62 0 55 0;
#X connect 63 0 21 0;
#X connect 64 0 92 0;
#X connect 64 0 10 0;
#X connect 65 0 57 0;
#X connect 66 0 23 0;
#X connect 67 0 66 0;
#X connect 68 0 64 0;
#X connect 69 0 64 0;
#X connect 70 0 64 0;
#X connect 71 0 66 0;
#X connect 72 0 65 0;
#X connect 73 0 50 0;
#X connect 74 0 65 0;
#X connect 75 0 89 0;
#X connect 76 0 77 0;
#X connect 77 0 87 0;
#X connect 78 0 87 0;
#X connect 80 0 75 1;
#X connect 80 1 81 0;
#X connect 81 0 76 1;
#X connect 82 0 86 0;
#X connect 83 0 82 0;
#X connect 84 0 80 0;
#X connect 84 0 79 0;
#X connect 85 0 88 0;
#X connect 86 0 84 0;
#X connect 88 0 75 0;
#X connect 88 1 83 0;
#X connect 89 0 76 0;
#X connect 89 1 78 0;
#X connect 89 2 90 0;
#X connect 91 0 104 0;
#X restore 380 76 pd glue;
#N canvas 1007 414 450 300 processing 0;
#N canvas 168 1 828 1010 delay 0;
#X obj 259 175 r repeats;
#X obj 259 274 line~;
#X obj 241 300 *~;
#X obj 61 23 inlet~;
#X obj 61 954 outlet~;
#X obj 79 120 r level;
#X obj 79 222 line~;
#X obj 61 247 *~;
#X obj 269 521 line~;
#X obj 251 570 *~;
#X obj 233 594 +~;
#X obj 80 543 delwrite~ d1 600;
#X obj 233 713 delwrite~ d2 600;
#X obj 269 472 r feedback;
#X obj 241 129 delread4~ d1 60;
#X obj 251 446 delread4~ d2 60;
#X obj 241 85 line~;
#X obj 241 40 r time-1;
#X obj 251 397 line~;
#X obj 251 353 r time-2;
#X obj 392 19 inlet;
#X obj 61 925 *~;
#X obj 392 906 _switch;
#X obj 438 944 switch~;
#X obj 241 63 pack f 1000;
#X obj 251 375 pack f 1000;
#X obj 269 497 pack f 5000;
#X obj 259 250 pack f 1000;
#X obj 79 198 pack f 500;
#X obj 79 817 line~;
#X obj 61 843 *~;
#X obj 79 742 r levelt2;
#X obj 504 37 r mod;
#X obj 504 63 * 0.787402;
#X obj 504 87 dbtorms;
#X obj 505 185 * 100;
#X obj 505 259 osc~;
#X obj 505 283 *~ 0.5;
#X obj 505 307 +~ 0.5;
#X obj 505 331 *~;
#X obj 505 212 pack f 100;
#X obj 505 236 line~;
#X obj 596 236 pack f 100;
#X obj 596 260 line~;
#X obj 259 228 clip 0 0.98;
#X obj 61 895 hip~ 5;
#X obj 90 492 r clear;
#X msg 90 516 clear;
#X obj 243 661 r clear;
#X msg 243 689 clear;
#X obj 597 213 * 10;
#X obj 61 319 +~;
#X obj 61 643 +~;
#X obj 576 126 r fine;
#X obj 576 150 t b f;
#X obj 608 176 * 0.001;
#X obj 504 162 t a a;
#X obj 504 112 f;
#X obj 504 137 +;
#X obj 79 765 * 0.00393701;
#X obj 79 165 * 0.00393701;
#X obj 259 200 * 0.00771654;
#X obj 61 374 hip~ 20;
#X obj 61 428 clip~ -1 1;
#X obj 233 624 clip~ -1 1;
#X obj 269 545 *~ 0.7;
#X obj 79 793 pack f 120;
#X obj 251 422 +~;
#X connect 0 0 61 0;
#X connect 1 0 2 1;
#X connect 2 0 51 1;
#X connect 3 0 7 0;
#X connect 5 0 60 0;
#X connect 6 0 7 1;
#X connect 7 0 51 0;
#X connect 8 0 65 0;
#X connect 9 0 10 1;
#X connect 10 0 64 0;
#X connect 13 0 26 0;
#X connect 14 0 2 0;
#X connect 15 0 9 0;
#X connect 16 0 14 0;
#X connect 17 0 24 0;
#X connect 18 0 67 0;
#X connect 19 0 25 0;
#X connect 20 0 22 0;
#X connect 21 0 4 0;
#X connect 22 0 21 1;
#X connect 22 1 23 0;
#X connect 24 0 16 0;
#X connect 25 0 18 0;
#X connect 26 0 8 0;
#X connect 27 0 1 0;
#X connect 28 0 6 0;
#X connect 29 0 30 1;
#X connect 30 0 45 0;
#X connect 31 0 59 0;
#X connect 32 0 33 0;
#X connect 33 0 34 0;
#X connect 34 0 57 0;
#X connect 35 0 40 0;
#X connect 36 0 37 0;
#X connect 37 0 38 0;
#X connect 38 0 39 0;
#X connect 39 0 14 0;
#X connect 39 0 67 1;
#X connect 40 0 41 0;
#X connect 41 0 36 0;
#X connect 42 0 43 0;
#X connect 43 0 39 1;
#X connect 44 0 27 0;
#X connect 45 0 21 0;
#X connect 46 0 47 0;
#X connect 47 0 11 0;
#X connect 48 0 49 0;
#X connect 49 0 12 0;
#X connect 50 0 42 0;
#X connect 51 0 62 0;
#X connect 52 0 30 0;
#X connect 53 0 54 0;
#X connect 54 0 57 0;
#X connect 54 1 55 0;
#X connect 55 0 58 1;
#X connect 56 0 35 0;
#X connect 56 1 50 0;
#X connect 57 0 58 0;
#X connect 58 0 56 0;
#X connect 59 0 66 0;
#X connect 60 0 28 0;
#X connect 61 0 44 0;
#X connect 62 0 63 0;
#X connect 63 0 11 0;
#X connect 63 0 10 0;
#X connect 63 0 52 0;
#X connect 64 0 12 0;
#X connect 64 0 52 1;
#X connect 65 0 9 1;
#X connect 66 0 29 0;
#X connect 67 0 15 0;
#X restore 109 169 pd delay;
#X obj 61 169 *~;
#X obj 79 70 r bypass;
#X obj 79 94 t f f;
#X obj 79 143 line~;
#X obj 162 144 ==;
#X obj 79 119 pack f 100;
#X obj 61 203 +~;
#X obj 61 36 catch~ input;
#X obj 61 227 throw~ output;
#X connect 0 0 7 1;
#X connect 1 0 7 0;
#X connect 2 0 3 0;
#X connect 3 0 6 0;
#X connect 3 1 5 0;
#X connect 4 0 1 1;
#X connect 5 0 0 1;
#X connect 6 0 4 0;
#X connect 7 0 9 0;
#X connect 8 0 1 0;
#X connect 8 0 0 0;
#X restore 455 89 pd processing;
#X obj 457 179 dac~ 1 2;
#X obj 455 113 param.util;
#X connect 32 0 42 0;
#X connect 32 0 42 1;
#X connect 34 0 35 0;
#X connect 36 0 31 0;
#X connect 37 0 38 0;
#X coords 0 -1 1 1 350 200 2 10 10;
