#N canvas 900 243 380 535 10;
#X obj 7 41 route \$1;
#X obj 7 19 receive param;
#X obj 7 74 change -1e+37;
#X obj 9 474 s camomile;
#X obj 9 186 t f b;
#X msg 9 390 param set \$2 \$1;
#X obj 39 141 receive \$2;
#X obj 37 109 send \$2-set;
#X obj 9 256 pack f \$1;
#X obj 36 208 f \$1;
#X obj 214 163 r gui;
#X obj 214 185 route mouse;
#X obj 202 362 pack f f, f 18;
#X msg 202 385 param change \$1 \$2;
#X obj 251 279 t b f, f 8;
#X obj 214 251 t b f, f 16;
#X obj 175 303 t b f;
#X msg 251 229 0;
#X msg 214 229 1;
#N canvas 0 23 156 140 once 0;
#X obj 15 84 t f b, f 8;
#X obj 78 84 f 0;
#X obj 15 19 inlet;
#X obj 60 19 inlet;
#X obj 15 106 outlet;
#X obj 60 41 f 1;
#X obj 15 62 spigot 0;
#X connect 0 0 4 0;
#X connect 0 1 1 0;
#X connect 1 0 6 1;
#X connect 2 0 6 0;
#X connect 3 0 5 0;
#X connect 5 0 6 1;
#X connect 6 0 0 0;
#X restore 175 279 pd once;
#N canvas 0 23 156 140 once 0;
#X obj 89 69 f 0;
#X obj 15 19 inlet;
#X obj 60 19 inlet;
#X obj 15 106 outlet;
#X obj 60 41 f 1;
#X obj 15 62 spigot 0;
#X obj 15 84 t b b, f 8;
#X connect 0 0 5 1;
#X connect 1 0 5 0;
#X connect 2 0 4 0;
#X connect 4 0 5 1;
#X connect 5 0 6 0;
#X connect 6 0 3 0;
#X connect 6 1 0 0;
#X restore 251 331 pd once;
#X obj 214 207 sel 1 0, f 13;
#X obj 128 8 r \$2;
#X obj 132 39 change;
#X obj 196 49 f \$1;
#X obj 133 58 t f b b;
#X obj 167 80 text size prog;
#X obj 146 128 text set prog;
#X obj 169 104 - 1;
#X obj 271 80 - 1;
#X connect 0 0 2 0;
#X connect 1 0 0 0;
#X connect 2 0 7 0;
#X connect 4 0 8 0;
#X connect 4 1 9 0;
#X connect 5 0 3 0;
#X connect 6 0 4 0;
#X connect 8 0 5 0;
#X connect 9 0 19 0;
#X connect 10 0 11 0;
#X connect 11 0 21 0;
#X connect 12 0 13 0;
#X connect 13 0 3 0;
#X connect 14 0 20 0;
#X connect 14 1 12 1;
#X connect 15 0 19 1;
#X connect 15 1 12 1;
#X connect 16 0 20 1;
#X connect 16 1 12 0;
#X connect 17 0 14 0;
#X connect 18 0 15 0;
#X connect 19 0 16 0;
#X connect 20 0 12 0;
#X connect 21 0 18 0;
#X connect 21 1 17 0;
#X connect 23 0 25 0;
#X connect 24 0 29 0;
#X connect 25 0 27 0;
#X connect 25 1 26 0;
#X connect 25 2 24 0;
#X connect 26 0 28 0;
#X connect 28 0 27 1;
#X connect 29 0 27 2;
