#N canvas 0 22 1068 584 12;
#X obj 559 194 env~;
#X obj 559 218 - 100;
#X obj 559 242 s vu;
#X obj 630 180 env~;
#X obj 630 204 - 101;
#X obj 557 293 env~;
#X obj 557 317 - 101;
#X obj 631 379 env~;
#X obj 631 403 - 101;
#X obj 557 341 s floor-vu;
#X obj 630 228 s sub-1-vu;
#X obj 631 427 s sub-2-vu;
#X obj 121 129 vsl 30 128 0 127 0 0 vol vol-set vol 0 -9 0 10 -262144
-1 -1 0 1;
#X obj 159 129 vu 15 120 vu empty -1 -8 0 10 -66577 -1 1 0;
#X obj 121 276 nbx 5 14 -1e+37 1e+37 0 0 empty vol vol-dB 0 -8 0 10
-262144 -1 -1 0 256;
#X obj 212 129 vsl 15 128 0 127 0 0 sub-1 sub-1-set sub-1 0 -9 0 10
-262144 -1 -1 0 1;
#X obj 241 129 vu 15 120 sub-1-vu empty -1 -8 0 10 -66577 -1 1 0;
#X obj 630 156 clone -s 126 _dacout 4 sub-1 1 rec 4;
#X obj 631 355 clone -s 140 _dacout 2 sub-2 1 rec 4;
#X obj 412 129 vsl 15 128 0 127 0 0 sub-2 sub-2-set sub-2 0 -9 0 10
-262144 -1 -1 0 1;
#X obj 441 129 vu 15 120 sub-2-vu empty -1 -8 0 10 -66577 -1 1 0;
#X obj 313 129 vsl 30 128 0 127 0 0 floor floor-set floor 0 -9 0 10
-262144 -1 -1 0 1;
#X obj 350 129 vu 15 120 floor-vu empty -1 -8 0 10 -66577 -1 1 0;
#X obj 212 276 nbx 5 14 -1e+37 1e+37 0 0 empty sub-1 sub-1-dB 0 -8
0 10 -262144 -1 -1 0 256;
#X obj 313 276 nbx 5 14 -1e+37 1e+37 0 0 empty floor floor-dB 0 -8
0 10 -262144 -1 -1 0 256;
#X obj 412 276 nbx 5 14 -1e+37 1e+37 0 0 empty sub-2 sub-2-dB 0 -8
0 10 -262144 -1 -1 0 256;
#X obj 559 116 clone _dacout 125 vol 6 rec;
#X obj 557 269 clone -s 130 _dacout 10 floor 6 rec;
#X connect 0 0 1 0;
#X connect 1 0 2 0;
#X connect 3 0 4 0;
#X connect 4 0 10 0;
#X connect 5 0 6 0;
#X connect 6 0 9 0;
#X connect 7 0 8 0;
#X connect 8 0 11 0;
#X connect 17 0 3 0;
#X connect 18 0 7 0;
#X connect 26 0 0 0;
#X connect 26 0 17 0;
#X connect 27 0 5 0;
#X connect 27 0 18 0;
#X coords 0 -1 1 1 406 203 1 100 100;
