#N canvas 1009 32 250 735 10;
#N canvas 0 22 440 202 (subpatch) 0;
#X obj 152 9 vu 15 120 micro1-env empty -1 -8 0 10 -66577 -1 1 0;
#X obj 7 17 tgl 15 0 adc1 adc1-set adc1 17 7 0 10 -262144 -1 -1 1 1
;
#X obj 54 17 nbx 5 14 0 1e+37 0 0 adc1-hip adc1-hip-set adc1-hip 0
-8 0 10 -262144 -1 -1 10 256;
#X obj 7 47 tgl 15 0 adc2 adc2-set adc2 17 7 0 10 -262144 -1 -1 1 1
;
#X obj 54 47 nbx 5 14 0 1e+37 0 0 adc2-hip adc2-hip-set adc2-hip 0
-8 0 10 -262144 -1 -1 100 256;
#N canvas 0 22 143 120 micro1-env 0;
#X obj 22 33 env~;
#X obj 22 55 - 100;
#X obj 22 11 r~ micro1;
#X obj 22 77 s micro1-env;
#X connect 0 0 1 0;
#X connect 1 0 3 0;
#X connect 2 0 0 0;
#X restore 209 58 pd micro1-env;
#N canvas 332 135 352 253 adc 0;
#X obj 12 22 adc~ 1;
#X obj 152 178 hip~ 100;
#X obj 27 45 r adc1;
#X obj 12 115 *~;
#X msg 27 67 \$1 10;
#X obj 27 89 line~;
#X obj 152 115 *~;
#X msg 167 67 \$1 10;
#X obj 167 89 line~;
#X obj 51 154 r adc1-hip;
#X obj 152 22 adc~ 2;
#X obj 167 45 r adc2;
#X obj 12 200 throw~ adc;
#X obj 197 153 r adc2-hip;
#X obj 12 178 hip~ 10;
#X obj 152 200 throw~ adc;
#X obj 263 46 s~ micro1;
#X obj 263 23 catch~ adc;
#X connect 0 0 3 0;
#X connect 1 0 15 0;
#X connect 2 0 4 0;
#X connect 3 0 14 0;
#X connect 4 0 5 0;
#X connect 5 0 3 1;
#X connect 6 0 1 0;
#X connect 7 0 8 0;
#X connect 8 0 6 1;
#X connect 9 0 14 1;
#X connect 10 0 6 0;
#X connect 11 0 7 0;
#X connect 13 0 1 1;
#X connect 14 0 12 0;
#X connect 17 0 16 0;
#X restore 209 38 pd adc;
#X obj 10 83 hsl 128 15 0 127 0 0 feedback feedback-set feedback -2
-8 0 10 -262144 -1 -1 300 1;
#N canvas 0 22 221 242 feedback 0;
#X obj 27 177 *~;
#X msg 26 63 \$1 100;
#X obj 26 85 line~;
#X obj 27 202 throw~ adc;
#X obj 26 21 r feedback;
#X obj 26 107 s~ fbline;
#X obj 42 152 r~ fbline;
#X obj 107 177 *~;
#X obj 107 202 throw~ adc;
#X obj 122 152 r~ fbline;
#X obj 27 129 r~ wet-l;
#X obj 107 129 r~ wet-r;
#X obj 26 43 / 1270;
#X connect 0 0 3 0;
#X connect 1 0 2 0;
#X connect 2 0 5 0;
#X connect 4 0 12 0;
#X connect 6 0 0 1;
#X connect 7 0 8 0;
#X connect 9 0 7 1;
#X connect 10 0 0 0;
#X connect 11 0 7 0;
#X connect 12 0 1 0;
#X restore 209 97 pd feedback;
#X obj 10 113 hsl 128 15 0 127 0 0 wet-dry wet-dry-set wet-dry -2 -8
0 10 -262144 -1 -1 5000 1;
#N canvas 0 22 192 78 delwrite 0;
#X obj 15 12 r~ micro1;
#X obj 15 33 delwrite~ line1 10000;
#X connect 0 0 1 0;
#X restore 209 77 pd delwrite;
#N canvas 0 22 134 194 wetdry 0;
#X obj 24 16 r wet-dry;
#X obj 24 129 s wetdry;
#X obj 24 63 * 3.1416;
#X obj 24 107 sin;
#X obj 24 38 / 100;
#X obj 24 85 + 1.2;
#X connect 0 0 4 0;
#X connect 2 0 5 0;
#X connect 3 0 1 0;
#X connect 4 0 2 0;
#X connect 5 0 3 0;
#X restore 209 117 pd wetdry;
#X obj 9 2 bng 10 250 50 0 empty empty empty 17 7 0 10 -262144 -1 -1
;
#N canvas 0 22 172 231 loadbang 0;
#X obj 27 47 loadbang;
#X obj 11 17 inlet;
#X msg 27 70 \; adc1-set 1 \; adc2-set 1 \; adc1-hip-set 10 \; adc2-hip-set
100 \; feedback-set 3 \; wet-dry-set 50 \;;
#X connect 0 0 2 0;
#X connect 1 0 2 0;
#X restore 212 10 pd loadbang;
#X connect 12 0 13 0;
#X coords 0 1 100 -1 200 140 1 0 0;
#X restore 17 7 graph;
#N canvas 57 87 450 278 (subpatch) 0;
#X obj 120 18 vsl 15 100 0 127 0 0 del-mainvol del-mainvol-set delay_mainvol
0 -9 0 10 -262144 -1 -1 0 1;
#X obj 145 38 vu 20 80 dac-out empty -1 -8 0 8 -66577 -1 1 0;
#N canvas 0 22 209 259 dac-out 0;
#X obj 30 71 env~;
#X obj 30 93 - 100;
#X obj 30 43 +~;
#X obj 30 13 r~ dac-l-out;
#X obj 110 13 r~ dac-r-out;
#X obj 30 115 s dac-out;
#X connect 0 0 1 0;
#X connect 1 0 5 0;
#X connect 2 0 0 0;
#X connect 3 0 2 0;
#X connect 4 0 2 1;
#X restore 211 73 pd dac-out;
#X obj 10 18 vsl 15 100 0 127 0 0 wet wet-set wet 0 -9 0 10 -262144
-1 -1 6712 1;
#X obj 33 18 vsl 15 100 0 127 0 0 dry dry-set dry 0 -9 0 10 -262144
-1 -1 3141 1;
#N canvas 0 22 446 357 wetline 0;
#X obj 146 132 catch~ del-r;
#X obj 16 132 catch~ del-l;
#X obj 16 267 s~ wet-l;
#X obj 146 267 s~ wet-r;
#X obj 16 233 *~;
#X obj 31 211 r~ wetline;
#X obj 146 233 *~;
#X obj 161 211 r~ wetline;
#X obj 19 70 line~;
#X msg 19 48 \$1 10;
#X obj 19 92 s~ wetline;
#X obj 19 5 r wet;
#X obj 19 27 / 127;
#X obj 16 154 clip~ -1 1;
#X obj 146 154 clip~ -1 1;
#X connect 0 0 14 0;
#X connect 1 0 13 0;
#X connect 4 0 2 0;
#X connect 5 0 4 1;
#X connect 6 0 3 0;
#X connect 7 0 6 1;
#X connect 8 0 10 0;
#X connect 9 0 8 0;
#X connect 11 0 12 0;
#X connect 12 0 9 0;
#X connect 13 0 4 0;
#X connect 14 0 6 0;
#X restore 211 29 pd wetline;
#N canvas 0 22 178 112 wet-dry 0;
#X obj 19 11 r wetdry;
#X obj 89 11 r wetdry;
#X obj 19 33 * 63.2;
#X obj 89 33 * -63.2;
#X obj 19 55 + 63.2;
#X obj 89 55 + 63.2;
#X obj 19 77 s wet-set;
#X obj 89 77 s dry-set;
#X connect 0 0 2 0;
#X connect 1 0 3 0;
#X connect 2 0 4 0;
#X connect 3 0 5 0;
#X connect 4 0 6 0;
#X connect 5 0 7 0;
#X restore 211 8 pd wet-dry;
#N canvas 0 22 522 377 mixer 0;
#X obj 18 242 *~;
#X obj 23 82 line~;
#X obj 310 135 *~;
#X obj 23 11 r del-mainvol;
#X msg 23 56 \$1 10;
#X obj 23 104 s~ dl-mainvol-line;
#X obj 33 209 r~ dl-mainvol-line;
#X obj 158 242 *~;
#X obj 173 209 r~ dl-mainvol-line;
#X obj 331 235 *~;
#X obj 346 202 r~ dl-mainvol-line;
#X obj 325 109 line~;
#X msg 325 83 \$1 10;
#X obj 18 185 r~ wet-l;
#X obj 158 186 r~ wet-r;
#X obj 331 179 r~ micro1-dry;
#X obj 310 17 r~ micro1;
#X obj 18 264 throw~ dac-l;
#X obj 158 264 throw~ dac-r;
#X obj 298 264 throw~ dac-l;
#X obj 378 264 throw~ dac-r;
#X obj 18 311 catch~ dac-l;
#X obj 98 311 catch~ dac-r;
#X obj 18 335 s~ dac-l-out;
#X obj 98 335 s~ dac-r-out;
#X obj 325 38 r dry;
#X obj 310 157 s~ micro1-dry;
#X obj 325 60 / 127;
#X obj 23 33 / 12.7;
#X connect 0 0 17 0;
#X connect 1 0 5 0;
#X connect 2 0 26 0;
#X connect 3 0 28 0;
#X connect 4 0 1 0;
#X connect 6 0 0 1;
#X connect 7 0 18 0;
#X connect 8 0 7 1;
#X connect 9 0 19 0;
#X connect 9 0 20 0;
#X connect 10 0 9 1;
#X connect 11 0 2 1;
#X connect 12 0 11 0;
#X connect 13 0 0 0;
#X connect 14 0 7 0;
#X connect 15 0 9 0;
#X connect 16 0 2 0;
#X connect 21 0 23 0;
#X connect 22 0 24 0;
#X connect 25 0 27 0;
#X connect 27 0 12 0;
#X connect 28 0 4 0;
#X restore 211 49 pd mixer;
#X coords 0 1 100 -1 200 140 1 0 0;
#X restore 17 299 graph;
#N canvas 196 184 805 510 (subpatch) 0;
#N canvas 711 220 304 694 dels 1;
#X restore 207 122 pd dels;
#N canvas 63 110 609 412 del-create 0;
#X obj 49 36 r del-create;
#N canvas 30 43 269 439 expsqrtsqrt 0;
#X obj 10 149 exp;
#X obj 10 171 sqrt;
#X obj 10 193 sqrt;
#X obj 10 63 until;
#X obj 10 276 pack, f 6;
#X obj 10 244 / 22;
#X obj 10 85 int 11;
#X obj 56 86 - 1;
#X obj 66 179 - 11;
#X obj 66 201 * -1;
#X obj 66 223 + 1;
#X obj 10 127 t f f b, f 16;
#X obj 10 298 list, f 16;
#X obj 10 320 list trim;
#X obj 124 170 int 10;
#X obj 180 170 + 25;
#X obj 10 34 t f f f b, f 33;
#X msg 151 123 10;
#X obj 27 221 * 2;
#X obj 8 11 inlet;
#X obj 10 342 outlet;
#X connect 0 0 1 0;
#X connect 1 0 2 0;
#X connect 2 0 5 0;
#X connect 3 0 6 0;
#X connect 4 0 12 0;
#X connect 5 0 4 0;
#X connect 6 0 7 0;
#X connect 6 0 11 0;
#X connect 7 0 6 1;
#X connect 8 0 9 0;
#X connect 9 0 10 0;
#X connect 10 0 4 1;
#X connect 11 0 0 0;
#X connect 11 1 8 0;
#X connect 11 2 14 0;
#X connect 12 0 13 0;
#X connect 13 0 20 0;
#X connect 14 0 15 0;
#X connect 14 0 12 1;
#X connect 15 0 14 1;
#X connect 16 0 3 0;
#X connect 16 1 6 1;
#X connect 16 2 8 1;
#X connect 16 2 18 0;
#X connect 16 3 17 0;
#X connect 17 0 14 1;
#X connect 18 0 5 1;
#X connect 19 0 16 0;
#X restore 41 118 pd expsqrtsqrt;
#X msg 27 232 \; pd-dels obj 10 \$4 del-water \$1 \$2 \$3 \;;
#N canvas 536 83 318 506 lorenz-creator 0;
#X obj 96 413 list, f 16;
#X obj 96 435 list trim;
#X obj 205 169 int 10;
#X obj 261 169 + 25;
#X msg 232 122 10;
#X obj 8 11 inlet;
#X obj 17 214 lorenz;
#X obj 85 175 loadbang;
#X msg 85 197 print 1000;
#X msg 27 185 reset;
#X obj 33 244 unpack f f f f;
#X obj 60 278 + 30;
#X obj 90 278 + 30;
#X obj 33 330 pack f f f f;
#X obj 60 300 / 60;
#X obj 90 300 / 60;
#X obj 124 301 / 60;
#X obj 33 354 route 0;
#X msg 17 155 print \$1;
#X obj 20 77 until;
#X obj 10 34 t f f b, f 33;
#X msg 99 77 set \$1;
#X msg 27 132 64;
#X obj 20 99 t b b;
#X obj 96 457 outlet;
#X connect 0 0 1 0;
#X connect 1 0 24 0;
#X connect 2 0 3 0;
#X connect 2 0 0 1;
#X connect 3 0 2 1;
#X connect 4 0 2 1;
#X connect 5 0 20 0;
#X connect 6 1 10 0;
#X connect 7 0 8 0;
#X connect 8 0 6 0;
#X connect 9 0 6 0;
#X connect 10 0 13 0;
#X connect 10 1 11 0;
#X connect 10 2 12 0;
#X connect 10 3 16 0;
#X connect 11 0 14 0;
#X connect 12 0 15 0;
#X connect 13 0 17 0;
#X connect 14 0 13 1;
#X connect 15 0 13 2;
#X connect 16 0 13 3;
#X connect 17 0 0 0;
#X connect 18 0 6 0;
#X connect 19 0 23 0;
#X connect 20 0 19 0;
#X connect 20 1 21 0;
#X connect 20 2 4 0;
#X connect 21 0 22 0;
#X connect 22 0 18 0;
#X connect 23 0 22 0;
#X connect 23 1 2 0;
#X restore 202 116 pd lorenz-creator;
#X msg 206 171 \; pd-dels obj 10 \$4 del-water \$1 \$2 \$3 \$4 \;;
#X msg 325 126 \; pd-dels obj 10 \$4 del-water \$1 \$2 \$3 \$4 \;;
#N canvas 536 83 318 506 lorenz-creator2 0;
#X obj 96 413 list, f 16;
#X obj 96 435 list trim;
#X obj 205 169 int 10;
#X obj 261 169 + 25;
#X msg 232 122 10;
#X obj 8 11 inlet;
#X obj 17 214 lorenz;
#X obj 85 175 loadbang;
#X msg 85 197 print 1000;
#X msg 27 185 reset;
#X obj 33 244 unpack f f f f;
#X obj 33 330 pack f f f f;
#X obj 33 354 route 0;
#X msg 17 155 print \$1;
#X obj 20 77 until;
#X obj 10 34 t f f b, f 33;
#X msg 102 87 set \$1;
#X msg 27 132 1280;
#X obj 20 99 t b b;
#X obj 96 457 outlet;
#X obj 60 278 + 25;
#X obj 90 278 + 25;
#X obj 102 61 * 10;
#X obj 124 301 / 20;
#X obj 60 300 / 25;
#X obj 90 300 / 25;
#X connect 0 0 1 0;
#X connect 1 0 19 0;
#X connect 2 0 3 0;
#X connect 2 0 0 1;
#X connect 3 0 2 1;
#X connect 4 0 2 1;
#X connect 5 0 15 0;
#X connect 6 1 10 0;
#X connect 7 0 8 0;
#X connect 8 0 6 0;
#X connect 9 0 6 0;
#X connect 10 0 11 0;
#X connect 10 1 20 0;
#X connect 10 2 21 0;
#X connect 10 3 23 0;
#X connect 11 0 12 0;
#X connect 12 0 0 0;
#X connect 13 0 6 0;
#X connect 14 0 18 0;
#X connect 15 0 14 0;
#X connect 15 1 22 0;
#X connect 15 2 4 0;
#X connect 16 0 17 0;
#X connect 17 0 13 0;
#X connect 18 0 17 0;
#X connect 18 1 2 0;
#X connect 20 0 24 0;
#X connect 21 0 25 0;
#X connect 22 0 16 0;
#X connect 23 0 11 3;
#X connect 24 0 11 1;
#X connect 25 0 11 2;
#X restore 321 71 pd lorenz-creator2;
#X msg 442 81 \; pd-dels obj 10 \$4 del-water \$1 \$2 \$3 \$4 \;;
#N canvas 536 83 318 506 lorenz-creator3 0;
#X obj 96 413 list, f 16;
#X obj 96 435 list trim;
#X obj 205 169 int 10;
#X obj 261 169 + 25;
#X msg 232 122 10;
#X obj 8 11 inlet;
#X obj 17 214 lorenz;
#X obj 85 175 loadbang;
#X msg 27 185 reset;
#X obj 33 244 unpack f f f f;
#X obj 32 369 pack f f f f;
#X obj 32 393 route 0;
#X msg 17 155 print \$1;
#X obj 20 77 until;
#X obj 10 34 t f f b, f 33;
#X msg 102 87 set \$1;
#X msg 27 132 10;
#X obj 20 99 t b b;
#X obj 96 457 outlet;
#X obj 102 61 * 10;
#X msg 164 114 inith 0.015;
#X msg 85 197 print 1000 \, inith 0.015;
#X obj 46 287 fd_norm;
#X obj 102 291 fd_norm;
#X connect 0 0 1 0;
#X connect 1 0 18 0;
#X connect 2 0 3 0;
#X connect 2 0 0 1;
#X connect 3 0 2 1;
#X connect 4 0 2 1;
#X connect 5 0 14 0;
#X connect 6 1 9 0;
#X connect 7 0 21 0;
#X connect 8 0 6 0;
#X connect 9 0 10 0;
#X connect 9 1 22 0;
#X connect 9 2 23 0;
#X connect 9 3 10 3;
#X connect 10 0 11 0;
#X connect 11 0 0 0;
#X connect 12 0 6 0;
#X connect 13 0 17 0;
#X connect 14 0 13 0;
#X connect 14 1 19 0;
#X connect 14 2 4 0;
#X connect 15 0 16 0;
#X connect 16 0 12 0;
#X connect 17 0 16 0;
#X connect 17 1 2 0;
#X connect 19 0 15 0;
#X connect 21 0 6 0;
#X connect 22 0 10 1;
#X connect 23 0 10 2;
#X restore 438 26 pd lorenz-creator3;
#X connect 0 0 8 0;
#X connect 3 0 4 0;
#X connect 6 0 5 0;
#X connect 8 0 7 0;
#X restore 207 98 pd del-create;
#X obj 2 177 envtables;
#N canvas 0 22 450 300 failed-tabread-envshape 0;
#X obj 81 104 r envtype;
#X obj 25 36 +~ 1;
#X obj 25 158 env~;
#X floatatom 25 180 5 0 0 0 - - -;
#X obj 25 102 +~ 1;
#X obj 25 80 *~ 255;
#X obj 25 136 tabread~;
#X obj 185 129 snapshot~;
#X obj 185 151 print;
#X msg 198 99 bang;
#X obj 25 58 *~ 0.5;
#X connect 0 0 6 0;
#X connect 1 0 10 0;
#X connect 2 0 3 0;
#X connect 4 0 6 0;
#X connect 5 0 4 0;
#X connect 6 0 2 0;
#X connect 7 0 8 0;
#X connect 9 0 7 0;
#X connect 10 0 5 0;
#X restore 2 152 pd failed-tabread-envshape;
#X obj 34 68 nbx 5 14 -1000 1000 0 0 del-amount-set del-amount-preset
amount 0 -8 0 10 -262144 -1 -1 100 256;
#X obj 34 98 nbx 5 14 0 1000 0 0 dist-adjust-set dist-adjust-preset
distance 0 -8 0 10 -262144 -1 -1 2 256;
#X text 90 68 -1000<=A<=1000;
#X text 90 95 0<D<1000;
#X obj 7 98 bng 15 250 50 0 dist-adjust-go empty empty 17 7 0 10 -262144
-1 -1;
#X obj 7 68 bng 15 250 50 0 del-amount-go empty empty 17 7 0 10 -262144
-1 -1;
#X obj 34 37 nbx 5 14 1 1000 0 0 del-quantity-set del-quantity-preset
quantity 0 -8 0 10 -262144 -1 -1 1 256;
#X obj 7 37 bng 15 250 50 0 del-quantity-go empty empty 17 7 0 10 -262144
-1 -1;
#X text 90 37 1<DELS<=256($$);
#N canvas 0 23 197 212 quantity 0;
#X obj 56 37 r del-quantity-set;
#X msg 56 59 set \$1;
#X obj 25 14 r del-quantity-go;
#X msg 25 84 1;
#X msg 25 107 \; pd-dels clear \; del-create \$1 \; pd-dels vis 1 \;
loadbanger bang \;;
#X obj 25 36 t b;
#X connect 0 0 1 0;
#X connect 1 0 3 0;
#X connect 2 0 5 0;
#X connect 3 0 4 0;
#X connect 5 0 3 0;
#X restore 205 31 pd quantity;
#N canvas 0 22 175 133 dist-adjust 0;
#X msg 12 74 \; dist-adjust \$1 \;;
#X obj 12 44 / 10000;
#X obj 12 20 r dist-adjust-set;
#X connect 1 0 0 0;
#X connect 2 0 1 0;
#X restore 206 52 pd dist-adjust;
#N canvas 0 22 166 155 del-amount 0;
#X msg 19 84 \; del-amount \$1 \;;
#X obj 19 50 / 1000;
#X obj 19 23 r del-amount-set;
#X connect 1 0 0 0;
#X connect 2 0 1 0;
#X restore 207 76 pd del-amount;
#N canvas 0 22 195 226 loadbang 0;
#X msg 30 57 64;
#X obj 52 30 loadbang;
#X msg 20 78 \; pd-dels clear \; del-create \$1 \; pd-dels vis 1 \;
loadbanger bang \; del-amount-preset 100 \; del-amount-go bang \; dist-adjust-preset
2 \; dist-adjust-go bang \;;
#X obj 20 8 inlet;
#X connect 0 0 2 0;
#X connect 1 0 0 0;
#X connect 3 0 0 0;
#X restore 206 8 pd loadbang;
#X obj 130 120 bng 15 250 50 0 killdels empty killdels 17 7 0 10 -262144
-1 -1;
#X obj 9 2 bng 10 250 50 0 empty empty empty 17 7 0 10 -262144 -1 -1
;
#X obj 116 5 tgl 15 0 empty empty see-dels 17 7 0 10 -262144 -1 -1
1 1;
#X msg 210 181 \; pd-dels vis \$1 \;;
#N canvas 0 22 450 300 killdels 0;
#X obj 112 29 r killdels;
#X msg 111 53 \; pd-dels clear \;;
#X connect 0 0 1 0;
#X restore 257 122 pd killdels;
#X connect 18 0 16 0;
#X connect 19 0 20 0;
#X coords 0 1 100 -1 200 140 1 0 0;
#X restore 17 153 graph;
#X obj 50 443 r~ dac-l-out;
#X obj 150 446 r~ dac-r-out;
#X obj 65 674 dac~;
#N canvas 589 231 450 300 readit 0;
#X msg 40 14 open recs/en-la-selva.wav \, 1;
#X obj 40 36 readsf~ 2;
#X obj 116 198 dac~;
#X msg 124 50 0;
#X obj 61 67 fd_vu;
#X connect 0 0 1 0;
#X connect 1 0 4 0;
#X connect 1 1 4 1;
#X connect 3 0 1 0;
#X connect 4 0 2 0;
#X connect 4 1 2 1;
#X restore 123 673 pd readit;
#X obj 38 563 fd_write2;
#X obj 51 465 fd_vu;
#X connect 3 0 8 0;
#X connect 4 0 8 1;
#X connect 7 0 5 0;
#X connect 7 1 5 1;
#X connect 8 0 7 0;
#X connect 8 1 7 1;
