#N canvas 530 50 450 300 12;
#X declare -path ./lib -path ../rec -path ../txt;
#X declare -lib fd_lib;
#N canvas 0 20 450 300 declare 0;
#X obj 20 20 declare -path ./lib -path ../rec -path ../txt;
#X obj 19 52 declare -lib fd_lib;
#X restore 20 20 pd declare;
#X text 200 20 "berelay";
#N canvas 0 22 450 300 samples 0;
#X obj 22 27 loadbang;
#X obj 24 104 soundfiler;
#X obj 206 114 array define bere_delay_L;
#X obj 209 138 array define bere_delay_R;
#X obj 214 163 array define bere_clean;
#X msg 22 51 read -resize ../rec/bere_guitarra_L.wav bere_delay_L \,
read -resize ../rec/bere_guitarra_R.wav bere_delay_R \, read -resize
../rec/bere_clean.wav bere_clean;
#X connect 0 0 5 0;
#X connect 5 0 1 0;
#X restore 14 48 pd samples;
#N canvas 557 194 839 676 read_tables 0;
#X obj 165 410 metro 100;
#X obj 165 434 snapshot~;
#X obj 165 386 loadbang;
#X obj 500 288 +;
#X obj 531 287 f;
#X obj 469 266 t f f;
#X obj 500 313 t f b;
#X obj 533 342 f;
#X obj 500 342 -;
#X obj 482 369 -;
#X obj 90 359 -~ 0.5;
#X obj 482 419 + 0.5;
#X obj 538 143 samplerate~;
#X obj 503 143 /;
#X obj 469 240 +;
#X obj 482 393 / 10000;
#X obj 91 390 *~ 10000;
#X obj 427 181 * 10000;
#X text 565 343 new onset minus old onset;
#X obj 92 289 t a a;
#X msg 550 203 0;
#X obj 546 236 t f f;
#X obj 292 471 t f f;
#X obj 66 585 throw~ dacout-1;
#X obj 226 585 throw~ dacout-2;
#X obj 90 475 tabread4~ bere_delay_L;
#X obj 138 508 tabread4~ bere_delay_R;
#X floatatom 510 176 0 0 0 0 - - -;
#X floatatom 502 461 5 0 0 0 - - -;
#X obj 107 159 / 10000;
#X obj 503 116 t f b b;
#X obj 91 326 phasor~;
#X floatatom 427 205 5 0 0 0 - - -;
#X floatatom 106 110 5 0 0 0 - - -;
#X obj 106 133 * 44100;
#X obj 672 35 tgl 15 0 empty empty empty 17 7 0 10 -262144 -1 -1 0
1;
#X obj 672 55 switch~;
#X connect 0 0 1 0;
#X connect 1 0 14 0;
#X connect 2 0 0 0;
#X connect 3 0 4 0;
#X connect 3 0 6 0;
#X connect 3 0 22 0;
#X connect 4 0 3 1;
#X connect 5 0 9 0;
#X connect 5 1 3 0;
#X connect 6 0 7 1;
#X connect 6 0 8 0;
#X connect 6 1 7 0;
#X connect 7 0 8 1;
#X connect 8 0 9 1;
#X connect 9 0 15 0;
#X connect 10 0 16 0;
#X connect 11 0 28 0;
#X connect 11 0 31 1;
#X connect 12 0 13 1;
#X connect 13 0 17 0;
#X connect 13 0 27 0;
#X connect 14 0 5 0;
#X connect 15 0 11 0;
#X connect 16 0 1 0;
#X connect 16 0 25 0;
#X connect 16 0 26 0;
#X connect 17 0 14 1;
#X connect 17 0 32 0;
#X connect 19 0 31 0;
#X connect 19 1 30 0;
#X connect 20 0 21 0;
#X connect 21 0 5 0;
#X connect 21 1 7 1;
#X connect 21 1 3 1;
#X connect 22 0 25 1;
#X connect 22 1 26 1;
#X connect 25 0 23 0;
#X connect 26 0 24 0;
#X connect 29 0 19 0;
#X connect 30 0 13 0;
#X connect 30 1 12 0;
#X connect 30 2 20 0;
#X connect 31 0 10 0;
#X connect 33 0 34 0;
#X connect 34 0 29 0;
#X connect 35 0 36 0;
#X restore 29 106 pd read_tables;
#N canvas 1408 58 450 300 vol 1;
#X obj 41 52 vsl 15 128 0 127 0 0 empty empty empty 0 -9 0 10 -262144
-1 -1 0 1;
#X obj 41 188 s vol;
#X obj 79 57 vu 15 120 empty empty -1 -8 0 10 -66577 -1 1 0;
#X obj 48 17 r vu;
#X obj 330 52 vsl 15 128 0 127 0 0 empty empty empty 0 -9 0 10 -262144
-1 -1 0 1;
#X obj 330 188 s sub;
#X obj 361 53 vu 15 120 empty empty -1 -8 0 10 -66577 -1 1 0;
#X obj 330 13 r sub-vu;
#X obj 233 51 vsl 15 128 0 127 0 0 empty empty empty 0 -9 0 10 -262144
-1 -1 0 1;
#X obj 264 52 vu 15 120 empty empty -1 -8 0 10 -66577 -1 1 0;
#X obj 233 12 r vu-back;
#X obj 233 187 s vol-b;
#X obj 129 50 vsl 15 128 0 127 0 0 empty empty empty 0 -9 0 10 -262144
-1 -1 0 1;
#X obj 160 51 vu 15 120 empty empty -1 -8 0 10 -66577 -1 1 0;
#X obj 129 11 r vu-3;
#X obj 129 186 s vol-3;
#X connect 0 0 1 0;
#X connect 3 0 2 0;
#X connect 4 0 5 0;
#X connect 7 0 6 0;
#X connect 8 0 11 0;
#X connect 10 0 9 0;
#X connect 12 0 15 0;
#X connect 14 0 13 0;
#X restore 16 77 pd vol;
#N canvas 211 47 650 479 dac 0;
#X obj 63 74 env~;
#X obj 63 98 - 100;
#X obj 63 122 s vu;
#X obj 473 252 env~;
#X obj 473 276 - 100;
#X obj 473 302 s sub-vu;
#X obj 473 179 lop~ 150;
#X obj 473 203 hip~ 25;
#X obj 473 227 fd_dacout 4 sub;
#X obj 341 54 env~;
#X obj 341 78 - 100;
#X obj 342 101 s vu-3;
#X obj 61 314 env~;
#X obj 61 338 - 100;
#X obj 61 362 s vu-back;
#X obj 63 22 catch~ front;
#X obj 61 265 catch~ back;
#X obj 63 46 clone -s 1 fd_dacout_rec 2 vol;
#X obj 341 28 fd_dacout_rec 3 vol-3;
#X obj 61 290 clone -s 5 fd_dacout_rec 2 vol-b;
#X connect 0 0 1 0;
#X connect 1 0 2 0;
#X connect 3 0 4 0;
#X connect 4 0 5 0;
#X connect 6 0 7 0;
#X connect 7 0 8 0;
#X connect 8 0 3 0;
#X connect 9 0 10 0;
#X connect 10 0 11 0;
#X connect 12 0 13 0;
#X connect 13 0 14 0;
#X connect 15 0 17 0;
#X connect 16 0 19 0;
#X connect 17 0 0 0;
#X connect 17 0 6 0;
#X connect 18 0 6 0;
#X connect 18 0 9 0;
#X connect 19 0 6 0;
#X connect 19 0 12 0;
#X restore 73 77 pd dac;
#N canvas 595 463 936 357 tabplay 0;
#X obj 44 173 tabplay~ bere_delay_L;
#X obj 227 179 tabplay~ bere_delay_R;
#X msg 52 18 bang;
#X msg 102 20 stop;
#X obj 432 173 tabplay~ bere_clean;
#X obj 52 126 t a a a;
#X obj 432 197 s~ clean;
#X obj 227 203 s~ del-R;
#X obj 44 197 s~ del-L;
#X obj 631 209 s end-reached;
#X obj 191 34 r end-reached;
#X obj 191 58 spigot 1;
#X obj 335 36 r loop;
#X connect 0 0 8 0;
#X connect 1 0 7 0;
#X connect 2 0 5 0;
#X connect 3 0 5 0;
#X connect 4 0 6 0;
#X connect 4 1 9 0;
#X connect 5 0 0 0;
#X connect 5 1 1 0;
#X connect 5 2 4 0;
#X connect 10 0 11 0;
#X connect 11 0 5 0;
#X connect 12 0 11 1;
#X restore 24 156 pd tabplay;
#N canvas 408 203 983 855 delays 0;
#N canvas 1499 67 304 694 dels 0;
#X obj 10 10 del-water 0.161035 0.232462 13.5463 10;
#X obj 10 35 del-water 0.178119 0.258495 13.5396 35;
#X obj 10 60 del-water 0.197259 0.287285 13.6562 60;
#X obj 10 85 del-water 0.218636 0.318861 13.9201 85;
#X obj 10 110 del-water 0.242407 0.353121 14.36 110;
#X obj 10 135 del-water 0.268691 0.38976 15.0093 135;
#X obj 10 160 del-water 0.297532 0.428183 15.9061 160;
#X obj 10 185 del-water 0.328863 0.467398 17.0912 185;
#X obj 10 210 del-water 0.362452 0.505887 18.605 210;
#X obj 10 235 del-water 0.39783 0.541488 20.4821 235;
#X obj 10 260 del-water 0.434217 0.571298 22.7425 260;
#X obj 10 285 del-water 0.470435 0.591683 25.3792 285;
#X obj 10 310 del-water 0.504836 0.598445 28.3433 310;
#X obj 10 335 del-water 0.535277 0.58727 31.5286 335;
#X obj 10 360 del-water 0.559169 0.554505 34.7615 360;
#X obj 10 385 del-water 0.573665 0.498236 37.8037 385;
#X obj 10 410 del-water 0.576003 0.419433 40.3777 410;
#X obj 10 435 del-water 0.564012 0.322717 42.2164 435;
#X obj 10 460 del-water 0.536661 0.216181 43.1299 460;
#X obj 10 485 del-water 0.494513 0.109957 43.0633 485;
#X obj 10 510 del-water 0.439843 0.0138326 42.1181 510;
#X obj 10 535 del-water 0.37632 -0.0651328 40.5204 535;
#X obj 10 560 del-water 0.308317 -0.123914 38.5491 560;
#X obj 10 585 del-water 0.240087 -0.163306 36.461 585;
#X obj 10 610 del-water 0.175103 -0.18662 34.442 610;
#X obj 10 635 del-water 0.115731 -0.198128 32.5972 635;
#X obj 10 660 del-water 0.0632225 -0.201904 30.9655 660;
#X obj 10 685 del-water 0.0179207 -0.201253 29.5444 685;
#X obj 10 710 del-water -0.0204703 -0.198585 28.3111 710;
#X obj 10 735 del-water -0.0526294 -0.195526 27.2367 735;
#X obj 10 760 del-water -0.0794219 -0.193102 26.2944 760;
#X obj 10 785 del-water -0.101766 -0.191924 25.4618 785;
#X obj 10 810 del-water -0.120549 -0.192321 24.7226 810;
#X obj 10 835 del-water -0.136585 -0.194447 24.0651 835;
#X obj 10 860 del-water -0.150592 -0.198347 23.4822 860;
#X obj 10 885 del-water -0.163191 -0.204 22.9699 885;
#X obj 10 910 del-water -0.174903 -0.211351 22.5271 910;
#X obj 10 935 del-water -0.186162 -0.220321 22.1545 935;
#X obj 10 960 del-water -0.197323 -0.230818 21.8546 960;
#X obj 10 985 del-water -0.208673 -0.242736 21.6316 985;
#X obj 10 1010 del-water -0.220434 -0.255949 21.4904 1010;
#X obj 10 1035 del-water -0.232775 -0.270309 21.4374 1035;
#X obj 10 1060 del-water -0.245812 -0.285629 21.4794 1060;
#X obj 10 1085 del-water -0.259612 -0.301673 21.624 1085;
#X obj 10 1110 del-water -0.274188 -0.318142 21.8787 1110;
#X obj 10 1135 del-water -0.289499 -0.334657 22.2506 1135;
#X obj 10 1160 del-water -0.305444 -0.350747 22.7456 1160;
#X obj 10 1185 del-water -0.321851 -0.365841 23.3674 1185;
#X obj 10 1210 del-water -0.338475 -0.379264 24.116 1210;
#X obj 10 1235 del-water -0.354986 -0.390249 24.9866 1235;
#X obj 10 1260 del-water -0.37097 -0.397962 25.9676 1260;
#X obj 10 1285 del-water -0.385924 -0.401555 27.0394 1285;
#X obj 10 1310 del-water -0.399272 -0.400233 28.1733 1310;
#X obj 10 1335 del-water -0.410384 -0.393352 29.3309 1335;
#X obj 10 1360 del-water -0.418609 -0.380524 30.4655 1360;
#X obj 10 1385 del-water -0.423324 -0.361727 31.5241 1385;
#X obj 10 1410 del-water -0.423997 -0.33738 32.4522 1410;
#X obj 10 1435 del-water -0.420249 -0.308378 33.1992 1435;
#X obj 10 1460 del-water -0.411919 -0.27604 33.7239 1460;
#X obj 10 1485 del-water -0.399102 -0.241996 34.0005 1485;
#X obj 10 1510 del-water -0.382167 -0.207992 34.0212 1510;
#X obj 10 1535 del-water -0.361741 -0.175688 33.7967 1535;
#X obj 10 1560 del-water -0.338647 -0.146457 33.3534 1560;
#X obj 10 1585 del-water -0.313832 -0.121267 32.7283 1585;
#X obj 10 1610 del-water -0.28827 -0.100628 31.9633 1610;
#X obj 10 1635 del-water -0.262881 -0.0846279 31.0995 1635;
#X obj 10 1660 del-water -0.238463 -0.0730245 30.1735 1660;
#X obj 10 1685 del-water -0.215648 -0.0653555 29.2155 1685;
#X obj 10 1710 del-water -0.194895 -0.0610507 28.2484 1710;
#X obj 10 1735 del-water -0.176491 -0.0595209 27.2886 1735;
#X obj 10 1760 del-water -0.160577 -0.0602206 26.3472 1760;
#X obj 10 1785 del-water -0.147174 -0.0626834 25.4316 1785;
#X obj 10 1810 del-water -0.136218 -0.0665374 24.5462 1810;
#X obj 10 1835 del-water -0.127589 -0.0715063 23.6939 1835;
#X obj 10 1860 del-water -0.121136 -0.0774019 22.8766 1860;
#X obj 10 1885 del-water -0.116697 -0.0841123 22.0956 1885;
#X obj 10 1910 del-water -0.114114 -0.0915896 21.3521 1910;
#X obj 10 1935 del-water -0.113245 -0.0998374 20.6474 1935;
#X obj 10 1960 del-water -0.11397 -0.1089 19.9831 1960;
#X obj 10 1985 del-water -0.116194 -0.118855 19.3612 1985;
#X restore 42 47 pd dels;
#X msg 36 84 \; pd-dels clear \;;
#X obj 583 198 *~;
#X obj 215 778 delwrite~ line1 10000;
#X obj 211 628 *~;
#X obj 271 682 r~ clean;
#X obj 128 125 vsl 15 128 0 127 0 0 empty empty empty 0 -9 0 10 -262144
-1 -1 0 1;
#X obj 126 264 dbtorms;
#X msg 126 290 all \$1;
#X obj 585 233 throw~ dacout-3;
#X obj 538 529 line~;
#X msg 539 508 \$1 10;
#X obj 542 308 vsl 15 128 0 127 0 0 empty empty empty 0 -9 0 10 -262144
-1 -1 0 1;
#X obj 106 363 clone -s 1 _catchdel 5 L;
#X obj 310 353 clone -s 1 _catchdel 5 R;
#N canvas 0 22 450 576 del-create 0;
#X obj 43 27 r del-create;
#X msg 85 525 \; pd-dels obj 10 \$4 del-water \$1 \$2 \$3 \$4 \;;
#X obj 84 500 list;
#X obj 168 270 int 10;
#X obj 218 270 + 25;
#X msg 201 244 10;
#X obj 85 257 lorenz;
#X obj 42 162 until;
#X obj 42 184 t b b;
#X obj 170 136 until;
#X obj 76 340 unpack f f f;
#X obj 73 451 pack f f f;
#X obj 79 383 fd_norm;
#X obj 141 383 fd_norm;
#X msg 306 133 reset;
#X obj 78 313 spigot;
#X msg 196 205 1;
#X obj 172 88 t b b b b;
#X msg 323 279 0;
#X msg 208 134 inith 0.015;
#X msg 170 112 5000;
#X obj 44 61 t f b b b;
#X connect 0 0 21 0;
#X connect 2 0 1 0;
#X connect 3 0 4 0;
#X connect 3 0 2 1;
#X connect 4 0 3 1;
#X connect 5 0 3 1;
#X connect 6 0 15 0;
#X connect 7 0 8 0;
#X connect 8 0 6 0;
#X connect 8 1 3 0;
#X connect 9 0 6 0;
#X connect 10 0 12 0;
#X connect 10 1 13 0;
#X connect 10 2 11 2;
#X connect 11 0 2 0;
#X connect 12 0 11 0;
#X connect 13 0 11 1;
#X connect 14 0 6 0;
#X connect 15 0 10 0;
#X connect 16 0 15 1;
#X connect 17 0 20 0;
#X connect 17 1 19 0;
#X connect 17 2 14 0;
#X connect 17 3 18 0;
#X connect 18 0 15 1;
#X connect 19 0 6 0;
#X connect 20 0 9 0;
#X connect 21 0 7 0;
#X connect 21 1 5 0;
#X connect 21 2 16 0;
#X connect 21 3 17 0;
#X restore 44 23 pd del-create;
#X obj 542 468 clip 0 1;
#X obj 521 205 line~;
#X msg 521 178 \$1 10;
#X obj 518 10 vsl 15 128 0 127 0 0 empty empty empty 0 -9 0 10 -262144
-1 -1 0 1;
#X obj 518 146 dbtorms;
#X obj 325 226 *~;
#X obj 810 441 line~;
#X msg 810 414 \$1 10;
#X obj 890 243 vsl 15 128 0 127 0 0 empty empty empty 0 -9 0 10 -262144
-1 -1 0 1;
#X obj 807 382 dbtorms;
#X obj 754 465 *~;
#X obj 219 146 r~ clean;
#X obj 582 123 r~ clean;
#X obj 98 443 lop~ 20000;
#X obj 312 438 lop~ 20000;
#X obj 389 389 hsl 128 15 0 127 0 0 empty empty empty -2 -8 0 10 -262144
-1 -1 0 1;
#X obj 386 409 mtof;
#X obj 140 391 hsl 128 15 0 127 0 0 empty empty empty -2 -8 0 10 -262144
-1 -1 0 1;
#X obj 137 411 mtof;
#X obj 98 517 hip~ 300;
#X obj 317 509 hip~ 300;
#X obj 392 465 hsl 128 15 0 127 0 0 empty empty empty -2 -8 0 10 -262144
-1 -1 0 1;
#X obj 389 485 mtof;
#X obj 142 475 hsl 128 15 0 127 0 0 empty empty empty -2 -8 0 10 -262144
-1 -1 0 1;
#X obj 139 495 mtof;
#X obj 116 326 t a a;
#X obj 542 444 / 128;
#X msg 614 576 \; clear-dels clear;
#X obj 301 716 r clear-dels;
#X floatatom 202 278 5 0 0 0 - - -;
#X obj 368 103 rev3~ 100 80 3000 25;
#X obj 749 113 delwrite~ back-del 1000;
#X obj 321 264 throw~ dacout-1;
#X obj 448 227 *~;
#X obj 436 267 throw~ dacout-2;
#X obj 753 85 r~ clean;
#X obj 634 350 rev3~ 100 80 4000 25;
#X obj 659 468 *~;
#X obj 656 104 *~ 0.5;
#X obj 656 128 +~ 0.5;
#X floatatom 701 168 5 0 0 0 - - -;
#X floatatom 659 54 5 0 0 0 - - -;
#X obj 656 80 osc~ 0.25;
#X obj 628 163 *~ 0.3;
#X obj 765 528 throw~ dacout-6;
#X obj 646 532 throw~ dacout-5;
#X obj 738 390 *~ 0.1;
#X obj 712 300 delread4~ back-del 32;
#X obj 750 199 *~ 0.5;
#X obj 750 223 +~ 0.5;
#X floatatom 754 147 5 0 0 0 - - -;
#X floatatom 826 216 5 0 0 0 - - -;
#X floatatom 826 261 5 0 0 0 - - -;
#X obj 750 247 *~ 3;
#X obj 731 273 +~ 50;
#X obj 750 175 osc~ 0.8;
#X msg 163 22 \; pd-dels clear \; del-create 80 \; pd-del-water.pd
loadbang \; del-amount 0.894 \; dist-adjust 0.17 \;;
#X connect 2 0 9 0;
#X connect 4 0 3 0;
#X connect 5 0 3 0;
#X connect 6 0 7 0;
#X connect 7 0 8 0;
#X connect 7 0 45 0;
#X connect 8 0 41 0;
#X connect 10 0 4 1;
#X connect 11 0 10 0;
#X connect 12 0 42 0;
#X connect 13 0 29 0;
#X connect 14 0 30 0;
#X connect 16 0 11 0;
#X connect 17 0 21 1;
#X connect 17 0 49 1;
#X connect 18 0 17 0;
#X connect 19 0 20 0;
#X connect 20 0 18 0;
#X connect 21 0 48 0;
#X connect 22 0 26 1;
#X connect 22 0 53 1;
#X connect 23 0 22 0;
#X connect 24 0 25 0;
#X connect 25 0 23 0;
#X connect 26 0 60 0;
#X connect 27 0 49 0;
#X connect 27 0 21 0;
#X connect 27 0 46 0;
#X connect 28 0 2 0;
#X connect 29 0 35 0;
#X connect 30 0 36 0;
#X connect 31 0 32 0;
#X connect 32 0 30 1;
#X connect 33 0 34 0;
#X connect 34 0 29 1;
#X connect 35 0 4 0;
#X connect 36 0 4 0;
#X connect 37 0 38 0;
#X connect 38 0 36 1;
#X connect 39 0 40 0;
#X connect 40 0 35 1;
#X connect 41 0 13 0;
#X connect 41 1 14 0;
#X connect 42 0 16 0;
#X connect 44 0 3 0;
#X connect 46 0 21 0;
#X connect 46 0 2 0;
#X connect 46 1 49 0;
#X connect 46 1 2 0;
#X connect 49 0 50 0;
#X connect 51 0 47 0;
#X connect 52 0 53 0;
#X connect 52 1 26 0;
#X connect 53 0 61 0;
#X connect 54 0 55 0;
#X connect 55 0 59 0;
#X connect 56 0 59 1;
#X connect 57 0 58 0;
#X connect 58 0 54 0;
#X connect 59 0 2 1;
#X connect 62 0 53 0;
#X connect 62 0 26 0;
#X connect 63 0 52 0;
#X connect 63 0 62 0;
#X connect 64 0 65 0;
#X connect 65 0 69 0;
#X connect 66 0 71 0;
#X connect 67 0 69 1;
#X connect 68 0 70 1;
#X connect 69 0 70 0;
#X connect 70 0 63 0;
#X connect 71 0 64 0;
#X restore 267 96 pd delays;
#X obj 278 28 fd_windows 0 2051;
#N canvas 0 22 450 300 rec 0;
#X obj 30 31 catch~ rec-1;
#X obj 55 59 catch~ rec-2;
#X obj 92 85 catch~ rec-3;
#X obj 120 114 catch~ rec-4;
#X obj 146 147 catch~ rec-5;
#X obj 168 175 catch~ rec-6;
#X obj 67 250 writesf~ 6;
#X obj 211 31 r rec;
#X connect 0 0 6 0;
#X connect 1 0 6 1;
#X connect 2 0 6 2;
#X connect 3 0 6 3;
#X connect 4 0 6 4;
#X connect 5 0 6 5;
#X connect 7 0 6 0;
#X restore 28 190 pd rec;
