#N canvas 269 0 1089 532 12;
#X obj 647 200 env~;
#X obj 647 224 - 101;
#X obj 728 310 env~;
#X obj 728 334 - 101;
#X obj 652 418 env~;
#X obj 652 442 - 101;
#X obj 728 358 s floor-vu;
#X obj 647 248 s sub-1-vu;
#X obj 652 466 s sub-2-vu;
#X obj 121 126 vsl 30 128 0 127 0 0 vol vol-set vol 0 -9 0 10 -262144
-1 -1 10000 1;
#X obj 159 126 vu 15 120 vu empty -1 -8 0 10 -66577 -1 1 0;
#X obj 121 273 nbx 5 14 -1e+37 1e+37 0 0 empty vol vol-dB 0 -8 0 10
-262144 -1 -1 100 256;
#X obj 212 126 vsl 15 128 0 127 0 0 sub-1 sub-1-set sub-1 0 -9 0 10
-262144 -1 -1 10000 1;
#X obj 241 126 vu 15 120 sub-1-vu empty -1 -8 0 10 -66577 -1 1 0;
#X obj 412 126 vsl 15 128 0 127 0 0 sub-2 sub-2-set sub-2 0 -9 0 10
-262144 -1 -1 10000 1;
#X obj 441 126 vu 15 120 sub-2-vu empty -1 -8 0 10 -66577 -1 1 0;
#X obj 313 126 vsl 30 128 0 127 0 0 floor floor-set floor 0 -9 0 10
-262144 -1 -1 10000 1;
#X obj 350 126 vu 15 120 floor-vu empty -1 -8 0 10 -66577 -1 1 0;
#X obj 212 273 nbx 5 14 -1e+37 1e+37 0 0 empty sub-1 sub-1-dB 0 -8
0 10 -262144 -1 -1 100 256;
#X obj 313 273 nbx 5 14 -1e+37 1e+37 0 0 empty floor floor-dB 0 -8
0 10 -262144 -1 -1 100 256;
#X obj 412 273 nbx 5 14 -1e+37 1e+37 0 0 empty sub-2 sub-2-dB 0 -8
0 10 -262144 -1 -1 100 256;
#X obj 557 85 env~;
#X obj 557 109 - 100;
#X obj 557 133 s vu;
#X obj 716 48 clone _dacout 64 vol 1e+17 rec;
#X obj 718 75 clone -s 64 _dacout 20 vol 1e+17 rec;
#X obj 721 107 clone -s 84 _dacout 20 vol 1e+17 rec;
#X obj 725 139 clone -s 104 _dacout 20 vol 1e+17 rec;
#X obj 728 286 clone -s 128 _dacout 10 floor 1e+17 rec;
#X obj 652 394 clone -s 138 _dacout 2 sub-2 1e+17 rec;
#X obj 200 343 loadbang;
#X obj 200 367 s loaded_dac-multi;
#X msg 955 22 vis 100 1;
#X msg 978 46 vis 100 1;
#X msg 934 175 vis 127 1;
#X obj 647 175 clone -s 124 _dacout 4 sub-1 1e+17 rec;
#X connect 0 0 1 0;
#X connect 1 0 7 0;
#X connect 2 0 3 0;
#X connect 3 0 6 0;
#X connect 4 0 5 0;
#X connect 5 0 8 0;
#X connect 21 0 22 0;
#X connect 22 0 23 0;
#X connect 24 0 21 0;
#X connect 24 0 35 0;
#X connect 25 0 21 0;
#X connect 25 0 35 0;
#X connect 26 0 21 0;
#X connect 26 0 35 0;
#X connect 27 0 21 0;
#X connect 27 0 29 0;
#X connect 28 0 2 0;
#X connect 28 0 29 0;
#X connect 29 0 4 0;
#X connect 30 0 31 0;
#X connect 32 0 24 1;
#X connect 34 0 35 1;
#X connect 35 0 0 0;
#X coords 0 -1 1 1 406 203 1 100 100;
