#N canvas 530 50 450 300 12;
#X declare -path ./lib -path ../rec -path ../txt -lib fd_lib -lib timbreID/timbreIDLib
;
#X text 330 16 "berelay";
#N canvas 0 22 450 300 input 0;
#X obj 224 226 s~ clean;
#X obj 224 199 catch~ input;
#N canvas 0 22 450 300 live 0;
#X obj 49 9 adc~ 1;
#X obj 49 227 *~;
#X obj 269 49 r live;
#X obj 49 123 *~;
#X obj 86 80 pack f 10;
#X obj 86 104 line~;
#X obj 86 33 r live-gain;
#X obj 269 73 _switch;
#X obj 315 165 switch~;
#X obj 49 251 throw~ input;
#X obj 196 176 env~;
#X obj 196 200 - 101;
#X obj 243 199 - 101;
#X obj 196 224 pack;
#X obj 196 248 s live-vu;
#X obj 86 57 dbtorms;
#X obj 243 175 env~ 8192;
#X connect 0 0 3 0;
#X connect 1 0 9 0;
#X connect 2 0 7 0;
#X connect 3 0 1 0;
#X connect 3 0 10 0;
#X connect 3 0 16 0;
#X connect 4 0 5 0;
#X connect 5 0 3 1;
#X connect 6 0 15 0;
#X connect 7 0 1 1;
#X connect 7 1 8 0;
#X connect 10 0 11 0;
#X connect 11 0 13 0;
#X connect 12 0 13 1;
#X connect 13 0 14 0;
#X connect 15 0 4 0;
#X connect 16 0 12 0;
#X restore 30 34 pd live;
#N canvas 546 396 409 543 playback 0;
#X obj 42 80 tabplay~ bere_clean;
#X obj 42 22 r bere_playback;
#X obj 197 81 s end-reached-set;
#X obj 42 393 *~;
#X obj 42 417 throw~ input;
#X obj 274 346 r playback;
#X obj 274 374 _switch;
#X obj 319 400 switch~;
#X obj 61 262 env~;
#X obj 61 286 - 101;
#X obj 108 285 - 101;
#X obj 61 310 pack;
#X obj 61 334 s playback-vu;
#X obj 76 108 r playback-gain;
#X obj 76 172 pack f 10;
#X obj 76 196 line~;
#X obj 42 216 *~;
#X obj 108 261 env~ 8192;
#X obj 76 140 dbtorms;
#X connect 0 0 16 0;
#X connect 0 1 2 0;
#X connect 1 0 0 0;
#X connect 3 0 4 0;
#X connect 5 0 6 0;
#X connect 6 0 3 1;
#X connect 6 1 7 0;
#X connect 8 0 9 0;
#X connect 9 0 11 0;
#X connect 10 0 11 1;
#X connect 11 0 12 0;
#X connect 13 0 18 0;
#X connect 14 0 15 0;
#X connect 15 0 16 1;
#X connect 16 0 3 0;
#X connect 16 0 8 0;
#X connect 16 0 17 0;
#X connect 17 0 10 0;
#X connect 18 0 14 0;
#X restore 31 57 pd playback;
#N canvas 654 127 720 513 live-playback-controls 0;
#X obj 48 49 r live;
#X obj 235 82 sel 1;
#X obj 48 73 sel 1;
#X obj 235 58 r playback;
#X obj 40 127 t b b;
#X obj 234 133 t b b;
#X msg 313 353 \; live-set 0 \; live-canvas-set color 10 0 2 \; playback-canvas-set
color 6 0 22;
#X msg 33 343 \; playback-set 0 \; playback-canvas-set color 10 0 2
\; live-canvas-set color 6 0 22;
#X msg 56 215 \; playback-vu -101 -101 \; playback-canvas-set color
10 0 2 \;;
#X msg 346 204 \; live-vu -101 -101 \; live-canvas-set color 10 0 2
\;;
#X connect 0 0 2 0;
#X connect 1 0 5 0;
#X connect 1 1 8 0;
#X connect 2 0 4 0;
#X connect 2 1 9 0;
#X connect 3 0 1 0;
#X connect 4 0 7 0;
#X connect 4 1 8 0;
#X connect 5 0 6 0;
#X connect 5 1 9 0;
#X restore 215 77 pd live-playback-controls;
#N canvas 0 22 450 300 loop-controls 0;
#X obj 133 115 spigot 1;
#X obj 186 92 r loop;
#X obj 133 67 r end-reached;
#X obj 133 139 s bere_playback;
#X connect 0 0 3 0;
#X connect 1 0 0 1;
#X connect 2 0 0 0;
#X restore 214 30 pd loop-controls;
#N canvas 0 22 450 300 playback-start-controls 0;
#X obj 37 28 r playback-start;
#X obj 37 52 s bere_playback;
#X obj 40 95 r playback-stop;
#X msg 40 119 stop;
#X obj 40 143 s bere_playback;
#X connect 0 0 1 0;
#X connect 2 0 3 0;
#X connect 3 0 4 0;
#X restore 214 54 pd playback-start-controls;
#X connect 1 0 0 0;
#X restore 14 70 pd input __________________;
#N canvas 146 190 450 512 init 0;
#X obj 21 62 loadbang;
#X obj 240 66 r init-playback;
#X obj 238 92 symbol;
#X obj 20 20 declare -path ./lib -path ../rec -path ../txt -lib fd_lib
-lib timbreID/timbreIDLib;
#X msg 238 118 \; vol-set 100 \; setup \$1 \; playback-set 1 \; open-file-set
bang \; playback-gain-set 60 \; berelays-set 1 \; berelay-vol-set 100
\; playback-start-set bang \; loop-set 0 \; quit 1 \;;
#X msg 20 140 fx \, input \, berelay;
#X obj 20 164 symbol;
#X msg 20 212 \; \$1 vis 1;
#X obj 20 188 makefilename pd-%s-controls;
#X msg 21 86 bang \; pd dsp 1 \; pd-dac vis 1 \;;
#X connect 0 0 9 0;
#X connect 1 0 2 0;
#X connect 2 0 4 0;
#X connect 5 0 6 0;
#X connect 6 0 8 0;
#X connect 8 0 7 0;
#X connect 9 0 5 0;
#X restore 14 19 pd init ___________________;
#N canvas 816 127 450 302 setup 0;
#N canvas 0 22 910 833 setup-guts 0;
#X obj 102 83 symbol;
#X obj 28 24 r setup;
#X obj 28 54 route float;
#X msg 28 131 \; pd-dac clear \, obj 10 10 _dac-\$1 \, vis 1 \, loadbang
\, editmode 0 \;, f 64;
#X obj 28 92 t f f;
#X obj 103 107 t a a;
#X obj 51 226 sel stereo stereo-rec perform cube;
#X msg 60 389 \; pd-berelay-bin clear \; make-rec clear \; pd-berelay-bin
obj 10 10 _berelays 1 0 32 1000 \; pd-berelay-bin obj 10 40 _berelays
2 32 32 1000 \; make-rec 32 1 0 1 \; make-rec 32 1 32 2 \; pd-berelay-bin
loadbang \; vol-set 100 \;;
#X msg 484 197 \; pd-berelay-bin clear \; pd-berelay-bin obj 10 10
_berelays 1 0 64 1000 \; pd-berelay-bin obj 10 40 _berelays 2 64 20
1000 \; pd-berelay-bin obj 10 70 _berelays 3 84 20 1000 \; pd-berelay-bin
obj 10 100 _berelays 4 104 20 1000 \; pd-berelay-bin obj 10 130 _berelays
5 124 4 1000 \; pd-berelay-bin obj 10 160 _berelays 6 128 10 1000 \;
pd-berelay-bin obj 10 190 _berelays 7 138 2 1000 \; make-rec clear
\; make-rec 64 1 0 1 \; make-rec 20 1 64 2 \; make-rec 20 1 84 3 \;
make-rec 20 1 104 4 \; make-rec 4 1 124 5 \; make-rec 10 1 128 6 \;
make-rec 2 1 138 7 \; pd-berelay-bin loadbang \; sub-1-set 100 \; floor-set
100 \; sub-2-set 100 \;;
#X obj 62 540 r loaded_dac-stereo;
#X obj 101 583 r vol-set;
#X obj 69 760 s vol-set;
#X obj 67 652 f 100;
#X obj 247 585 r vol-set;
#X obj 213 654 f 100;
#X obj 208 542 r loaded_dac-multi;
#X msg 366 542 \; pd-berelay-bin clear \; pd-berelay-bin obj 10 10
_berelays 1 0 12 1000 \; pd-berelay-bin obj 10 40 _berelays 2 12 12
1000 \; make-rec clear \; make-rec 12 1 0 1 \; make-rec 12 1 12 2 \;
make-rec 2 1 24 3 \; make-rec 2 1 26 4 \; pd-berelay-bin loadbang \;
;
#X obj 213 687 t f f;
#X obj 287 674 * 0.8;
#X msg 216 720 \; vol-set \$1 \; floor-set \$1 \;;
#X obj 218 615 bng 15 250 50 0 empty empty empty 17 7 0 10 -262144
-1 -1;
#X msg 331 744 \; sub-1-set \$1 \; sub-2-set \$1 \;;
#X connect 0 0 5 0;
#X connect 1 0 2 0;
#X connect 2 0 4 0;
#X connect 2 1 0 0;
#X connect 4 0 3 0;
#X connect 5 0 3 0;
#X connect 5 1 6 0;
#X connect 6 0 7 0;
#X connect 6 1 7 0;
#X connect 6 2 16 0;
#X connect 6 3 8 0;
#X connect 9 0 12 0;
#X connect 10 0 12 1;
#X connect 12 0 11 0;
#X connect 13 0 14 1;
#X connect 14 0 17 0;
#X connect 15 0 14 0;
#X connect 17 0 19 0;
#X connect 17 1 18 0;
#X connect 18 0 21 0;
#X connect 20 0 14 0;
#X restore 32 235 pd setup-guts;
#X msg 31 10 stereo;
#X obj 29 188 s setup;
#X msg 217 20 cube;
#X msg 251 98 6.1;
#X msg 231 51 perform;
#X msg 48 41 stereo-rec;
#X obj 309 128 r setup;
#X msg 265 227 cube;
#X msg 309 175 set \$1;
#X obj 309 151 symbol;
#X obj 215 159 loadbang;
#X obj 265 251 s setup;
#X connect 1 0 2 0;
#X connect 3 0 2 0;
#X connect 4 0 2 0;
#X connect 5 0 2 0;
#X connect 6 0 2 0;
#X connect 7 0 10 0;
#X connect 8 0 12 0;
#X connect 9 0 8 0;
#X connect 10 0 9 0;
#X connect 11 0 8 0;
#X restore 14 119 pd setup ______________;
#N canvas 530 379 440 304 controls 0;
#N canvas 530 373 450 300 berelay-controls 1;
#X obj 6 5 cnv 15 430 280 empty empty empty 20 12 0 14 -232576 -66577
0;
#X obj 22 12 tgl 15 0 berelays berelays-set berelays 17 7 0 10 -159808
-262144 -1 1 1;
#X obj 169 16 bng 15 250 50 0 randomize randomize-set random 17 7 0
10 -262144 -1 -1;
#X obj 228 16 bng 15 250 50 0 gaussian gaussian-set gaussian 17 7 0
10 -262144 -1 -1;
#X obj 298 21 hradio 10 1 0 7 open-berelays open-berelays-set open-berelays
0 -8 0 10 -262144 -1 -1 1;
#X obj 383 15 bng 15 250 50 0 clear_berelays clear_berelays-set clear
17 7 0 10 -4032 -1 -1;
#X obj 47 79 vu 15 120 berelay-vu empty -1 -8 0 10 -66577 -1 1 0;
#X obj 23 70 vsl 15 128 0 127 0 0 berelay-vol berelay-vol-set berelay-vol
0 -9 0 10 -262144 -1 -1 9500 1;
#X obj 23 220 nbx 5 14 -1e+37 1e+37 0 0 empty berelay-vol berelay-vol-dB
0 -8 0 10 -232576 -1 -1 95 256;
#X obj 150 55 hradio 15 1 0 11 berelay-presets berelay-presets-set
berelay-presets 0 -8 0 10 -262144 -1 -1 8;
#X obj 324 183 hsl 80 10 0 127 0 0 g_hipass g_hipass-set g_hipass -2
-8 0 10 -262144 -1 -1 0 1;
#X obj 324 207 hsl 80 10 0 127 0 0 g_lopass g_lopass-set g_lopass -2
-8 0 10 -262144 -1 -1 0 1;
#X obj 218 171 _bounds lopass;
#X obj 118 78 _bounds pre-del;
#X obj 219 78 _bounds fb-time;
#X obj 319 78 _bounds fb-amount;
#X obj 118 171 _bounds hipass;
#X obj 365 54 bng 15 250 50 0 store store-set store 17 7 0 10 -262144
-1 -1;
#X obj 116 16 bng 15 250 50 0 reinit reinit-bang chaos 17 7 0 10 -262144
-1 -1;
#X floatatom 120 51 0 0 0 0 - berelay-presets -;
#X restore 8 10 pd berelay-controls;
#N canvas 987 302 292 225 input-controls 1;
#X obj 10 10 cnv 15 140 200 playback-canvas playback-canvas-set playback
3 12 0 14 -225271 -1 0;
#X obj 18 135 bng 15 250 50 0 end-reached end-reached-set end 17 7
0 10 -232576 -1 -1;
#X obj 18 113 tgl 15 1 loop loop-set loop 17 7 0 10 -4032 -1 -1 0 1
;
#X obj 18 91 bng 15 250 50 0 playback-stop playback-stop-set stop 17
7 0 10 -257985 -1 -1;
#X obj 18 71 bng 15 250 50 0 playback-start playback-start-set start
17 7 0 10 -4034 -1 -1;
#X obj 157 10 cnv 15 120 200 live-canvas live-canvas-set live 3 12
0 14 -233017 -66577 0;
#X obj 187 61 vsl 15 128 0 127 0 0 live-gain live-gain-set gain 0 -9
0 10 -262144 -1 -1 0 1;
#X obj 211 70 vu 15 120 live-vu empty -1 -8 0 10 -66577 -1 1 0;
#X obj 200 14 tgl 15 0 live live-set live 17 7 0 10 -262144 -1 -1 0
1;
#X obj 80 13 tgl 15 0 playback playback-set playback 17 7 0 10 -262144
-1 -1 1 1;
#X obj 75 70 vsl 15 128 0 127 0 0 playback-gain playback-gain-set gain
0 -9 0 10 -262144 -1 -1 7100 1;
#X obj 99 79 vu 15 120 playback-vu empty -1 -8 0 10 -66577 -1 1 0;
#X obj 17 41 bng 15 250 50 0 open-file open-file-set open-file 17 7
0 10 -261682 -1 -1;
#X restore 8 32 pd input-controls;
#N canvas 986 551 295 285 fx-controls 1;
#X obj 8 9 cnv 15 138 130 empty clean-canvas clean 20 12 0 14 -225271
-1 0;
#X obj 13 37 hsl 128 15 0 127 0 0 clean-amount clean-amount-set clean-amount
10 8 0 10 -262144 -1 -1 9900 1;
#X obj 149 9 cnv 15 138 130 empty panner-canvas panner 20 12 0 14 -225271
-1 0;
#X obj 6 142 cnv 15 138 130 empty reverb-canvas reverb 20 12 0 14 -225271
-1 0;
#X obj 148 142 cnv 15 138 130 empty chorus-canvas chorus 20 12 0 14
-225271 -1 0;
#X obj 14 226 hsl 128 15 0 127 0 1 reverb-cutoff reverb-cutoff-set
reverb-cutoff 10 8 0 10 -262144 -1 -1 12200 1;
#X obj 14 188 hsl 128 15 0 127 0 1 reverb-volume reverb-volume-set
reverb-volume 10 8 0 10 -262144 -1 -1 8900 1;
#X obj 14 207 hsl 128 15 0 127 0 1 reverb-feedback reverb-feedback-set
reverb-feedback 10 8 0 10 -262144 -1 -1 12700 1;
#X obj 14 170 hsl 128 15 0 127 0 0 reverb-amount reverb-amount-set
reverb-amount 10 8 0 10 -262144 -1 -1 11500 1;
#X obj 153 188 hsl 128 15 0 127 0 1 chorus-time chorus-time-set chorus-time
10 8 0 10 -262144 -1 -1 1482 1;
#X obj 153 206 hsl 128 15 0 127 0 1 chorus-width chorus-width-set chorus-width
10 8 0 10 -262144 -1 -1 7300 1;
#X obj 153 224 hsl 128 15 0 127 0 1 chorus-speed chorus-speed-set chorus-speed
10 8 0 10 -262144 -1 -1 9900 1;
#X obj 153 170 hsl 128 15 0 127 0 0 chorus-amount chorus-amount-set
chorus-amount 10 8 0 10 -262144 -1 -1 10800 1;
#X obj 153 242 hsl 128 15 0 127 0 1 chorus-stereo chorus-stereo-set
chorus-stereo 10 8 0 10 -262144 -1 -1 3300 1;
#X obj 155 55 hsl 128 15 0 127 0 1 panner-speed panner-speed-set panner-speed
10 8 0 10 -262144 -1 -1 2200 1;
#X obj 155 37 hsl 128 15 0 127 0 0 panner-amount panner-amount-set
panner-amount 10 8 0 10 -262144 -1 -1 10800 1;
#X obj 14 244 hsl 128 15 0 127 0 1 reverb-cutoff-amt reverb-cutoff-amt-set
reverb-cutoff-amt 10 8 0 10 -262144 -1 -1 3900 1;
#X restore 9 55 pd fx-controls;
#X restore 14 95 pd controls _______;
#N canvas 0 22 450 300 stereo-rec______ 0;
#X obj 167 56 catch~ stereo-rec-1;
#X obj 222 82 catch~ stereo-rec-2;
#X obj 101 147 writesf~ 2;
#X obj 19 85 r stereo-rec;
#X connect 0 0 2 0;
#X connect 1 0 2 1;
#X connect 3 0 2 0;
#X restore 14 192 pd stereo-rec______;
#N canvas 529 377 450 299 berelays 0;
#X obj 237 19 text define -k cakewalks;
#A set 64 \; 20 \; 20 \; 20 \; 4 \; 10 \; 2 \;;
#N canvas 0 22 450 300 open-berelays 0;
#X msg 50 81 \; berelays-\$1 vis 1;
#X obj 49 27 r open-berelays;
#X obj 49 51 + 1;
#X obj 104 155 r make-rec;
#X obj 104 179 list split 3;
#X msg 162 205 \; open-berelays-set number \$1;
#X connect 1 0 2 0;
#X connect 2 0 0 0;
#X connect 3 0 4 0;
#X connect 4 1 5 0;
#X restore 26 42 pd open-berelays;
#N canvas 0 22 450 300 berelay-sum 0;
#X obj 73 64 env~;
#X obj 73 88 - 101;
#X obj 73 41 catch~ berelay-sum;
#X obj 73 112 s berelay-vu;
#X connect 0 0 1 0;
#X connect 1 0 3 0;
#X connect 2 0 0 0;
#X restore 26 67 pd berelay-sum;
#N canvas 1002 117 806 725 berelay-presets 0;
#N canvas 0 22 450 278 (subpatch) 0;
#X array presets 10 float 3;
#A 0 0 0.0408163 0.0204082 0.102041 1 1 0.0816327 0.326531 0.510204
0.918367;
#X coords 0 1 10 0 229 231 1 0 0;
#X restore 38 29 graph;
#X obj 374 129 array get presets;
#X obj 43 272 r berelay-presets;
#X obj 311 35 text define -k berelay-presets-text;
#A set 0.12 0.28 0.75 1 0.83 0.99 0.1 0.2 0.8 1 \; 0.930728 0.982676
0.125548 0.974023 0.333338 0.385285 0.1 0.2 0.8 1 \; 0.359307 0.982676
0.94372 0.974023 0.891775 0.969697 0.1 0.2 0.8 1 \; 0.974026 0.991342
0.974026 0.991342 0.0129873 0.0822517 0.1 0.2 0.8 1 \; 0.974026 0.991342
0.974026 0.991342 0.978355 0.995671 0.1 0.2 0.8 1 \; 0.00865829 0.0303031
0.00865811 0.0346321 0.978355 0.995671 0.1 0.2 0.8 1 \; 0.00865829
0.0303031 0.835498 0.857143 0.142864 0.995671 0.1 0.2 0.8 1 \; 0.463204
0.506494 0.835498 0.857143 0.160178 0.324678 0.1 0.2 0.8 1 \; 0 0.0408163
0.0204082 0.102041 1 1 0.0816327 0.326531 0.510204 0.918367 \; 0.244898
0.326531 0.142857 0.285714 1 1 0.44898 0.55102 0.755102 0.918367 \;
0 0 0.612245 0.938776 1 1 0.673469 0.77551 1 1 \;;
#X obj 373 155 t a b;
#X obj 372 211 text set berelay-presets-text;
#X msg 436 168 1.11111e+17;
#X obj 47 303 text get berelay-presets-text;
#X msg 186 269 1;
#X msg 46 561 lopass \, hipass \, pre-del \, fb-time \, fb-amount;
#X obj 46 585 symbol;
#X obj 46 609 makefilename %s-go-set;
#X obj 46 633 t b a;
#X obj 46 657 s;
#X obj 48 336 t b a;
#X msg 83 374 \; pre-del-preset-min-set \$1 \; pre-del-preset-max-set
\$2 \; fb-time-preset-min-set \$3 \; fb-time-preset-max-set \$4 \;
fb-amount-preset-min-set \$5 \; fb-amount-preset-max-set \$6 \; hipass-preset-min-set
\$7 \; hipass-preset-max-set \$8 \; lopass-preset-min-set \$9 \; lopass-preset-max-set
\$10 \;;
#X obj 331 68 r store;
#X obj 405 354 r pre-del;
#X obj 408 401 r fb-time;
#X obj 406 450 r fb-amount;
#X obj 406 499 r hipass;
#X obj 403 546 r lopass;
#X obj 355 236 text size berelay-presets-text;
#X obj 405 378 array set presets 0 2;
#X obj 408 425 array set presets 2 2;
#X obj 406 474 array set presets 4 2;
#X obj 406 523 array set presets 6 2;
#X obj 403 570 array set presets 8 2;
#X obj 342 99 t b b;
#X msg 355 260 \; berelay-presets-set number \$1 \, set \$1;
#X connect 1 0 4 0;
#X connect 2 0 7 0;
#X connect 4 0 5 0;
#X connect 4 1 6 0;
#X connect 6 0 5 1;
#X connect 7 0 14 0;
#X connect 8 0 7 0;
#X connect 9 0 10 0;
#X connect 10 0 11 0;
#X connect 11 0 12 0;
#X connect 12 0 13 0;
#X connect 12 1 13 1;
#X connect 14 0 9 0;
#X connect 14 1 15 0;
#X connect 16 0 28 0;
#X connect 17 0 23 0;
#X connect 18 0 24 0;
#X connect 19 0 25 0;
#X connect 20 0 26 0;
#X connect 21 0 27 0;
#X connect 22 0 29 0;
#X connect 28 0 22 0;
#X connect 28 1 1 0;
#X restore 26 92 pd berelay-presets;
#N canvas 1334 307 568 751 update_all 0;
#X obj 34 73 _iterate;
#X obj 193 229 text get cakewalks;
#X obj 34 97 t f f f, f 13;
#X obj 70 174 symbol;
#X obj 194 201 f;
#X obj 303 572 array set;
#X obj 191 288 t b f;
#X obj 63 123 + 1;
#X obj 192 258 _iterate;
#X obj 32 462 + 1;
#X obj 250 465 fd_gauss 4 0.5;
#X obj 70 197 t a b a;
#X obj 191 312 _crand 0 1;
#X msg 73 405 \; \$1 normalize 1;
#X msg 32 485 \; clear_berelays-set bang \; update-\$1 bang;
#X obj 203 384 list prepend 0;
#X obj 203 408 route 0 1;
#X obj 360 40 r randomize;
#X obj 376 65 t b b;
#X msg 410 90 0;
#X obj 267 24 r gaussian;
#X obj 285 60 t b b;
#X msg 413 117 1;
#X obj 392 152 t a;
#X msg 70 151 pre-del-\$1 \, fb-time-\$1 \, fb-amount-\$1 \, lopass-\$1
\, hipass-\$1;
#X obj 135 12 r make-rec;
#X obj 135 36 list split 3;
#X obj 179 63 f;
#X connect 0 0 2 0;
#X connect 1 0 8 0;
#X connect 2 0 9 0;
#X connect 2 1 7 0;
#X connect 2 2 4 1;
#X connect 3 0 11 0;
#X connect 4 0 1 0;
#X connect 6 0 12 0;
#X connect 6 1 5 1;
#X connect 7 0 24 0;
#X connect 8 0 6 0;
#X connect 9 0 14 0;
#X connect 10 0 5 0;
#X connect 11 0 13 0;
#X connect 11 1 4 0;
#X connect 11 2 5 2;
#X connect 12 0 15 0;
#X connect 15 0 16 0;
#X connect 16 0 5 0;
#X connect 16 1 10 0;
#X connect 17 0 18 0;
#X connect 18 0 27 0;
#X connect 18 1 19 0;
#X connect 19 0 23 0;
#X connect 20 0 21 0;
#X connect 21 0 27 0;
#X connect 21 1 22 0;
#X connect 22 0 23 0;
#X connect 23 0 15 1;
#X connect 24 0 3 0;
#X connect 25 0 26 0;
#X connect 26 1 27 1;
#X connect 27 0 0 0;
#X restore 26 17 pd update_all;
#N canvas 0 22 450 300 global 0;
#X obj 208 115 r g_hipass;
#X obj 63 151 mtof;
#X obj 63 175 s berelays-lop;
#X obj 207 141 mtof;
#X obj 207 165 s berelays-hip;
#X floatatom 248 141 0 0 0 0 - - -;
#X floatatom 98 151 0 0 0 0 - - -;
#X obj 62 123 r g_lopass;
#X connect 0 0 3 0;
#X connect 1 0 2 0;
#X connect 1 0 6 0;
#X connect 3 0 4 0;
#X connect 3 0 5 0;
#X connect 7 0 1 0;
#X restore 26 117 pd global;
#N canvas 0 22 450 300 berelay-bin 0;
#X obj 10 10 _berelays 1 0 64 1000;
#X obj 10 40 _berelays 2 64 20 1000;
#X obj 10 70 _berelays 3 84 20 1000;
#X obj 10 100 _berelays 4 104 20 1000;
#X obj 10 130 _berelays 5 124 4 1000;
#X obj 10 160 _berelays 6 128 10 1000;
#X obj 10 190 _berelays 7 138 2 1000;
#X restore 26 142 pd berelay-bin;
#X restore 14 217 pd berelays ___________;
#N canvas 0 22 450 300 quit 0;
#X obj 69 68 r end-reached;
#X obj 69 92 spigot;
#X obj 144 27 r quit;
#X msg 176 234 \; pd quit;
#X obj 253 36 r berelay-vu;
#X msg 69 116 1;
#X obj 207 115 spigot;
#X obj 178 180 delay 1000;
#X msg 286 133 0;
#X obj 176 210 t b b;
#X obj 206 142 t b b;
#X msg 291 239 \; stereo-rec stop \; rec stop;
#X floatatom 269 106 5 0 0 0 - - -;
#X floatatom 321 104 5 0 0 0 - - -;
#X obj 242 78 moses -80;
#X connect 0 0 1 0;
#X connect 1 0 5 0;
#X connect 2 0 1 1;
#X connect 4 0 14 0;
#X connect 5 0 6 1;
#X connect 6 0 10 0;
#X connect 7 0 9 0;
#X connect 8 0 6 1;
#X connect 9 0 3 0;
#X connect 9 1 11 0;
#X connect 10 0 7 0;
#X connect 10 1 8 0;
#X connect 14 0 6 0;
#X connect 14 0 12 0;
#X connect 14 1 13 0;
#X restore 14 240 pd quit ______________;
#N canvas 987 51 435 228 dac 1;
#X obj 10 10 _dac-cube;
#X restore 14 265 pd dac __________________;
#N canvas 530 49 449 300 samples 0;
#X obj 245 18 array define bere_clean;
#X obj 26 20 r open-file;
#N canvas 0 22 450 431 soundfiler 0;
#X obj 26 141 soundfiler;
#X msg 26 117 read -resize \$1 \$2;
#X obj 26 169 sel;
#X obj 248 138 openpanel;
#X obj 248 162 list append bere_clean;
#X obj 248 186 spigot 1;
#X obj 248 210 t a b;
#X msg 294 211 0;
#X obj 329 188 r open-file;
#X msg 329 212 1;
#X obj 41 372 print opened;
#X obj 26 80 t a a;
#X obj 177 99 list split 1;
#X obj 80 203 list split 1;
#X obj 43 230 /;
#X obj 41 313 list prepend;
#X obj 41 342 list trim;
#X msg 42 287 \$1 minutes long;
#X obj 43 253 fd_msecparse;
#X obj 73 228 / 1000;
#X obj 26 25 inlet;
#X connect 0 0 2 0;
#X connect 0 1 13 0;
#X connect 1 0 0 0;
#X connect 2 0 3 0;
#X connect 2 1 14 0;
#X connect 3 0 4 0;
#X connect 4 0 5 0;
#X connect 5 0 6 0;
#X connect 6 0 11 0;
#X connect 6 1 7 0;
#X connect 7 0 5 1;
#X connect 8 0 9 0;
#X connect 9 0 5 1;
#X connect 11 0 1 0;
#X connect 11 1 12 0;
#X connect 12 0 15 1;
#X connect 13 0 19 0;
#X connect 14 0 18 0;
#X connect 15 0 16 0;
#X connect 16 0 10 0;
#X connect 17 0 15 0;
#X connect 18 0 17 0;
#X connect 19 0 14 1;
#X connect 20 0 11 0;
#X restore 26 143 pd soundfiler;
#X msg 26 63 list ../rec/bere_clean.wav bere_clean;
#X connect 1 0 3 0;
#X connect 3 0 2 0;
#X restore 14 44 pd samples _____________;
#N canvas 0 22 450 300 fx 0;
#N canvas 913 102 890 645 chorus 0;
#X obj 404 383 line~;
#X msg 404 356 \$1 10;
#X obj 415 333 dbtorms;
#X obj 26 262 *~ 0.5;
#X obj 26 286 +~ 0.5;
#X obj 26 238 osc~ 0.8;
#X obj 454 41 r~ clean;
#X text 45 45 chorus;
#X obj 48 415 *~;
#X obj 41 130 mtof;
#X obj 154 76 dbtorms;
#X obj 125 128 pack f 10;
#X obj 125 152 line~;
#X obj 26 310 *~;
#X obj 141 301 pack f 10;
#X obj 141 325 line~;
#X obj 148 221 mtof;
#X obj 148 247 / 12;
#X obj 152 14 r chorus-width;
#X obj 155 182 r chorus-time;
#X obj 23 84 r chorus-speed;
#X obj 421 205 r chorus-amount;
#X obj 453 72 delwrite~ chorus-l 1000;
#X obj 46 366 delread4~ chorus-l 32;
#X obj 221 419 *~;
#X obj 219 370 delread4~ chorus-l 32;
#X obj 260 280 pack f 10;
#X obj 260 304 line~;
#X obj 262 228 mtof;
#X obj 269 189 r chorus-stereo;
#X obj 418 269 t f f;
#X obj 568 392 _switch;
#X obj 570 350 >;
#X obj 609 442 switch~;
#X obj 43 452 *~;
#X obj 220 462 *~;
#X obj 39 484 throw~ fx-1;
#X obj 226 487 throw~ fx-2;
#X floatatom 269 213 5 0 0 0 - - -;
#X floatatom 421 229 5 0 0 0 - - -;
#X floatatom 155 206 5 0 0 0 - - -;
#X floatatom 209 44 5 0 0 0 - - -;
#X obj 627 408 t f f;
#X obj 705 425 sel;
#X msg 766 454 6 0 22;
#X obj 703 490 list prepend color;
#X obj 703 514 list trim;
#X msg 702 459 10 0 2;
#X obj 703 538 s chorus-canvas;
#X floatatom 245 103 5 0 0 0 - - -;
#X floatatom 200 243 5 0 0 0 - - -;
#X obj 144 274 clip 0 999;
#X obj 261 254 / 24;
#X floatatom 47 105 5 0 0 0 - - -;
#X floatatom 45 184 5 0 0 0 - - -;
#X obj 41 154 / 300;
#X obj 139 102 * 12;
#X connect 0 0 8 1;
#X connect 0 0 24 1;
#X connect 1 0 0 0;
#X connect 2 0 1 0;
#X connect 3 0 4 0;
#X connect 4 0 13 0;
#X connect 5 0 3 0;
#X connect 6 0 22 0;
#X connect 8 0 34 0;
#X connect 9 0 55 0;
#X connect 10 0 49 0;
#X connect 10 0 56 0;
#X connect 11 0 12 0;
#X connect 12 0 13 1;
#X connect 13 0 23 0;
#X connect 14 0 15 0;
#X connect 15 0 23 0;
#X connect 15 0 25 0;
#X connect 16 0 17 0;
#X connect 17 0 51 0;
#X connect 18 0 10 0;
#X connect 18 0 41 0;
#X connect 19 0 16 0;
#X connect 19 0 40 0;
#X connect 20 0 9 0;
#X connect 21 0 30 0;
#X connect 21 0 39 0;
#X connect 23 0 8 0;
#X connect 24 0 35 0;
#X connect 25 0 24 0;
#X connect 26 0 27 0;
#X connect 27 0 25 0;
#X connect 28 0 52 0;
#X connect 29 0 28 0;
#X connect 29 0 38 0;
#X connect 30 0 2 0;
#X connect 30 1 32 0;
#X connect 31 0 35 1;
#X connect 31 0 34 1;
#X connect 31 1 42 0;
#X connect 32 0 31 0;
#X connect 34 0 36 0;
#X connect 35 0 37 0;
#X connect 42 0 33 0;
#X connect 42 1 43 0;
#X connect 43 0 47 0;
#X connect 43 1 44 0;
#X connect 44 0 45 0;
#X connect 45 0 46 0;
#X connect 46 0 48 0;
#X connect 47 0 45 0;
#X connect 51 0 14 0;
#X connect 51 0 50 0;
#X connect 52 0 26 0;
#X connect 55 0 5 0;
#X connect 55 0 54 0;
#X connect 56 0 11 0;
#X restore 32 47 pd chorus;
#N canvas 0 22 884 570 reverb 0;
#X obj 87 171 rev3~ 100 80 3000 25;
#X obj 174 131 * 100;
#X obj 174 107 / 128;
#X obj 68 88 r~ clean;
#X obj 173 81 r reverb-feedback;
#X obj 145 50 r reverb-volume;
#X obj 232 107 r reverb-cutoff;
#X obj 232 131 mtof;
#X obj 473 179 line~;
#X msg 473 152 \$1 10;
#X obj 470 120 dbtorms;
#X obj 106 237 *~;
#X obj 256 238 *~;
#X obj 497 69 r reverb-amount;
#X obj 452 249 _switch;
#X obj 559 164 >;
#X obj 478 321 switch~;
#X obj 104 292 *~;
#X obj 268 292 *~;
#X obj 483 94 t f f;
#X obj 91 340 throw~ fx-1;
#X obj 275 333 throw~ fx-2;
#X obj 505 283 t f f;
#X obj 571 299 sel;
#X msg 632 328 6 0 22;
#X obj 569 364 list prepend color;
#X obj 569 388 list trim;
#X msg 568 333 10 0 2;
#X obj 569 413 s reverb-canvas;
#X obj 266 131 r reverb-cutoff-amt;
#X obj 266 155 / 127;
#X obj 266 179 * 100;
#X connect 0 0 11 0;
#X connect 0 1 12 0;
#X connect 1 0 0 3;
#X connect 2 0 1 0;
#X connect 3 0 0 1;
#X connect 3 0 0 0;
#X connect 4 0 2 0;
#X connect 5 0 0 2;
#X connect 6 0 7 0;
#X connect 7 0 0 4;
#X connect 8 0 11 1;
#X connect 8 0 12 1;
#X connect 9 0 8 0;
#X connect 10 0 9 0;
#X connect 11 0 17 0;
#X connect 12 0 18 0;
#X connect 13 0 19 0;
#X connect 14 0 18 1;
#X connect 14 0 17 1;
#X connect 14 1 22 0;
#X connect 15 0 14 0;
#X connect 17 0 20 0;
#X connect 18 0 21 0;
#X connect 19 0 10 0;
#X connect 19 1 15 0;
#X connect 22 0 16 0;
#X connect 22 1 23 0;
#X connect 23 0 27 0;
#X connect 23 1 24 0;
#X connect 24 0 25 0;
#X connect 25 0 26 0;
#X connect 26 0 28 0;
#X connect 27 0 25 0;
#X connect 29 0 30 0;
#X connect 30 0 31 0;
#X connect 31 0 0 5;
#X restore 32 69 pd reverb;
#N canvas 710 336 953 569 panner 0;
#X obj 28 95 r~ clean;
#X obj 254 150 *~ 0.5;
#X obj 254 174 +~ 0.5;
#X obj 120 84 sig~ 1;
#X obj 120 108 -~;
#X obj 42 200 *~;
#X obj 215 196 *~;
#X obj 372 222 line~;
#X msg 372 195 \$1 10;
#X obj 369 163 dbtorms;
#X obj 380 89 r panner-amount;
#X obj 245 50 r panner-speed;
#X obj 254 126 osc~ 0.1;
#X obj 248 72 mtof;
#X obj 248 96 / 12;
#X obj 452 249 _switch;
#X obj 439 179 >;
#X obj 488 316 switch~;
#X obj 57 307 *~;
#X obj 221 307 *~;
#X obj 407 130 t f f;
#X obj 218 251 *~;
#X obj 49 253 *~;
#X obj 36 346 throw~ fx-1;
#X obj 209 342 throw~ fx-2;
#X floatatom 299 72 5 0 0 0 - - -;
#X floatatom 289 106 5 0 0 0 - - -;
#X floatatom 465 146 5 0 0 0 - - -;
#X floatatom 439 203 5 0 0 0 - - -;
#X obj 493 282 t f f;
#X obj 571 299 sel;
#X msg 632 328 6 0 22;
#X obj 569 364 list prepend color;
#X obj 569 388 list trim;
#X msg 568 333 10 0 2;
#X obj 569 412 s panner-canvas;
#X connect 0 0 5 0;
#X connect 0 0 6 0;
#X connect 1 0 2 0;
#X connect 2 0 4 1;
#X connect 2 0 6 1;
#X connect 3 0 4 0;
#X connect 4 0 5 1;
#X connect 5 0 22 0;
#X connect 6 0 21 0;
#X connect 7 0 21 1;
#X connect 7 0 22 1;
#X connect 8 0 7 0;
#X connect 9 0 8 0;
#X connect 10 0 20 0;
#X connect 11 0 13 0;
#X connect 11 0 25 0;
#X connect 12 0 1 0;
#X connect 13 0 14 0;
#X connect 14 0 12 0;
#X connect 14 0 26 0;
#X connect 15 0 19 1;
#X connect 15 0 18 1;
#X connect 15 1 29 0;
#X connect 16 0 15 0;
#X connect 16 0 28 0;
#X connect 18 0 23 0;
#X connect 19 0 24 0;
#X connect 20 0 9 0;
#X connect 20 1 16 0;
#X connect 20 1 27 0;
#X connect 21 0 19 0;
#X connect 22 0 18 0;
#X connect 29 0 17 0;
#X connect 29 1 30 0;
#X connect 30 0 34 0;
#X connect 30 1 31 0;
#X connect 31 0 32 0;
#X connect 32 0 33 0;
#X connect 33 0 35 0;
#X connect 34 0 32 0;
#X restore 32 25 pd panner;
#N canvas 0 22 715 570 clean-guit 0;
#X obj 48 66 r~ clean;
#X obj 60 170 *~;
#X obj 139 18 r clean-amount;
#X obj 138 77 dbtorms;
#X obj 138 101 pack f 10;
#X obj 138 125 line~;
#X obj 60 194 *~;
#X obj 60 218 throw~ dacout-1;
#X obj 198 220 throw~ dacout-2;
#X obj 138 47 t f f;
#X obj 278 99 >;
#X obj 271 128 _switch;
#X obj 338 226 switch~;
#X obj 374 182 t f f;
#X obj 452 199 sel;
#X msg 513 228 6 0 22;
#X obj 450 264 list prepend color;
#X obj 450 288 list trim;
#X msg 449 233 10 0 2;
#X obj 450 312 s clean-canvas;
#X connect 0 0 1 0;
#X connect 1 0 6 0;
#X connect 2 0 9 0;
#X connect 3 0 4 0;
#X connect 4 0 5 0;
#X connect 5 0 1 1;
#X connect 6 0 7 0;
#X connect 6 0 8 0;
#X connect 9 0 3 0;
#X connect 9 1 10 0;
#X connect 10 0 11 0;
#X connect 11 0 6 1;
#X connect 11 1 13 0;
#X connect 13 0 12 0;
#X connect 13 1 14 0;
#X connect 14 0 18 0;
#X connect 14 1 15 0;
#X connect 15 0 16 0;
#X connect 16 0 17 0;
#X connect 17 0 19 0;
#X connect 18 0 16 0;
#X restore 32 91 pd clean-guit;
#N canvas 0 22 450 300 fx-routing 0;
#X obj 43 212 throw~ dacout-1;
#X obj 236 189 throw~ dacout-2;
#X obj 52 47 catch~ fx-1;
#X obj 237 46 catch~ fx-2;
#X connect 2 0 0 0;
#X connect 3 0 1 0;
#X restore 31 123 pd fx-routing;
#N canvas 0 22 450 300 init-fx 0;
#X obj 91 54 loadbang;
#X msg 91 78 clean \, panner \, reverb \, chorus;
#X obj 91 102 symbol;
#X obj 91 126 makefilename %s-amount-set;
#X obj 91 150 t b a;
#X obj 91 198 s;
#X msg 91 174 1 \, 0;
#X connect 0 0 1 0;
#X connect 1 0 2 0;
#X connect 2 0 3 0;
#X connect 3 0 4 0;
#X connect 4 0 6 0;
#X connect 4 1 5 1;
#X connect 6 0 5 0;
#X restore 280 32 pd init-fx;
#X restore 14 168 pd fx ___________;
#N canvas 533 50 446 297 rec 0;
#N canvas 7 350 450 300 rec-bin 0;
#N canvas 0 22 450 300 rec-1 0;
#X obj 20 10 catch~ rec-0;
#X obj 50 40 catch~ rec-1;
#X obj 80 70 catch~ rec-2;
#X obj 110 100 catch~ rec-3;
#X obj 140 130 catch~ rec-4;
#X obj 170 160 catch~ rec-5;
#X obj 200 190 catch~ rec-6;
#X obj 230 220 catch~ rec-7;
#X obj 260 250 catch~ rec-8;
#X obj 290 280 catch~ rec-9;
#X obj 320 310 catch~ rec-10;
#X obj 350 340 catch~ rec-11;
#X obj 380 20 catch~ rec-12;
#X obj 410 50 catch~ rec-13;
#X obj 440 80 catch~ rec-14;
#X obj 470 110 catch~ rec-15;
#X obj 500 140 catch~ rec-16;
#X obj 530 170 catch~ rec-17;
#X obj 560 200 catch~ rec-18;
#X obj 590 230 catch~ rec-19;
#X obj 620 260 catch~ rec-20;
#X obj 650 290 catch~ rec-21;
#X obj 680 320 catch~ rec-22;
#X obj 710 0 catch~ rec-23;
#X obj 740 30 catch~ rec-24;
#X obj 770 60 catch~ rec-25;
#X obj 800 90 catch~ rec-26;
#X obj 830 120 catch~ rec-27;
#X obj 860 150 catch~ rec-28;
#X obj 890 180 catch~ rec-29;
#X obj 920 210 catch~ rec-30;
#X obj 950 240 catch~ rec-31;
#X obj 980 270 catch~ rec-32;
#X obj 1010 300 catch~ rec-33;
#X obj 1040 330 catch~ rec-34;
#X obj 1070 10 catch~ rec-35;
#X obj 1100 40 catch~ rec-36;
#X obj 1130 70 catch~ rec-37;
#X obj 1160 100 catch~ rec-38;
#X obj 1190 130 catch~ rec-39;
#X obj 1220 160 catch~ rec-40;
#X obj 1250 190 catch~ rec-41;
#X obj 1280 220 catch~ rec-42;
#X obj 1310 250 catch~ rec-43;
#X obj 1340 280 catch~ rec-44;
#X obj 1370 310 catch~ rec-45;
#X obj 1400 340 catch~ rec-46;
#X obj 1430 20 catch~ rec-47;
#X obj 1460 50 catch~ rec-48;
#X obj 1490 80 catch~ rec-49;
#X obj 1520 110 catch~ rec-50;
#X obj 1550 140 catch~ rec-51;
#X obj 1580 170 catch~ rec-52;
#X obj 1610 200 catch~ rec-53;
#X obj 1640 230 catch~ rec-54;
#X obj 1670 260 catch~ rec-55;
#X obj 1700 290 catch~ rec-56;
#X obj 1730 320 catch~ rec-57;
#X obj 1760 0 catch~ rec-58;
#X obj 1790 30 catch~ rec-59;
#X obj 1820 60 catch~ rec-60;
#X obj 1850 90 catch~ rec-61;
#X obj 1880 120 catch~ rec-62;
#X obj 1910 150 catch~ rec-63;
#X obj 10 400 r rec-1;
#X obj 10 430 writesf~ 64;
#X connect 0 0 65 0;
#X connect 1 0 65 1;
#X connect 2 0 65 2;
#X connect 3 0 65 3;
#X connect 4 0 65 4;
#X connect 5 0 65 5;
#X connect 6 0 65 6;
#X connect 7 0 65 7;
#X connect 8 0 65 8;
#X connect 9 0 65 9;
#X connect 10 0 65 10;
#X connect 11 0 65 11;
#X connect 12 0 65 12;
#X connect 13 0 65 13;
#X connect 14 0 65 14;
#X connect 15 0 65 15;
#X connect 16 0 65 16;
#X connect 17 0 65 17;
#X connect 18 0 65 18;
#X connect 19 0 65 19;
#X connect 20 0 65 20;
#X connect 21 0 65 21;
#X connect 22 0 65 22;
#X connect 23 0 65 23;
#X connect 24 0 65 24;
#X connect 25 0 65 25;
#X connect 26 0 65 26;
#X connect 27 0 65 27;
#X connect 28 0 65 28;
#X connect 29 0 65 29;
#X connect 30 0 65 30;
#X connect 31 0 65 31;
#X connect 32 0 65 32;
#X connect 33 0 65 33;
#X connect 34 0 65 34;
#X connect 35 0 65 35;
#X connect 36 0 65 36;
#X connect 37 0 65 37;
#X connect 38 0 65 38;
#X connect 39 0 65 39;
#X connect 40 0 65 40;
#X connect 41 0 65 41;
#X connect 42 0 65 42;
#X connect 43 0 65 43;
#X connect 44 0 65 44;
#X connect 45 0 65 45;
#X connect 46 0 65 46;
#X connect 47 0 65 47;
#X connect 48 0 65 48;
#X connect 49 0 65 49;
#X connect 50 0 65 50;
#X connect 51 0 65 51;
#X connect 52 0 65 52;
#X connect 53 0 65 53;
#X connect 54 0 65 54;
#X connect 55 0 65 55;
#X connect 56 0 65 56;
#X connect 57 0 65 57;
#X connect 58 0 65 58;
#X connect 59 0 65 59;
#X connect 60 0 65 60;
#X connect 61 0 65 61;
#X connect 62 0 65 62;
#X connect 63 0 65 63;
#X connect 64 0 65 0;
#X restore 10 10 pd rec-1;
#N canvas 0 22 450 300 rec-2 0;
#X obj 20 10 catch~ rec-64;
#X obj 50 40 catch~ rec-65;
#X obj 80 70 catch~ rec-66;
#X obj 110 100 catch~ rec-67;
#X obj 140 130 catch~ rec-68;
#X obj 170 160 catch~ rec-69;
#X obj 200 190 catch~ rec-70;
#X obj 230 220 catch~ rec-71;
#X obj 260 250 catch~ rec-72;
#X obj 290 280 catch~ rec-73;
#X obj 320 310 catch~ rec-74;
#X obj 350 340 catch~ rec-75;
#X obj 380 20 catch~ rec-76;
#X obj 410 50 catch~ rec-77;
#X obj 440 80 catch~ rec-78;
#X obj 470 110 catch~ rec-79;
#X obj 500 140 catch~ rec-80;
#X obj 530 170 catch~ rec-81;
#X obj 560 200 catch~ rec-82;
#X obj 590 230 catch~ rec-83;
#X obj 10 400 r rec-2;
#X obj 10 430 writesf~ 20;
#X connect 0 0 21 0;
#X connect 1 0 21 1;
#X connect 2 0 21 2;
#X connect 3 0 21 3;
#X connect 4 0 21 4;
#X connect 5 0 21 5;
#X connect 6 0 21 6;
#X connect 7 0 21 7;
#X connect 8 0 21 8;
#X connect 9 0 21 9;
#X connect 10 0 21 10;
#X connect 11 0 21 11;
#X connect 12 0 21 12;
#X connect 13 0 21 13;
#X connect 14 0 21 14;
#X connect 15 0 21 15;
#X connect 16 0 21 16;
#X connect 17 0 21 17;
#X connect 18 0 21 18;
#X connect 19 0 21 19;
#X connect 20 0 21 0;
#X restore 10 40 pd rec-2;
#N canvas 0 22 450 300 rec-3 0;
#X obj 20 10 catch~ rec-84;
#X obj 50 40 catch~ rec-85;
#X obj 80 70 catch~ rec-86;
#X obj 110 100 catch~ rec-87;
#X obj 140 130 catch~ rec-88;
#X obj 170 160 catch~ rec-89;
#X obj 200 190 catch~ rec-90;
#X obj 230 220 catch~ rec-91;
#X obj 260 250 catch~ rec-92;
#X obj 290 280 catch~ rec-93;
#X obj 320 310 catch~ rec-94;
#X obj 350 340 catch~ rec-95;
#X obj 380 20 catch~ rec-96;
#X obj 410 50 catch~ rec-97;
#X obj 440 80 catch~ rec-98;
#X obj 470 110 catch~ rec-99;
#X obj 500 140 catch~ rec-100;
#X obj 530 170 catch~ rec-101;
#X obj 560 200 catch~ rec-102;
#X obj 590 230 catch~ rec-103;
#X obj 10 400 r rec-3;
#X obj 10 430 writesf~ 20;
#X connect 0 0 21 0;
#X connect 1 0 21 1;
#X connect 2 0 21 2;
#X connect 3 0 21 3;
#X connect 4 0 21 4;
#X connect 5 0 21 5;
#X connect 6 0 21 6;
#X connect 7 0 21 7;
#X connect 8 0 21 8;
#X connect 9 0 21 9;
#X connect 10 0 21 10;
#X connect 11 0 21 11;
#X connect 12 0 21 12;
#X connect 13 0 21 13;
#X connect 14 0 21 14;
#X connect 15 0 21 15;
#X connect 16 0 21 16;
#X connect 17 0 21 17;
#X connect 18 0 21 18;
#X connect 19 0 21 19;
#X connect 20 0 21 0;
#X restore 10 70 pd rec-3;
#N canvas 0 22 450 300 rec-4 0;
#X obj 20 10 catch~ rec-104;
#X obj 50 40 catch~ rec-105;
#X obj 80 70 catch~ rec-106;
#X obj 110 100 catch~ rec-107;
#X obj 140 130 catch~ rec-108;
#X obj 170 160 catch~ rec-109;
#X obj 200 190 catch~ rec-110;
#X obj 230 220 catch~ rec-111;
#X obj 260 250 catch~ rec-112;
#X obj 290 280 catch~ rec-113;
#X obj 320 310 catch~ rec-114;
#X obj 350 340 catch~ rec-115;
#X obj 380 20 catch~ rec-116;
#X obj 410 50 catch~ rec-117;
#X obj 440 80 catch~ rec-118;
#X obj 470 110 catch~ rec-119;
#X obj 500 140 catch~ rec-120;
#X obj 530 170 catch~ rec-121;
#X obj 560 200 catch~ rec-122;
#X obj 590 230 catch~ rec-123;
#X obj 10 400 r rec-4;
#X obj 10 430 writesf~ 20;
#X connect 0 0 21 0;
#X connect 1 0 21 1;
#X connect 2 0 21 2;
#X connect 3 0 21 3;
#X connect 4 0 21 4;
#X connect 5 0 21 5;
#X connect 6 0 21 6;
#X connect 7 0 21 7;
#X connect 8 0 21 8;
#X connect 9 0 21 9;
#X connect 10 0 21 10;
#X connect 11 0 21 11;
#X connect 12 0 21 12;
#X connect 13 0 21 13;
#X connect 14 0 21 14;
#X connect 15 0 21 15;
#X connect 16 0 21 16;
#X connect 17 0 21 17;
#X connect 18 0 21 18;
#X connect 19 0 21 19;
#X connect 20 0 21 0;
#X restore 10 100 pd rec-4;
#N canvas 0 22 450 300 rec-5 0;
#X obj 20 10 catch~ rec-124;
#X obj 50 40 catch~ rec-125;
#X obj 80 70 catch~ rec-126;
#X obj 110 100 catch~ rec-127;
#X obj 10 400 r rec-5;
#X obj 10 430 writesf~ 4;
#X connect 0 0 5 0;
#X connect 1 0 5 1;
#X connect 2 0 5 2;
#X connect 3 0 5 3;
#X connect 4 0 5 0;
#X restore 10 130 pd rec-5;
#N canvas 0 22 450 300 rec-6 0;
#X obj 20 10 catch~ rec-128;
#X obj 50 40 catch~ rec-129;
#X obj 80 70 catch~ rec-130;
#X obj 110 100 catch~ rec-131;
#X obj 140 130 catch~ rec-132;
#X obj 170 160 catch~ rec-133;
#X obj 200 190 catch~ rec-134;
#X obj 230 220 catch~ rec-135;
#X obj 260 250 catch~ rec-136;
#X obj 290 280 catch~ rec-137;
#X obj 10 400 r rec-6;
#X obj 10 430 writesf~ 10;
#X connect 0 0 11 0;
#X connect 1 0 11 1;
#X connect 2 0 11 2;
#X connect 3 0 11 3;
#X connect 4 0 11 4;
#X connect 5 0 11 5;
#X connect 6 0 11 6;
#X connect 7 0 11 7;
#X connect 8 0 11 8;
#X connect 9 0 11 9;
#X connect 10 0 11 0;
#X restore 10 160 pd rec-6;
#N canvas 0 22 450 300 rec-7 0;
#X obj 20 10 catch~ rec-138;
#X obj 50 40 catch~ rec-139;
#X obj 10 400 r rec-7;
#X obj 10 430 writesf~ 2;
#X connect 0 0 3 0;
#X connect 1 0 3 1;
#X connect 2 0 3 0;
#X restore 10 190 pd rec-7;
#X restore 19 19 pd rec-bin;
#N canvas 0 22 450 300 rec-command 0;
#X obj 220 9 r rec;
#X obj 158 83 t b a;
#X obj 218 36 route stop;
#X obj 156 150 _iterate;
#X obj 156 174 + 1;
#X obj 156 198 list;
#X obj 203 109 symbol;
#X obj 39 138 _iterate;
#X obj 39 162 + 1;
#X obj 39 186 list;
#X msg 155 222 \; rec-\$1 open ../rec/\$2-\$1.wav \, start;
#X msg 39 210 \; rec-\$1 stop;
#X obj 36 10 r make-rec;
#X obj 36 37 list split 3;
#X obj 58 109 f;
#X obj 65 69 t f f;
#X obj 144 118 f;
#X connect 0 0 2 0;
#X connect 1 0 16 0;
#X connect 1 1 6 0;
#X connect 2 0 14 0;
#X connect 2 1 1 0;
#X connect 3 0 4 0;
#X connect 4 0 5 0;
#X connect 5 0 10 0;
#X connect 6 0 5 1;
#X connect 7 0 8 0;
#X connect 8 0 9 0;
#X connect 9 0 11 0;
#X connect 12 0 13 0;
#X connect 13 1 15 0;
#X connect 14 0 7 0;
#X connect 15 0 14 1;
#X connect 15 1 16 1;
#X connect 16 0 3 0;
#X restore 19 51 pd rec-command;
#N canvas 0 22 721 984 make-rec 0;
#X obj 134 496 * 100;
#X obj 134 593 pack;
#X obj 135 358 t b f;
#X obj 227 496 * 30;
#X obj 134 566 +;
#X obj 172 566 t f f;
#X obj 134 311 until;
#X msg 175 311 0;
#X obj 134 335 f;
#X obj 164 335 + 1;
#X obj 134 411 t f b;
#X obj 134 435 until;
#X msg 175 435 0;
#X obj 134 459 f;
#X obj 164 459 + 1;
#X obj 134 620 t a b;
#X obj 201 624 f;
#X obj 234 625 + 1;
#X obj 167 673 pack f f f;
#X obj 134 287 t f b;
#X obj 134 387 f;
#X obj 134 531 + 10;
#X obj 227 531 + 10;
#X text 265 493 y-increment;
#X text 266 528 y-offset;
#X text 37 495 x-increment;
#X text 57 531 x-offset;
#X text 225 567 <-- y-offset-diagonal;
#X text 269 627 <-- object id;
#X msg 167 723 obj \$1 \$2 \$4 \$5-\$3;
#X obj 167 698 list append catch~ rec;
#X obj 318 342 list split 2;
#X obj 167 768 s;
#X obj 409 725 list trim;
#X obj 409 749 symbol;
#X obj 443 354 t f f;
#X msg 560 339 clear;
#X msg 318 318 catch~ rec pd-rec-\$1;
#X obj 135 152 list split 3;
#X obj 135 181 list split 2;
#X obj 135 264 unpack;
#X obj 318 293 t f f;
#X obj 172 592 mod 350;
#X obj 443 381 - 1;
#X obj 443 433 + 10;
#X obj 134 647 t a a;
#X obj 67 666 list;
#X obj 443 462 pack;
#X msg 444 486 obj 10 \$1 pd rec-\$2;
#X obj 443 408 * 30;
#X obj 68 97 t a a;
#X msg 68 126 \$1 \$4;
#X msg 148 796 obj 10 400 r rec-\$2 \, obj 10 430 writesf~ \$1 \, vis
0;
#X obj 83 832 until;
#X msg 124 832 0;
#X obj 83 856 f;
#X obj 113 856 + 1;
#X obj 83 808 t f b;
#X obj 67 729 t a a;
#X obj 67 753 list split 1;
#X obj 166 852 + 1;
#X obj 83 880 pack;
#X msg 333 826 connect \$1 0 \$2 \$1;
#X obj 126 881 t f f;
#X obj 67 935 pack;
#X obj 67 777 t f f f;
#X msg 334 860 connect \$1 0 \$2 0;
#X obj 69 13 r make-rec;
#X obj 69 37 route clear;
#X obj 443 522 s pd-rec-bin;
#X connect 0 0 21 0;
#X connect 1 0 15 0;
#X connect 2 0 20 0;
#X connect 2 1 3 0;
#X connect 3 0 22 0;
#X connect 4 0 1 0;
#X connect 5 0 42 0;
#X connect 5 1 4 1;
#X connect 6 0 8 0;
#X connect 7 0 8 1;
#X connect 8 0 9 0;
#X connect 8 0 2 0;
#X connect 9 0 8 1;
#X connect 10 0 11 0;
#X connect 10 1 12 0;
#X connect 11 0 13 0;
#X connect 12 0 13 1;
#X connect 13 0 14 0;
#X connect 13 0 0 0;
#X connect 14 0 13 1;
#X connect 15 0 45 0;
#X connect 15 1 16 0;
#X connect 16 0 17 0;
#X connect 16 0 18 2;
#X connect 17 0 16 1;
#X connect 18 0 30 0;
#X connect 19 0 6 0;
#X connect 19 1 7 0;
#X connect 20 0 10 0;
#X connect 21 0 4 0;
#X connect 22 0 5 0;
#X connect 29 0 32 0;
#X connect 30 0 29 0;
#X connect 31 0 30 1;
#X connect 31 1 33 0;
#X connect 33 0 34 0;
#X connect 34 0 32 1;
#X connect 35 0 43 0;
#X connect 35 1 47 1;
#X connect 36 0 69 0;
#X connect 37 0 31 0;
#X connect 38 0 39 0;
#X connect 38 1 41 0;
#X connect 39 0 40 0;
#X connect 39 1 16 1;
#X connect 40 0 19 0;
#X connect 40 1 20 1;
#X connect 41 0 37 0;
#X connect 41 1 35 0;
#X connect 42 0 1 1;
#X connect 43 0 49 0;
#X connect 44 0 47 0;
#X connect 45 0 46 1;
#X connect 45 1 18 0;
#X connect 46 0 58 0;
#X connect 47 0 48 0;
#X connect 48 0 69 0;
#X connect 49 0 44 0;
#X connect 50 0 51 0;
#X connect 50 1 38 0;
#X connect 51 0 46 0;
#X connect 52 0 32 0;
#X connect 53 0 55 0;
#X connect 54 0 55 1;
#X connect 55 0 56 0;
#X connect 55 0 61 0;
#X connect 56 0 55 1;
#X connect 57 0 53 0;
#X connect 57 1 54 0;
#X connect 58 0 59 0;
#X connect 58 1 52 0;
#X connect 59 0 65 0;
#X connect 60 0 63 0;
#X connect 61 0 62 0;
#X connect 62 0 32 0;
#X connect 63 0 61 1;
#X connect 63 1 64 1;
#X connect 64 0 66 0;
#X connect 65 0 64 0;
#X connect 65 1 57 0;
#X connect 65 2 60 0;
#X connect 66 0 32 0;
#X connect 67 0 68 0;
#X connect 68 0 36 0;
#X connect 68 1 50 0;
#X restore 19 83 pd make-rec;
#X restore 14 144 pd rec ___________;
#X text 192 118 <-- 1) choose setup;
#X text 221 137 2) choose playback / live;
#X text 221 155 3) turn 'berelays' ON;
#X text 221 173 4) decide on fx controls;
#N canvas 0 22 450 300 FIND 0;
#X text 46 19 This patch needs from Help>Find Externals:, f 43;
#X text 142 47 fd_lib;
#X text 141 69 timbreID;
#X text 125 179 timbreID version 0.8.1;
#X text 124 162 fd_lib version 0.1;
#X text 40 133 Make sure the following appears on console:;
#X text 21 234 (if there are any errors \, contact camarahalac.1@osu.edu)
;
#X text 34 98 All should work on windows \, mac \, or linux;
#X restore 301 265 pd FIND EXTERNALS;
