#N canvas 530 50 450 300 12;
#X declare -path ./lib -path ../rec -path ../txt;
#X text 200 20 "berelay";
#N canvas 520 56 501 670 samples 0;
#X obj 26 391 soundfiler;
#X msg 242 165 resize 100 \, const 0;
#X msg 26 44 clean;
#X msg 38 73 L;
#X msg 47 96 R;
#X obj 26 270 makefilename ../rec/%s.wav;
#X obj 26 223 makefilename bere_%s;
#X msg 26 367 read -resize \$1 \$2;
#X obj 26 294 pack s s;
#X obj 26 247 t a a;
#X text 77 47 <-- guitarra sin delays;
#X text 80 72 <-- guitarra delays left;
#X text 83 98 <-- guitarra delays right;
#X obj 26 198 symbol;
#X obj 242 203 array define bere_guitarra_L;
#X obj 242 227 array define bere_guitarra_R;
#X obj 241 252 array define bere_clean;
#X obj 38 124 symbol;
#X obj 38 151 makefilename guitarra_%s;
#X obj 26 20 r open-file;
#X obj 26 419 sel;
#X msg 235 285 list whatever bere_clean;
#X obj 314 334 openpanel;
#X obj 314 358 list append bere_clean;
#X obj 314 382 spigot 1;
#X obj 314 406 t a b;
#X msg 360 407 0;
#X obj 395 384 r open-file;
#X msg 395 408 1;
#X obj 41 622 print opened;
#X obj 26 330 t a a;
#X obj 177 349 list split 1;
#X obj 80 453 list split 1;
#X obj 43 480 /;
#X obj 41 563 list prepend;
#X obj 41 592 list trim;
#X msg 42 537 \$1 minutes long;
#X obj 43 503 fd_msecparse;
#X obj 73 478 / 1000;
#X connect 0 0 20 0;
#X connect 0 1 32 0;
#X connect 1 0 14 0;
#X connect 1 0 15 0;
#X connect 1 0 16 0;
#X connect 2 0 13 0;
#X connect 3 0 17 0;
#X connect 4 0 17 0;
#X connect 5 0 8 0;
#X connect 6 0 9 0;
#X connect 7 0 0 0;
#X connect 8 0 30 0;
#X connect 9 0 5 0;
#X connect 9 1 8 1;
#X connect 13 0 6 0;
#X connect 17 0 18 0;
#X connect 18 0 13 0;
#X connect 19 0 2 0;
#X connect 20 0 22 0;
#X connect 20 1 33 0;
#X connect 21 0 7 0;
#X connect 22 0 23 0;
#X connect 23 0 24 0;
#X connect 24 0 25 0;
#X connect 25 0 30 0;
#X connect 25 1 26 0;
#X connect 26 0 24 1;
#X connect 27 0 28 0;
#X connect 28 0 24 1;
#X connect 30 0 7 0;
#X connect 30 1 31 0;
#X connect 31 0 34 1;
#X connect 32 0 38 0;
#X connect 33 0 37 0;
#X connect 34 0 35 0;
#X connect 35 0 29 0;
#X connect 36 0 34 0;
#X connect 37 0 36 0;
#X connect 38 0 33 1;
#X restore 14 48 pd samples;
#N canvas 987 51 435 228 dac 1;
#X obj 10 10 _dac-stereo-rec;
#X restore 15 124 pd dac;
#N canvas 604 37 661 968 make_rec 0;
#X obj 134 496 * 100;
#X obj 134 593 pack;
#X obj 135 358 t b f;
#X obj 227 496 * 30;
#X obj 134 566 +;
#X obj 172 566 t f f;
#X obj 134 311 until;
#X msg 175 311 0;
#X obj 134 335 f;
#X obj 164 335 + 1;
#X obj 134 411 t f b;
#X obj 134 435 until;
#X msg 175 435 0;
#X obj 134 459 f;
#X obj 164 459 + 1;
#X obj 134 620 t a b;
#X obj 201 624 f;
#X obj 234 625 + 1;
#X obj 167 673 pack f f f;
#X obj 134 287 t f b;
#X obj 134 387 f;
#X obj 134 531 + 10;
#X obj 227 531 + 10;
#X text 265 493 y-increment;
#X text 266 528 y-offset;
#X text 37 495 x-increment;
#X text 57 531 x-offset;
#X text 225 567 <-- y-offset-diagonal;
#X text 269 627 <-- object id;
#X msg 167 723 obj \$1 \$2 \$4 \$5-\$3;
#X obj 167 698 list append catch~ rec;
#X obj 318 342 list split 2;
#X obj 167 768 s;
#X obj 409 725 list trim;
#X obj 409 749 symbol;
#X obj 443 354 t f f;
#X obj 443 522 s pd-rec;
#X msg 560 339 clear;
#X msg 318 318 catch~ rec pd-rec-\$1;
#X obj 135 152 list split 3;
#X obj 135 181 list split 2;
#X obj 135 264 unpack;
#X obj 68 8 bng 15 250 50 0 empty empty empty 17 7 0 10 -262144 -1
-1;
#X obj 68 28 t b b;
#X obj 318 293 t f f;
#X obj 172 592 mod 350;
#X obj 443 381 - 1;
#X obj 443 433 + 10;
#X obj 134 647 t a a;
#X obj 67 666 list;
#X obj 443 462 pack;
#X msg 444 486 obj 10 \$1 pd rec-\$2;
#X obj 443 408 * 30;
#X obj 68 97 t a a;
#X msg 68 126 \$1 \$4;
#X msg 148 796 obj 10 400 r rec-\$2 \, obj 10 430 writesf~ \$1 \, vis
0;
#X obj 83 832 until;
#X msg 124 832 0;
#X obj 83 856 f;
#X obj 113 856 + 1;
#X obj 83 808 t f b;
#X obj 67 729 t a a;
#X obj 67 753 list split 1;
#X obj 166 852 + 1;
#X obj 83 880 pack;
#X msg 333 826 connect \$1 0 \$2 \$1;
#X obj 126 881 t f f;
#X obj 67 935 pack;
#X obj 67 777 t f f f;
#X msg 334 860 connect \$1 0 \$2 0;
#X msg 68 73 64 1 1 1 \, 20 1 65 2 \, 20 1 85 3 \, 20 1 105 4 \, 4
1 125 5 \, 10 1 129 6 \, 2 1 139 7, f 76;
#X connect 0 0 21 0;
#X connect 1 0 15 0;
#X connect 2 0 20 0;
#X connect 2 1 3 0;
#X connect 3 0 22 0;
#X connect 4 0 1 0;
#X connect 5 0 45 0;
#X connect 5 1 4 1;
#X connect 6 0 8 0;
#X connect 7 0 8 1;
#X connect 8 0 9 0;
#X connect 8 0 2 0;
#X connect 9 0 8 1;
#X connect 10 0 11 0;
#X connect 10 1 12 0;
#X connect 11 0 13 0;
#X connect 12 0 13 1;
#X connect 13 0 14 0;
#X connect 13 0 0 0;
#X connect 14 0 13 1;
#X connect 15 0 48 0;
#X connect 15 1 16 0;
#X connect 16 0 17 0;
#X connect 16 0 18 2;
#X connect 17 0 16 1;
#X connect 18 0 30 0;
#X connect 19 0 6 0;
#X connect 19 1 7 0;
#X connect 20 0 10 0;
#X connect 21 0 4 0;
#X connect 22 0 5 0;
#X connect 29 0 32 0;
#X connect 30 0 29 0;
#X connect 31 0 30 1;
#X connect 31 1 33 0;
#X connect 33 0 34 0;
#X connect 34 0 32 1;
#X connect 35 0 46 0;
#X connect 35 1 50 1;
#X connect 37 0 36 0;
#X connect 38 0 31 0;
#X connect 39 0 40 0;
#X connect 39 1 44 0;
#X connect 40 0 41 0;
#X connect 40 1 16 1;
#X connect 41 0 19 0;
#X connect 41 1 20 1;
#X connect 42 0 43 0;
#X connect 43 0 70 0;
#X connect 43 1 37 0;
#X connect 44 0 38 0;
#X connect 44 1 35 0;
#X connect 45 0 1 1;
#X connect 46 0 52 0;
#X connect 47 0 50 0;
#X connect 48 0 49 1;
#X connect 48 1 18 0;
#X connect 49 0 61 0;
#X connect 50 0 51 0;
#X connect 51 0 36 0;
#X connect 52 0 47 0;
#X connect 53 0 54 0;
#X connect 53 1 39 0;
#X connect 54 0 49 0;
#X connect 55 0 32 0;
#X connect 56 0 58 0;
#X connect 57 0 58 1;
#X connect 58 0 59 0;
#X connect 58 0 64 0;
#X connect 59 0 58 1;
#X connect 60 0 56 0;
#X connect 60 1 57 0;
#X connect 61 0 62 0;
#X connect 61 1 55 0;
#X connect 62 0 68 0;
#X connect 63 0 66 0;
#X connect 64 0 65 0;
#X connect 65 0 32 0;
#X connect 66 0 64 1;
#X connect 66 1 67 1;
#X connect 67 0 69 0;
#X connect 68 0 67 0;
#X connect 68 1 60 0;
#X connect 68 2 63 0;
#X connect 69 0 32 0;
#X connect 70 0 53 0;
#X restore 14 151 pd make_rec;
#N canvas 530 379 741 308 controls 1;
#X obj 13 9 cnv 15 140 200 playback-canvas playback-canvas-set playback
3 12 0 14 -233017 -66577 0;
#X obj 21 134 bng 15 250 50 0 end-reached end-reached-set end 17 7
0 10 -232576 -1 -1;
#X obj 21 112 tgl 15 1 loop loop-set loop 17 7 0 10 -4032 -1 -1 0 1
;
#X obj 21 90 bng 15 250 50 0 playback-stop playback-stop-set stop 17
7 0 10 -257985 -1 -1;
#X obj 21 70 bng 15 250 50 0 playback-start playback-start-set start
17 7 0 10 -4034 -1 -1;
#X obj 173 9 cnv 15 120 200 live-canvas live-canvas-set live 3 12 0
14 -233017 -66577 0;
#X obj 183 74 vsl 15 128 0 127 0 0 live-gain live-gain-set gain 0 -9
0 10 -262144 -1 -1 0 1;
#X obj 207 83 vu 15 120 live-vu empty -1 -8 0 10 -66577 -1 1 0;
#X obj 216 13 tgl 15 0 live live-set live 17 7 0 10 -262144 -1 -1 0
1;
#X obj 83 12 tgl 15 0 playback playback-set playback 17 7 0 10 -262144
-1 -1 0 1;
#X obj 83 74 vsl 15 128 0 127 0 0 playback-gain playback-gain-set gain
0 -9 0 10 -262144 -1 -1 8300 1;
#X obj 107 83 vu 15 120 playback-vu empty -1 -8 0 10 -66577 -1 1 0
;
#X obj 20 40 bng 15 250 50 0 open-file open-file-set open-file 17 7
0 10 -261682 -1 -1;
#X msg 19 222 stereo;
#X obj 99 261 s setup;
#X msg 130 222 cube;
#X msg 88 222 6.1;
#X msg 177 222 perform;
#X obj 300 9 cnv 15 430 280 empty empty empty 20 12 0 14 -232576 -66577
0;
#X obj 316 16 tgl 15 0 berelays berelays-set berelays 17 7 0 10 -159808
-262144 -1 0 1;
#X obj 412 18 bng 15 250 50 0 randomize randomize-set randomize 17
7 0 10 -262144 -1 -1;
#X obj 493 17 bng 15 250 50 0 gaussian gaussian-set gaussian 17 7 0
10 -262144 -1 -1;
#X obj 573 23 hradio 10 1 0 7 open-berelays open-berelays-set open-berelays
0 -8 0 10 -262144 -1 -1 0;
#X obj 672 20 bng 15 250 50 0 clear_berelays clear_berelays-set clear
17 7 0 10 -4032 -1 -1;
#X obj 341 83 vu 15 120 berelay-vu empty -1 -8 0 10 -66577 -1 1 0;
#X obj 317 74 vsl 15 128 0 127 0 0 berelay-vol berelay-vol-set berelay-vol
0 -9 0 10 -262144 -1 -1 8900 1;
#X obj 317 224 nbx 5 14 -1e+37 1e+37 0 0 empty berelay-vol berelay-vol-dB
0 -8 0 10 -232576 -1 -1 89 256;
#X obj 413 58 hradio 15 1 0 11 berelay-presets berelay-presets-set
berelay-presets 0 -8 0 10 -262144 -1 -1 8;
#X obj 618 187 hsl 80 10 0 127 0 0 g_hipass g_hipass-set g_hipass -2
-8 0 10 -262144 -1 -1 0 1;
#X obj 618 211 hsl 80 10 0 127 0 0 g_lopass g_lopass-set g_lopass -2
-8 0 10 -262144 -1 -1 0 1;
#X obj 512 175 _bounds lopass;
#X obj 412 82 _bounds pre-del;
#X obj 513 82 _bounds fb-time;
#X obj 613 82 _bounds fb-amount;
#X obj 412 175 _bounds hipass;
#X obj 659 58 bng 15 250 50 0 store store-set store 17 7 0 10 -262144
-1 -1;
#X msg 170 258 stereo-rec;
#X connect 13 0 14 0;
#X connect 15 0 14 0;
#X connect 16 0 14 0;
#X connect 17 0 14 0;
#X connect 36 0 14 0;
#X restore 325 23 pd controls;
#N canvas 0 22 1018 771 clean 0;
#X obj 347 280 *~;
#X obj 288 206 line~;
#X msg 288 179 \$1 10;
#X obj 292 7 vsl 15 128 0 127 0 0 empty empty empty 0 -9 0 10 -262144
-1 -1 0 1;
#X obj 285 147 dbtorms;
#X obj 25 298 *~;
#X obj 790 590 line~;
#X msg 790 563 \$1 10;
#X obj 870 392 vsl 15 128 0 127 0 0 empty empty empty 0 -9 0 10 -262144
-1 -1 0 1;
#X obj 787 531 dbtorms;
#X obj 646 635 *~;
#X obj 50 39 r~ clean;
#X obj 346 205 r~ clean;
#X obj 128 131 rev3~ 100 80 3000 25;
#X obj 773 162 delwrite~ back-del 1000;
#X obj 21 336 throw~ dacout-1;
#X obj 148 299 *~;
#X obj 148 336 throw~ dacout-2;
#X obj 400 436 r~ clean;
#X obj 399 509 rev3~ 100 80 4000 25;
#X obj 399 624 *~;
#X obj 420 186 *~ 0.5;
#X obj 420 210 +~ 0.5;
#X floatatom 483 213 5 0 0 0 - - -;
#X floatatom 423 136 5 0 0 0 - - -;
#X obj 420 162 osc~ 0.25;
#X obj 422 239 *~ 0.3;
#X obj 670 501 *~ 0.1;
#X obj 599 395 delread4~ back-del 32;
#X obj 610 275 *~ 0.5;
#X obj 610 299 +~ 0.5;
#X floatatom 614 223 5 0 0 0 - - -;
#X floatatom 686 292 5 0 0 0 - - -;
#X floatatom 686 337 5 0 0 0 - - -;
#X obj 610 323 *~ 3;
#X obj 611 357 +~ 50;
#X obj 610 251 osc~ 0.8;
#X floatatom 158 75 5 0 0 0 - - -;
#X floatatom 207 79 5 0 0 0 - - -;
#X obj 774 130 r~ clean;
#X obj 780 11 tgl 15 0 empty empty empty 17 7 0 10 -262144 -1 -1 0
1;
#X obj 780 31 switch~;
#X obj 399 692 throw~ dacout-1;
#X obj 646 689 throw~ dacout-2;
#X obj 347 337 throw~ dacout-1;
#X obj 356 308 throw~ dacout-2;
#X connect 0 0 44 0;
#X connect 0 0 45 0;
#X connect 1 0 5 1;
#X connect 1 0 16 1;
#X connect 2 0 1 0;
#X connect 3 0 4 0;
#X connect 4 0 2 0;
#X connect 5 0 15 0;
#X connect 6 0 10 1;
#X connect 6 0 20 1;
#X connect 7 0 6 0;
#X connect 8 0 9 0;
#X connect 9 0 7 0;
#X connect 10 0 43 0;
#X connect 11 0 16 0;
#X connect 11 0 5 0;
#X connect 11 0 13 0;
#X connect 12 0 0 0;
#X connect 13 0 5 0;
#X connect 13 0 0 0;
#X connect 13 1 16 0;
#X connect 13 1 0 0;
#X connect 16 0 17 0;
#X connect 18 0 19 0;
#X connect 19 0 20 0;
#X connect 19 1 10 0;
#X connect 20 0 42 0;
#X connect 21 0 22 0;
#X connect 22 0 26 0;
#X connect 23 0 26 1;
#X connect 24 0 25 0;
#X connect 25 0 21 0;
#X connect 26 0 0 1;
#X connect 27 0 20 0;
#X connect 27 0 10 0;
#X connect 28 0 27 0;
#X connect 28 0 19 1;
#X connect 29 0 30 0;
#X connect 30 0 34 0;
#X connect 31 0 36 0;
#X connect 32 0 34 1;
#X connect 33 0 35 1;
#X connect 34 0 35 0;
#X connect 35 0 28 0;
#X connect 36 0 29 0;
#X connect 37 0 13 2;
#X connect 38 0 13 3;
#X connect 39 0 14 0;
#X connect 40 0 41 0;
#X restore 15 222 pd clean;
#N canvas 529 377 450 299 berelays 0;
#X obj 19 18 _berelays 1 0 64 1000;
#X obj 19 43 _berelays 2 65 20 1000;
#X obj 19 68 _berelays 3 85 20 1000;
#X obj 19 93 _berelays 4 105 20 1000;
#X obj 19 118 _berelays 5 125 4 1000;
#X obj 19 143 _berelays 6 129 10 1000;
#X obj 19 168 _berelays 7 139 2 1000;
#X obj 237 19 text define -k cakewalks;
#A set 64 \; 20 \; 20 \; 20 \; 4 \; 10 \; 2 \;;
#N canvas 0 22 450 300 open-berelays 0;
#X msg 50 81 \; berelays-\$1 vis 1;
#X obj 49 27 r open-berelays;
#X obj 49 51 + 1;
#X connect 1 0 2 0;
#X connect 2 0 0 0;
#X restore 238 76 pd open-berelays;
#N canvas 0 22 450 300 berelay-sum 0;
#X obj 73 64 env~;
#X obj 73 88 - 101;
#X obj 73 41 catch~ berelay-sum;
#X obj 73 112 s berelay-vu;
#X connect 0 0 1 0;
#X connect 1 0 3 0;
#X connect 2 0 0 0;
#X restore 238 101 pd berelay-sum;
#N canvas 1002 117 806 725 berelay-presets 0;
#N canvas 0 22 450 278 (subpatch) 0;
#X array presets 10 float 3;
#A 0 0 0.0408163 0.0204082 0.102041 1 1 0.0816327 0.326531 0.510204
0.918367;
#X coords 0 1 10 0 229 231 1 0 0;
#X restore 38 29 graph;
#X obj 374 129 array get presets;
#X obj 43 272 r berelay-presets;
#X obj 311 35 text define -k berelay-presets-text;
#A set 0.12 0.28 0.75 1 0.83 0.99 0.1 0.2 0.8 1 \; 0.930728 0.982676
0.125548 0.974023 0.333338 0.385285 0.1 0.2 0.8 1 \; 0.359307 0.982676
0.94372 0.974023 0.891775 0.969697 0.1 0.2 0.8 1 \; 0.974026 0.991342
0.974026 0.991342 0.0129873 0.0822517 0.1 0.2 0.8 1 \; 0.974026 0.991342
0.974026 0.991342 0.978355 0.995671 0.1 0.2 0.8 1 \; 0.00865829 0.0303031
0.00865811 0.0346321 0.978355 0.995671 0.1 0.2 0.8 1 \; 0.00865829
0.0303031 0.835498 0.857143 0.142864 0.995671 0.1 0.2 0.8 1 \; 0.463204
0.506494 0.835498 0.857143 0.160178 0.324678 0.1 0.2 0.8 1 \; 0 0.0408163
0.0204082 0.102041 1 1 0.0816327 0.326531 0.510204 0.918367 \; 0.244898
0.326531 0.142857 0.285714 1 1 0.44898 0.55102 0.755102 0.918367 \;
0 0 0.612245 0.938776 1 1 0.673469 0.77551 1 1 \;;
#X obj 373 155 t a b;
#X obj 372 211 text set berelay-presets-text;
#X msg 436 168 1.11111e+17;
#X obj 47 303 text get berelay-presets-text;
#X msg 186 269 1;
#X msg 46 561 lopass \, hipass \, pre-del \, fb-time \, fb-amount;
#X obj 46 585 symbol;
#X obj 46 609 makefilename %s-go-set;
#X obj 46 633 t b a;
#X obj 46 657 s;
#X obj 48 336 t b a;
#X msg 83 374 \; pre-del-preset-min-set \$1 \; pre-del-preset-max-set
\$2 \; fb-time-preset-min-set \$3 \; fb-time-preset-max-set \$4 \;
fb-amount-preset-min-set \$5 \; fb-amount-preset-max-set \$6 \; hipass-preset-min-set
\$7 \; hipass-preset-max-set \$8 \; lopass-preset-min-set \$9 \; lopass-preset-max-set
\$10 \;;
#X obj 331 68 r store;
#X obj 405 354 r pre-del;
#X obj 408 401 r fb-time;
#X obj 406 450 r fb-amount;
#X obj 406 499 r hipass;
#X obj 403 546 r lopass;
#X obj 355 236 text size berelay-presets-text;
#X obj 405 378 array set presets 0 2;
#X obj 408 425 array set presets 2 2;
#X obj 406 474 array set presets 4 2;
#X obj 406 523 array set presets 6 2;
#X obj 403 570 array set presets 8 2;
#X obj 342 99 t b b;
#X msg 355 260 \; berelay-presets-set number \$1 \, set \$1;
#X connect 1 0 4 0;
#X connect 2 0 7 0;
#X connect 4 0 5 0;
#X connect 4 1 6 0;
#X connect 6 0 5 1;
#X connect 7 0 14 0;
#X connect 8 0 7 0;
#X connect 9 0 10 0;
#X connect 10 0 11 0;
#X connect 11 0 12 0;
#X connect 12 0 13 0;
#X connect 12 1 13 1;
#X connect 14 0 9 0;
#X connect 14 1 15 0;
#X connect 16 0 28 0;
#X connect 17 0 23 0;
#X connect 18 0 24 0;
#X connect 19 0 25 0;
#X connect 20 0 26 0;
#X connect 21 0 27 0;
#X connect 22 0 29 0;
#X connect 28 0 22 0;
#X connect 28 1 1 0;
#X restore 238 126 pd berelay-presets;
#N canvas 1222 128 568 751 update_all 0;
#X msg 32 47 7;
#X obj 34 73 _iterate;
#X obj 193 229 text get cakewalks;
#X obj 34 97 t f f f, f 13;
#X obj 70 174 symbol;
#X obj 194 201 f;
#X obj 303 572 array set;
#X obj 191 288 t b f;
#X obj 63 123 + 1;
#X obj 192 258 _iterate;
#X obj 32 462 + 1;
#X obj 250 465 fd_gauss 4 0.5;
#X obj 70 197 t a b a;
#X obj 191 312 _crand 0 1;
#X msg 73 405 \; \$1 normalize 1;
#X msg 32 485 \; clear_berelays-set bang \; update-\$1 bang;
#X obj 203 384 list prepend 0;
#X obj 203 408 route 0 1;
#X obj 360 40 r randomize;
#X obj 376 65 t b b;
#X msg 410 90 0;
#X obj 267 24 r gaussian;
#X obj 285 60 t b b;
#X msg 413 117 1;
#X obj 392 152 t a;
#X msg 70 151 pre-del-\$1 \, fb-time-\$1 \, fb-amount-\$1 \, lopass-\$1
\, hipass-\$1;
#X connect 0 0 1 0;
#X connect 1 0 3 0;
#X connect 2 0 9 0;
#X connect 3 0 10 0;
#X connect 3 1 8 0;
#X connect 3 2 5 1;
#X connect 4 0 12 0;
#X connect 5 0 2 0;
#X connect 7 0 13 0;
#X connect 7 1 6 1;
#X connect 8 0 25 0;
#X connect 9 0 7 0;
#X connect 10 0 15 0;
#X connect 11 0 6 0;
#X connect 12 0 14 0;
#X connect 12 1 5 0;
#X connect 12 2 6 2;
#X connect 13 0 16 0;
#X connect 16 0 17 0;
#X connect 17 0 6 0;
#X connect 17 1 11 0;
#X connect 18 0 19 0;
#X connect 19 0 0 0;
#X connect 19 1 20 0;
#X connect 20 0 24 0;
#X connect 21 0 22 0;
#X connect 22 0 0 0;
#X connect 22 1 23 0;
#X connect 23 0 24 0;
#X connect 24 0 16 1;
#X connect 25 0 4 0;
#X restore 237 53 pd update_all;
#N canvas 0 22 450 300 global 0;
#X obj 208 115 r g_hipass;
#X obj 63 151 mtof;
#X obj 63 175 s berelays-lop;
#X obj 207 141 mtof;
#X obj 207 165 s berelays-hip;
#X floatatom 248 141 0 0 0 0 - - -;
#X floatatom 98 151 0 0 0 0 - - -;
#X obj 62 123 r g_lopass;
#X connect 0 0 3 0;
#X connect 1 0 2 0;
#X connect 1 0 6 0;
#X connect 3 0 4 0;
#X connect 3 0 5 0;
#X connect 7 0 1 0;
#X restore 239 152 pd global;
#X restore 15 244 pd berelays;
#N canvas 0 22 450 300 input 0;
#X obj 224 226 s~ clean;
#X obj 224 199 catch~ input;
#N canvas 0 22 450 300 live 0;
#X obj 49 9 adc~ 1;
#X obj 49 227 *~;
#X obj 269 49 r live;
#X obj 49 123 *~;
#X obj 86 80 pack f 10;
#X obj 86 104 line~;
#X obj 86 33 r live-gain;
#X obj 269 73 _switch;
#X obj 315 165 switch~;
#X obj 49 251 throw~ input;
#X obj 196 176 env~;
#X obj 196 200 - 101;
#X obj 243 199 - 101;
#X obj 196 224 pack;
#X obj 196 248 s live-vu;
#X obj 86 57 dbtorms;
#X obj 243 175 env~ 8192;
#X connect 0 0 3 0;
#X connect 1 0 9 0;
#X connect 2 0 7 0;
#X connect 3 0 1 0;
#X connect 3 0 10 0;
#X connect 3 0 16 0;
#X connect 4 0 5 0;
#X connect 5 0 3 1;
#X connect 6 0 15 0;
#X connect 7 0 1 1;
#X connect 7 1 8 0;
#X connect 10 0 11 0;
#X connect 11 0 13 0;
#X connect 12 0 13 1;
#X connect 13 0 14 0;
#X connect 15 0 4 0;
#X connect 16 0 12 0;
#X restore 30 34 pd live;
#N canvas 546 396 409 543 playback 0;
#X obj 42 80 tabplay~ bere_clean;
#X obj 42 22 r bere_playback;
#X obj 197 81 s end-reached-set;
#X obj 42 393 *~;
#X obj 42 417 throw~ input;
#X obj 274 346 r playback;
#X obj 274 374 _switch;
#X obj 319 400 switch~;
#X obj 61 262 env~;
#X obj 61 286 - 101;
#X obj 108 285 - 101;
#X obj 61 310 pack;
#X obj 61 334 s playback-vu;
#X obj 76 108 r playback-gain;
#X obj 76 172 pack f 10;
#X obj 76 196 line~;
#X obj 42 216 *~;
#X obj 108 261 env~ 8192;
#X obj 76 140 dbtorms;
#X connect 0 0 16 0;
#X connect 0 1 2 0;
#X connect 1 0 0 0;
#X connect 3 0 4 0;
#X connect 5 0 6 0;
#X connect 6 0 3 1;
#X connect 6 1 7 0;
#X connect 8 0 9 0;
#X connect 9 0 11 0;
#X connect 10 0 11 1;
#X connect 11 0 12 0;
#X connect 13 0 18 0;
#X connect 14 0 15 0;
#X connect 15 0 16 1;
#X connect 16 0 3 0;
#X connect 16 0 8 0;
#X connect 16 0 17 0;
#X connect 17 0 10 0;
#X connect 18 0 14 0;
#X restore 31 57 pd playback;
#N canvas 0 22 720 513 live-playback-controls 0;
#X obj 48 49 r live;
#X obj 235 82 sel 1;
#X obj 48 73 sel 1;
#X obj 235 58 r playback;
#X obj 40 127 t b b;
#X obj 234 133 t b b;
#X msg 313 353 \; live-set 0 \; live-canvas-set color 10 0 2 \; playback-canvas-set
color 6 0 22;
#X msg 33 343 \; playback-set 0 \; playback-canvas-set color 10 0 2
\; live-canvas-set color 6 0 22;
#X msg 56 215 \; playback-vu -101 -101 \; playback-canvas-set color
10 0 2 \;;
#X msg 346 204 \; live-vu -101 -101 \; live-canvas-set color 10 0 2
\;;
#X connect 0 0 2 0;
#X connect 1 0 5 0;
#X connect 1 1 8 0;
#X connect 2 0 4 0;
#X connect 2 1 9 0;
#X connect 3 0 1 0;
#X connect 4 0 7 0;
#X connect 4 1 8 0;
#X connect 5 0 6 0;
#X connect 5 1 9 0;
#X restore 215 77 pd live-playback-controls;
#N canvas 0 22 450 300 loop-controls 0;
#X obj 133 115 spigot 1;
#X obj 186 92 r loop;
#X obj 133 67 r end-reached;
#X obj 133 139 s bere_playback;
#X connect 0 0 3 0;
#X connect 1 0 0 1;
#X connect 2 0 0 0;
#X restore 214 30 pd loop-controls;
#N canvas 0 22 450 300 playback-start-controls 0;
#X obj 37 28 r playback-start;
#X obj 37 52 s bere_playback;
#X obj 40 95 r playback-stop;
#X msg 40 119 stop;
#X obj 40 143 s bere_playback;
#X connect 0 0 1 0;
#X connect 2 0 3 0;
#X connect 3 0 4 0;
#X restore 214 54 pd playback-start-controls;
#X connect 1 0 0 0;
#X restore 14 73 pd input;
#N canvas 0 22 450 300 rec 0;
#N canvas 452 50 450 300 rec-1 0;
#X obj 20 10 catch~ rec-1;
#X obj 50 40 catch~ rec-2;
#X obj 80 70 catch~ rec-3;
#X obj 110 100 catch~ rec-4;
#X obj 140 130 catch~ rec-5;
#X obj 170 160 catch~ rec-6;
#X obj 200 190 catch~ rec-7;
#X obj 230 220 catch~ rec-8;
#X obj 260 250 catch~ rec-9;
#X obj 290 280 catch~ rec-10;
#X obj 320 310 catch~ rec-11;
#X obj 350 340 catch~ rec-12;
#X obj 380 20 catch~ rec-13;
#X obj 410 50 catch~ rec-14;
#X obj 440 80 catch~ rec-15;
#X obj 470 110 catch~ rec-16;
#X obj 500 140 catch~ rec-17;
#X obj 530 170 catch~ rec-18;
#X obj 560 200 catch~ rec-19;
#X obj 590 230 catch~ rec-20;
#X obj 620 260 catch~ rec-21;
#X obj 650 290 catch~ rec-22;
#X obj 680 320 catch~ rec-23;
#X obj 710 0 catch~ rec-24;
#X obj 740 30 catch~ rec-25;
#X obj 770 60 catch~ rec-26;
#X obj 800 90 catch~ rec-27;
#X obj 830 120 catch~ rec-28;
#X obj 860 150 catch~ rec-29;
#X obj 890 180 catch~ rec-30;
#X obj 920 210 catch~ rec-31;
#X obj 950 240 catch~ rec-32;
#X obj 980 270 catch~ rec-33;
#X obj 1010 300 catch~ rec-34;
#X obj 1040 330 catch~ rec-35;
#X obj 1070 10 catch~ rec-36;
#X obj 1100 40 catch~ rec-37;
#X obj 1130 70 catch~ rec-38;
#X obj 1160 100 catch~ rec-39;
#X obj 1190 130 catch~ rec-40;
#X obj 1220 160 catch~ rec-41;
#X obj 1250 190 catch~ rec-42;
#X obj 1280 220 catch~ rec-43;
#X obj 1310 250 catch~ rec-44;
#X obj 1340 280 catch~ rec-45;
#X obj 1370 310 catch~ rec-46;
#X obj 1400 340 catch~ rec-47;
#X obj 1430 20 catch~ rec-48;
#X obj 1460 50 catch~ rec-49;
#X obj 1490 80 catch~ rec-50;
#X obj 1520 110 catch~ rec-51;
#X obj 1550 140 catch~ rec-52;
#X obj 1580 170 catch~ rec-53;
#X obj 1610 200 catch~ rec-54;
#X obj 1640 230 catch~ rec-55;
#X obj 1670 260 catch~ rec-56;
#X obj 1700 290 catch~ rec-57;
#X obj 1730 320 catch~ rec-58;
#X obj 1760 0 catch~ rec-59;
#X obj 1790 30 catch~ rec-60;
#X obj 1820 60 catch~ rec-61;
#X obj 1850 90 catch~ rec-62;
#X obj 1880 120 catch~ rec-63;
#X obj 1910 150 catch~ rec-64;
#X obj 10 400 r rec-1;
#X obj 10 430 writesf~ 64;
#X obj 153 14 env~;
#X floatatom 153 38 5 0 0 0 - - -;
#X connect 0 0 65 0;
#X connect 0 0 66 0;
#X connect 1 0 65 1;
#X connect 2 0 65 2;
#X connect 3 0 65 3;
#X connect 4 0 65 4;
#X connect 5 0 65 5;
#X connect 6 0 65 6;
#X connect 7 0 65 7;
#X connect 8 0 65 8;
#X connect 9 0 65 9;
#X connect 10 0 65 10;
#X connect 11 0 65 11;
#X connect 12 0 65 12;
#X connect 13 0 65 13;
#X connect 14 0 65 14;
#X connect 15 0 65 15;
#X connect 16 0 65 16;
#X connect 17 0 65 17;
#X connect 18 0 65 18;
#X connect 19 0 65 19;
#X connect 20 0 65 20;
#X connect 21 0 65 21;
#X connect 22 0 65 22;
#X connect 23 0 65 23;
#X connect 24 0 65 24;
#X connect 25 0 65 25;
#X connect 26 0 65 26;
#X connect 27 0 65 27;
#X connect 28 0 65 28;
#X connect 29 0 65 29;
#X connect 30 0 65 30;
#X connect 31 0 65 31;
#X connect 32 0 65 32;
#X connect 33 0 65 33;
#X connect 34 0 65 34;
#X connect 35 0 65 35;
#X connect 36 0 65 36;
#X connect 37 0 65 37;
#X connect 38 0 65 38;
#X connect 39 0 65 39;
#X connect 40 0 65 40;
#X connect 41 0 65 41;
#X connect 42 0 65 42;
#X connect 43 0 65 43;
#X connect 44 0 65 44;
#X connect 45 0 65 45;
#X connect 46 0 65 46;
#X connect 47 0 65 47;
#X connect 48 0 65 48;
#X connect 49 0 65 49;
#X connect 50 0 65 50;
#X connect 51 0 65 51;
#X connect 52 0 65 52;
#X connect 53 0 65 53;
#X connect 54 0 65 54;
#X connect 55 0 65 55;
#X connect 56 0 65 56;
#X connect 57 0 65 57;
#X connect 58 0 65 58;
#X connect 59 0 65 59;
#X connect 60 0 65 60;
#X connect 61 0 65 61;
#X connect 62 0 65 62;
#X connect 63 0 65 63;
#X connect 64 0 65 0;
#X connect 66 0 67 0;
#X restore 10 10 pd rec-1;
#N canvas 0 22 450 300 rec-2 0;
#X obj 20 10 catch~ rec-65;
#X obj 50 40 catch~ rec-66;
#X obj 80 70 catch~ rec-67;
#X obj 110 100 catch~ rec-68;
#X obj 140 130 catch~ rec-69;
#X obj 170 160 catch~ rec-70;
#X obj 200 190 catch~ rec-71;
#X obj 230 220 catch~ rec-72;
#X obj 260 250 catch~ rec-73;
#X obj 290 280 catch~ rec-74;
#X obj 320 310 catch~ rec-75;
#X obj 350 340 catch~ rec-76;
#X obj 380 20 catch~ rec-77;
#X obj 410 50 catch~ rec-78;
#X obj 440 80 catch~ rec-79;
#X obj 470 110 catch~ rec-80;
#X obj 500 140 catch~ rec-81;
#X obj 530 170 catch~ rec-82;
#X obj 560 200 catch~ rec-83;
#X obj 590 230 catch~ rec-84;
#X obj 10 400 r rec-2;
#X obj 10 430 writesf~ 20;
#X connect 0 0 21 0;
#X connect 1 0 21 1;
#X connect 2 0 21 2;
#X connect 3 0 21 3;
#X connect 4 0 21 4;
#X connect 5 0 21 5;
#X connect 6 0 21 6;
#X connect 7 0 21 7;
#X connect 8 0 21 8;
#X connect 9 0 21 9;
#X connect 10 0 21 10;
#X connect 11 0 21 11;
#X connect 12 0 21 12;
#X connect 13 0 21 13;
#X connect 14 0 21 14;
#X connect 15 0 21 15;
#X connect 16 0 21 16;
#X connect 17 0 21 17;
#X connect 18 0 21 18;
#X connect 19 0 21 19;
#X connect 20 0 21 0;
#X restore 10 40 pd rec-2;
#N canvas 0 22 450 300 rec-3 0;
#X obj 20 10 catch~ rec-85;
#X obj 50 40 catch~ rec-86;
#X obj 80 70 catch~ rec-87;
#X obj 110 100 catch~ rec-88;
#X obj 140 130 catch~ rec-89;
#X obj 170 160 catch~ rec-90;
#X obj 200 190 catch~ rec-91;
#X obj 230 220 catch~ rec-92;
#X obj 260 250 catch~ rec-93;
#X obj 290 280 catch~ rec-94;
#X obj 320 310 catch~ rec-95;
#X obj 350 340 catch~ rec-96;
#X obj 380 20 catch~ rec-97;
#X obj 410 50 catch~ rec-98;
#X obj 440 80 catch~ rec-99;
#X obj 470 110 catch~ rec-100;
#X obj 500 140 catch~ rec-101;
#X obj 530 170 catch~ rec-102;
#X obj 560 200 catch~ rec-103;
#X obj 590 230 catch~ rec-104;
#X obj 10 400 r rec-3;
#X obj 10 430 writesf~ 20;
#X connect 0 0 21 0;
#X connect 1 0 21 1;
#X connect 2 0 21 2;
#X connect 3 0 21 3;
#X connect 4 0 21 4;
#X connect 5 0 21 5;
#X connect 6 0 21 6;
#X connect 7 0 21 7;
#X connect 8 0 21 8;
#X connect 9 0 21 9;
#X connect 10 0 21 10;
#X connect 11 0 21 11;
#X connect 12 0 21 12;
#X connect 13 0 21 13;
#X connect 14 0 21 14;
#X connect 15 0 21 15;
#X connect 16 0 21 16;
#X connect 17 0 21 17;
#X connect 18 0 21 18;
#X connect 19 0 21 19;
#X connect 20 0 21 0;
#X restore 10 70 pd rec-3;
#N canvas 0 22 450 300 rec-4 0;
#X obj 20 10 catch~ rec-105;
#X obj 50 40 catch~ rec-106;
#X obj 80 70 catch~ rec-107;
#X obj 110 100 catch~ rec-108;
#X obj 140 130 catch~ rec-109;
#X obj 170 160 catch~ rec-110;
#X obj 200 190 catch~ rec-111;
#X obj 230 220 catch~ rec-112;
#X obj 260 250 catch~ rec-113;
#X obj 290 280 catch~ rec-114;
#X obj 320 310 catch~ rec-115;
#X obj 350 340 catch~ rec-116;
#X obj 380 20 catch~ rec-117;
#X obj 410 50 catch~ rec-118;
#X obj 440 80 catch~ rec-119;
#X obj 470 110 catch~ rec-120;
#X obj 500 140 catch~ rec-121;
#X obj 530 170 catch~ rec-122;
#X obj 560 200 catch~ rec-123;
#X obj 590 230 catch~ rec-124;
#X obj 10 400 r rec-4;
#X obj 10 430 writesf~ 20;
#X connect 0 0 21 0;
#X connect 1 0 21 1;
#X connect 2 0 21 2;
#X connect 3 0 21 3;
#X connect 4 0 21 4;
#X connect 5 0 21 5;
#X connect 6 0 21 6;
#X connect 7 0 21 7;
#X connect 8 0 21 8;
#X connect 9 0 21 9;
#X connect 10 0 21 10;
#X connect 11 0 21 11;
#X connect 12 0 21 12;
#X connect 13 0 21 13;
#X connect 14 0 21 14;
#X connect 15 0 21 15;
#X connect 16 0 21 16;
#X connect 17 0 21 17;
#X connect 18 0 21 18;
#X connect 19 0 21 19;
#X connect 20 0 21 0;
#X restore 10 100 pd rec-4;
#N canvas 0 22 450 300 rec-5 0;
#X obj 20 10 catch~ rec-125;
#X obj 50 40 catch~ rec-126;
#X obj 80 70 catch~ rec-127;
#X obj 110 100 catch~ rec-128;
#X obj 10 400 r rec-5;
#X obj 10 430 writesf~ 4;
#X connect 0 0 5 0;
#X connect 1 0 5 1;
#X connect 2 0 5 2;
#X connect 3 0 5 3;
#X connect 4 0 5 0;
#X restore 10 130 pd rec-5;
#N canvas 0 22 450 300 rec-6 0;
#X obj 20 10 catch~ rec-129;
#X obj 50 40 catch~ rec-130;
#X obj 80 70 catch~ rec-131;
#X obj 110 100 catch~ rec-132;
#X obj 140 130 catch~ rec-133;
#X obj 170 160 catch~ rec-134;
#X obj 200 190 catch~ rec-135;
#X obj 230 220 catch~ rec-136;
#X obj 260 250 catch~ rec-137;
#X obj 290 280 catch~ rec-138;
#X obj 10 400 r rec-6;
#X obj 10 430 writesf~ 10;
#X connect 0 0 11 0;
#X connect 1 0 11 1;
#X connect 2 0 11 2;
#X connect 3 0 11 3;
#X connect 4 0 11 4;
#X connect 5 0 11 5;
#X connect 6 0 11 6;
#X connect 7 0 11 7;
#X connect 8 0 11 8;
#X connect 9 0 11 9;
#X connect 10 0 11 0;
#X restore 10 160 pd rec-6;
#N canvas 0 22 450 300 rec-7 0;
#X obj 20 10 catch~ rec-139;
#X obj 50 40 catch~ rec-140;
#X obj 10 400 r rec-7;
#X obj 10 430 writesf~ 2;
#X connect 0 0 3 0;
#X connect 1 0 3 1;
#X connect 2 0 3 0;
#X restore 10 190 pd rec-7;
#X restore 15 177 pd rec;
#N canvas 0 22 614 300 setup 0;
#X obj 109 108 symbol;
#X obj 35 49 r setup;
#X obj 35 79 route float;
#X msg 35 157 \; pd-dac clear \, obj 10 10 _dac-\$1 \, vis 1 \, loadbang
\, editmode 0;
#X connect 0 0 3 0;
#X connect 1 0 2 0;
#X connect 2 0 3 0;
#X connect 2 1 0 0;
#X restore 15 98 pd setup;
#N canvas 0 22 450 300 quit 0;
#X obj 69 68 r end-reached;
#X obj 69 92 spigot;
#X obj 144 27 r quit;
#X msg 176 234 \; pd quit;
#X obj 253 36 r berelay-vu;
#X msg 69 116 1;
#X obj 207 115 spigot;
#X obj 178 180 delay 1000;
#X msg 286 133 0;
#X obj 176 210 t b b;
#X obj 206 142 t b b;
#X msg 291 239 \; stereo-rec stop \; rec stop;
#X floatatom 269 106 5 0 0 0 - - -;
#X floatatom 321 104 5 0 0 0 - - -;
#X obj 242 78 moses -80;
#X connect 0 0 1 0;
#X connect 1 0 5 0;
#X connect 2 0 1 1;
#X connect 4 0 14 0;
#X connect 5 0 6 1;
#X connect 6 0 10 0;
#X connect 7 0 9 0;
#X connect 8 0 6 1;
#X connect 9 0 3 0;
#X connect 9 1 11 0;
#X connect 10 0 7 0;
#X connect 10 1 8 0;
#X connect 14 0 6 0;
#X connect 14 0 12 0;
#X connect 14 1 13 0;
#X restore 17 268 pd quit;
#N canvas 0 22 450 300 stereo-rec 0;
#X obj 167 56 catch~ stereo-rec-1;
#X obj 222 82 catch~ stereo-rec-2;
#X obj 101 147 writesf~ 2;
#X obj 19 85 r stereo-rec;
#X connect 0 0 2 0;
#X connect 1 0 2 1;
#X connect 3 0 2 0;
#X restore 15 199 pd stereo-rec;
#N canvas 521 26 450 512 init 0;
#X obj 20 20 declare -path ./lib -path ../rec -path ../txt;
#X obj 29 62 loadbang;
#X msg 29 86 \; pd dsp 1 \; pd-controls vis 1 \; pd-dac vis 1 \;;
#X obj 51 253 r rec;
#X obj 165 298 t b a;
#X msg 163 341 7;
#X obj 52 284 route stop;
#X obj 163 365 _iterate;
#X obj 163 389 + 1;
#X obj 163 413 list;
#X obj 210 324 symbol;
#X msg 46 329 7;
#X obj 46 353 _iterate;
#X obj 46 377 + 1;
#X obj 46 401 list;
#X msg 162 437 \; rec-\$1 open ../rec/\$2-\$1.wav \, start;
#X msg 46 425 \; rec-\$1 stop;
#X obj 214 66 r init-playback;
#X obj 212 92 symbol;
#X msg 212 118 \; setup \$1 \; playback-set 1 \; open-file-set bang
\; playback-gain-set 60 \; berelays-set 1 \; berelay-vol-set 100 \;
berelay-presets-set 8 \; vol-set 100 \; playback-start-set bang \;
loop-set 0 \; quit 1 \;;
#X connect 1 0 2 0;
#X connect 3 0 6 0;
#X connect 4 0 5 0;
#X connect 4 1 10 0;
#X connect 5 0 7 0;
#X connect 6 0 11 0;
#X connect 6 1 4 0;
#X connect 7 0 8 0;
#X connect 8 0 9 0;
#X connect 9 0 15 0;
#X connect 10 0 9 1;
#X connect 11 0 12 0;
#X connect 12 0 13 0;
#X connect 13 0 14 0;
#X connect 14 0 16 0;
#X connect 17 0 18 0;
#X connect 18 0 19 0;
#X restore 14 22 pd init;
