#N canvas 0 63 1136 704 12;
#X obj 109 115 hsl 50 15 0 1 0 0 \$1-preset-min \$1-preset-min-set
\$1-min -2 -8 0 10 -262144 -1 -1 42 1;
#X obj 110 145 hsl 50 15 0 1 0 0 \$1-preset-max \$1-preset-max-set
\$1-max -2 -8 0 10 -262144 -1 -1 148 1;
#X obj 105 169 bng 15 250 50 0 \$1-go \$1-go-set \$1-go 17 7 0 10 -262144
-1 -1;
#X obj 311 160 _iterate;
#X obj 348 368 text get cakewalks;
#X obj 311 184 t f f f, f 13;
#X obj 349 340 f;
#X obj 348 316 t b a;
#X obj 407 530 array set;
#X obj 346 427 t b f;
#X obj 340 210 + 1;
#X obj 347 397 _iterate;
#X obj 318 537 + 1;
#X obj 346 468 _crand 0 1;
#X obj 408 106 list;
#X msg 414 183 set \$1 \$2;
#X msg 318 560 \; clear_berelays-set bang \; update-\$1 bang;
#X obj 328 14 r \$1-go;
#X obj 425 67 r \$1-set;
#X msg 354 270 symbol \$2-\$1;
#X obj 700 195 pack;
#X obj 762 104 t b f;
#X obj 644 62 r \$1-preset-min;
#X obj 765 75 r \$1-preset-max;
#X obj 700 219 s \$1-set;
#X obj 342 235 list append \$1;
#X obj 426 142 s \$1;
#X obj 166 20 r make-rec;
#X obj 166 44 list split 3;
#X obj 290 132 f;
#X msg 498 116 \; clear_berelays-set bang \;;
#X obj 339 49 t b b b;
#X connect 3 0 5 0;
#X connect 4 0 11 0;
#X connect 5 0 12 0;
#X connect 5 1 10 0;
#X connect 5 2 6 1;
#X connect 6 0 4 0;
#X connect 7 0 6 0;
#X connect 7 1 8 2;
#X connect 9 0 13 0;
#X connect 9 1 8 1;
#X connect 10 0 25 0;
#X connect 11 0 9 0;
#X connect 12 0 16 0;
#X connect 13 0 8 0;
#X connect 14 0 15 0;
#X connect 14 0 26 0;
#X connect 15 0 13 0;
#X connect 17 0 31 0;
#X connect 18 0 14 1;
#X connect 19 0 7 0;
#X connect 20 0 24 0;
#X connect 21 0 20 0;
#X connect 21 1 20 1;
#X connect 22 0 20 0;
#X connect 23 0 21 0;
#X connect 25 0 19 0;
#X connect 27 0 28 0;
#X connect 28 1 29 1;
#X connect 29 0 3 0;
#X connect 31 0 29 0;
#X connect 31 1 14 0;
#X connect 31 2 30 0;
#X coords 0 -1 1 1 96 90 2 100 100;
