#N canvas 294 81 450 300 12;
#X obj 40 38 inlet~;
#X obj 138 38 inlet;
#X obj 170 182 vbap, f 16;
#X obj 253 70 list trim;
#X obj 253 44 text get matrices;
#X floatatom 144 114 5 0 0 0 - - -;
#X obj 144 139 t b f;
#X floatatom 189 112 5 0 0 0 - - -;
#X obj 189 137 t b f;
#X floatatom 234 112 5 0 0 0 - - -;
#X obj 234 137 t b f;
#X obj 254 16 r update_matrices;
#X obj 138 64 unpack f f f;
#X obj 47 226 clone _vbap-out \$1 \$2;
#X connect 0 0 13 0;
#X connect 1 0 12 0;
#X connect 2 0 13 1;
#X connect 3 0 2 0;
#X connect 4 0 3 0;
#X connect 5 0 6 0;
#X connect 6 0 2 0;
#X connect 6 1 2 1;
#X connect 7 0 8 0;
#X connect 8 0 2 0;
#X connect 8 1 2 2;
#X connect 9 0 10 0;
#X connect 10 0 2 0;
#X connect 10 1 2 3;
#X connect 11 0 4 0;
#X connect 12 0 6 0;
#X connect 12 1 8 0;
#X connect 12 2 10 0;
