#N canvas 530 50 450 300 12;
#X declare -path ./lib -path ../rec -path ../txt;
#N canvas 0 20 450 300 declare 0;
#X obj 20 20 declare -path ./lib -path ../rec -path ../txt;
#X obj 29 62 loadbang;
#X msg 29 86 \; pd-controls vis 1 \; pd-vol vis 1 \;;
#X connect 1 0 2 0;
#X restore 14 22 pd declare;
#X text 200 20 "berelay";
#N canvas 0 22 501 360 samples 0;
#X obj 29 312 soundfiler;
#X msg 245 136 resize 100 \, const 0;
#X msg 29 15 clean;
#X msg 41 44 L;
#X msg 50 67 R;
#X obj 29 241 makefilename ../rec/%s.wav;
#X obj 29 194 makefilename bere_%s;
#X msg 29 288 read -resize \$1 \$2;
#X obj 29 265 pack s s;
#X obj 29 218 t a a;
#X text 80 18 <-- guitarra sin delays;
#X text 83 43 <-- guitarra delays left;
#X text 86 69 <-- guitarra delays right;
#X obj 29 169 symbol;
#X obj 245 174 array define bere_guitarra_L;
#X obj 245 198 array define bere_guitarra_R;
#X obj 244 223 array define bere_clean;
#X obj 41 95 symbol;
#X obj 41 122 makefilename guitarra_%s;
#X connect 1 0 14 0;
#X connect 1 0 15 0;
#X connect 1 0 16 0;
#X connect 2 0 13 0;
#X connect 3 0 17 0;
#X connect 4 0 17 0;
#X connect 5 0 8 0;
#X connect 6 0 9 0;
#X connect 7 0 0 0;
#X connect 8 0 7 0;
#X connect 9 0 5 0;
#X connect 9 1 8 1;
#X connect 13 0 6 0;
#X connect 17 0 18 0;
#X connect 18 0 13 0;
#X restore 14 48 pd samples;
#N canvas 986 47 128 215 vol 1;
#X obj 26 27 vsl 30 128 0 127 0 0 vol vol-set vol 0 -9 0 10 -262144
-1 -1 8800 1;
#X obj 63 36 vu 15 120 vu empty -1 -8 0 10 -66577 -1 1 0;
#X obj 28 178 nbx 5 14 -1e+37 1e+37 0 0 empty vol dB 0 -8 0 10 -262144
-1 -1 0 256;
#X restore 339 43 pd vol;
#N canvas 211 47 453 284 dac 0;
#X obj 32 59 env~;
#X obj 32 83 - 100;
#X obj 32 107 s vu;
#X obj 32 31 clone _dacout 140 vol 6 rec;
#X connect 0 0 1 0;
#X connect 1 0 2 0;
#X connect 3 0 0 0;
#X restore 14 73 pd dac;
#N canvas 462 163 983 855 delays 0;
#N canvas 1499 67 304 694 dels 0;
#X obj 10 10 del-water 0.0872732 0.01 32.1201 10;
#X obj 10 35 del-water 0.0373271 0.0627601 35.5571 35;
#X obj 10 60 del-water 0.01 0.167216 38.4643 60;
#X obj 10 85 del-water 0.01 0.305713 40.5592 85;
#X obj 10 110 del-water 0.0202689 0.464292 41.6835 110;
#X obj 10 135 del-water 0.0671288 0.626036 41.8419 135;
#X obj 10 160 del-water 0.137182 0.775456 41.1821 160;
#X obj 10 185 del-water 0.224648 0.901897 39.9329 185;
#X obj 10 210 del-water 0.322619 0.01 38.3331 210;
#X obj 10 235 del-water 0.424357 0.0723141 36.5819 235;
#X obj 10 260 del-water 0.524216 0.120396 34.8189 260;
#X obj 10 285 del-water 0.61808 0.149949 33.1264 285;
#X obj 10 310 del-water 0.703387 0.16601 31.5437 310;
#X obj 10 335 del-water 0.778899 0.172954 30.0818 335;
#X obj 10 360 del-water 0.844381 0.174261 28.7366 360;
#X obj 10 385 del-water 0.900286 0.172531 27.4971 385;
#X obj 10 410 del-water 0.947481 0.169625 26.3506 410;
#X obj 10 435 del-water 0.987054 0.166824 25.2853 435;
#X obj 10 460 del-water 0.020168 0.164981 24.2913 460;
#X obj 10 485 del-water 0.0479703 0.164648 23.361 485;
#X obj 10 510 del-water 0.0715401 0.166175 22.4887 510;
#X obj 10 535 del-water 0.0918597 0.169778 21.6708 535;
#X obj 10 560 del-water 0.109805 0.1756 20.9049 560;
#X obj 10 585 del-water 0.126146 0.183743 20.19 585;
#X obj 10 610 del-water 0.141557 0.1943 19.5263 610;
#X obj 10 635 del-water 0.15663 0.207367 18.9152 635;
#X obj 10 660 del-water 0.171883 0.223059 18.3593 660;
#X obj 10 685 del-water 0.18778 0.241512 17.8622 685;
#X obj 10 710 del-water 0.204741 0.262883 17.4294 710;
#X obj 10 735 del-water 0.223151 0.287344 17.0678 735;
#X obj 10 760 del-water 0.24337 0.31507 16.7864 760;
#X obj 10 785 del-water 0.265737 0.346226 16.5964 785;
#X obj 10 810 del-water 0.29057 0.380932 16.5118 810;
#X obj 10 835 del-water 0.318164 0.419231 16.5494 835;
#X obj 10 860 del-water 0.348775 0.461032 16.7289 860;
#X obj 10 885 del-water 0.382605 0.506044 17.073 885;
#X obj 10 910 del-water 0.419771 0.553685 17.6064 910;
#X obj 10 935 del-water 0.460264 0.602983 18.3546 935;
#X obj 10 960 del-water 0.503895 0.652463 19.341 960;
#X obj 10 985 del-water 0.550227 0.700046 20.5832 985;
#X obj 10 1010 del-water 0.5985 0.742997 22.087 1010;
#X obj 10 1035 del-water 0.647558 0.777959 23.8399 1035;
#X obj 10 1060 del-water 0.69579 0.801144 25.8036 1060;
#X obj 10 1085 del-water 0.741119 0.808728 27.9081 1085;
#X obj 10 1110 del-water 0.781066 0.797462 30.0514 1110;
#X obj 10 1135 del-water 0.812916 0.765419 32.1057 1135;
#X obj 10 1160 del-water 0.834001 0.712706 33.9321 1160;
#X obj 10 1185 del-water 0.842074 0.641865 35.4035 1185;
#X obj 10 1210 del-water 0.835698 0.557736 36.4266 1210;
#X obj 10 1235 del-water 0.81456 0.466719 36.9591 1235;
#X obj 10 1260 del-water 0.779584 0.375616 37.0131 1260;
#X obj 10 1285 del-water 0.732833 0.290447 36.6465 1285;
#X obj 10 1310 del-water 0.677179 0.215585 35.9447 1310;
#X obj 10 1335 del-water 0.615885 0.153432 35.0014 1335;
#X obj 10 1360 del-water 0.552172 0.104579 33.9036 1360;
#X obj 10 1385 del-water 0.488888 0.0682564 32.7221 1385;
#X obj 10 1410 del-water 0.428308 0.0428788 31.5093 1410;
#X obj 10 1435 del-water 0.372074 0.0265129 30.3005 1435;
#X obj 10 1460 del-water 0.321217 0.0172169 29.1175 1460;
#X obj 10 1485 del-water 0.276252 0.0132414 27.9719 1485;
#X obj 10 1510 del-water 0.237288 0.013123 26.8693 1510;
#X obj 10 1535 del-water 0.204147 0.0157056 25.8113 1535;
#X obj 10 1560 del-water 0.17646 0.0201206 24.7975 1560;
#X obj 10 1585 del-water 0.15375 0.0257478 23.8263 1585;
#X obj 10 1610 del-water 0.135499 0.0321714 22.896 1610;
#X obj 10 1635 del-water 0.121185 0.0391368 22.005 1635;
#X obj 10 1660 del-water 0.110321 0.0465135 21.1517 1660;
#X obj 10 1685 del-water 0.102464 0.0542654 20.3347 1685;
#X obj 10 1710 del-water 0.097234 0.0624262 19.5531 1710;
#X obj 10 1735 del-water 0.0943135 0.0710827 18.806 1735;
#X obj 10 1760 del-water 0.0934487 0.080362 18.0931 1760;
#X obj 10 1785 del-water 0.0944474 0.0904234 17.4141 1785;
#X obj 10 1810 del-water 0.0971764 0.101454 16.7691 1810;
#X obj 10 1835 del-water 0.101557 0.113666 16.1588 1835;
#X obj 10 1860 del-water 0.107563 0.127298 15.5841 1860;
#X obj 10 1885 del-water 0.115215 0.142614 15.0467 1885;
#X obj 10 1910 del-water 0.124581 0.159906 14.5491 1910;
#X obj 10 1935 del-water 0.135773 0.179499 14.0947 1935;
#X obj 10 1960 del-water 0.148947 0.201746 13.6881 1960;
#X obj 10 1985 del-water 0.164302 0.227035 13.3358 1985;
#X restore 42 47 pd dels;
#X msg 36 84 \; pd-dels clear \;;
#X obj 583 198 *~;
#X obj 215 778 delwrite~ line1 10000;
#X obj 211 628 *~;
#X obj 271 682 r~ clean;
#X obj 128 125 vsl 15 128 0 127 0 0 empty empty empty 0 -9 0 10 -262144
-1 -1 7900 1;
#X obj 126 264 dbtorms;
#X msg 126 290 all \$1;
#X obj 585 233 throw~ dacout-3;
#X obj 538 529 line~;
#X msg 539 508 \$1 10;
#X obj 542 308 vsl 15 128 0 127 0 0 empty empty empty 0 -9 0 10 -262144
-1 -1 7300 1;
#X obj 106 363 clone -s 1 _catchdel 5 L;
#X obj 310 353 clone -s 1 _catchdel 5 R;
#N canvas 262 112 450 555 del-create 0;
#X obj 35 32 r del-create;
#X msg 35 421 \; pd-dels obj 10 \$4 del-water \$1 \$2 \$3 \$4 \;;
#X obj 172 208 int 10;
#X obj 222 208 + 25;
#X msg 211 170 10;
#X obj 35 85 until;
#X obj 35 107 t b b;
#X obj 35 208 unpack f f f, f 14;
#X obj 35 169 spigot;
#X obj 35 140 _lorenz;
#X obj 35 248 _norm;
#X obj 82 248 _norm;
#N canvas 0 22 450 300 init 0;
#X obj 100 137 until;
#X msg 100 106 5000;
#X obj 77 6 inlet;
#X obj 100 223 outlet;
#X msg 185 137 reset \, h 0.015;
#X obj 309 64 outlet;
#X obj 100 71 t b b;
#X obj 77 31 t b b b;
#X msg 198 41 0;
#X msg 196 69 1;
#X connect 0 0 3 0;
#X connect 1 0 0 0;
#X connect 2 0 7 0;
#X connect 4 0 3 0;
#X connect 6 0 1 0;
#X connect 6 1 4 0;
#X connect 7 0 9 0;
#X connect 7 1 6 0;
#X connect 7 2 8 0;
#X connect 8 0 5 0;
#X connect 9 0 5 0;
#X restore 86 107 pd init;
#X obj 35 396 pack f f f f, f 20;
#X obj 81 285 wrap;
#X obj 35 285 wrap;
#X obj 35 57 t f b b b, f 22;
#X obj 302 229 t b b;
#X obj 35 310 clip 0.01 1;
#X obj 81 338 clip 0.01 1;
#X connect 0 0 16 0;
#X connect 2 0 3 0;
#X connect 2 0 13 3;
#X connect 3 0 2 1;
#X connect 4 0 2 1;
#X connect 5 0 6 0;
#X connect 6 0 9 0;
#X connect 6 1 2 0;
#X connect 7 0 10 0;
#X connect 7 1 11 0;
#X connect 7 2 13 2;
#X connect 8 0 7 0;
#X connect 9 0 8 0;
#X connect 10 0 15 0;
#X connect 11 0 14 0;
#X connect 12 0 9 0;
#X connect 12 1 8 1;
#X connect 13 0 1 0;
#X connect 14 0 19 0;
#X connect 15 0 18 0;
#X connect 16 0 5 0;
#X connect 16 1 12 0;
#X connect 16 2 4 0;
#X connect 16 3 17 0;
#X connect 17 0 10 1;
#X connect 17 1 11 1;
#X connect 18 0 13 0;
#X connect 19 0 13 1;
#X restore 44 23 pd del-create;
#X obj 542 468 clip 0 1;
#X obj 521 205 line~;
#X msg 521 178 \$1 10;
#X obj 518 10 vsl 15 128 0 127 0 0 empty empty empty 0 -9 0 10 -262144
-1 -1 9300 1;
#X obj 518 146 dbtorms;
#X obj 325 226 *~;
#X obj 810 441 line~;
#X msg 810 414 \$1 10;
#X obj 890 243 vsl 15 128 0 127 0 0 empty empty empty 0 -9 0 10 -262144
-1 -1 10900 1;
#X obj 807 382 dbtorms;
#X obj 754 465 *~;
#X obj 369 20 r~ clean;
#X obj 582 123 r~ clean;
#X obj 98 443 lop~ 20000;
#X obj 312 438 lop~ 20000;
#X obj 389 389 hsl 128 15 0 127 0 0 empty empty empty -2 -8 0 10 -262144
-1 -1 11300 1;
#X obj 386 409 mtof;
#X obj 140 391 hsl 128 15 0 127 0 0 empty empty empty -2 -8 0 10 -262144
-1 -1 10800 1;
#X obj 137 411 mtof;
#X obj 98 517 hip~ 300;
#X obj 317 509 hip~ 300;
#X obj 392 465 hsl 128 15 0 127 0 0 empty empty empty -2 -8 0 10 -262144
-1 -1 900 1;
#X obj 389 485 mtof;
#X obj 142 475 hsl 128 15 0 127 0 0 empty empty empty -2 -8 0 10 -262144
-1 -1 700 1;
#X obj 139 495 mtof;
#X obj 116 326 t a a;
#X obj 542 444 / 128;
#X msg 614 576 \; clear-dels clear;
#X obj 301 716 r clear-dels;
#X floatatom 202 278 5 0 0 0 - - -;
#X obj 368 103 rev3~ 100 80 3000 25;
#X obj 749 113 delwrite~ back-del 1000;
#X obj 321 264 throw~ dacout-1;
#X obj 448 227 *~;
#X obj 436 267 throw~ dacout-2;
#X obj 753 85 r~ clean;
#X obj 634 350 rev3~ 100 80 4000 25;
#X obj 659 468 *~;
#X obj 656 104 *~ 0.5;
#X obj 656 128 +~ 0.5;
#X floatatom 701 168 5 0 0 0 - - -;
#X floatatom 659 54 5 0 0 0 - - -;
#X obj 656 80 osc~ 0.25;
#X obj 628 163 *~ 0.3;
#X obj 765 528 throw~ dacout-6;
#X obj 646 532 throw~ dacout-5;
#X obj 738 390 *~ 0.1;
#X obj 712 300 delread4~ back-del 32;
#X obj 750 199 *~ 0.5;
#X obj 750 223 +~ 0.5;
#X floatatom 754 147 5 0 0 0 - - -;
#X floatatom 826 216 5 0 0 0 - - -;
#X floatatom 826 261 5 0 0 0 - - -;
#X obj 750 247 *~ 3;
#X obj 731 273 +~ 50;
#X obj 750 175 osc~ 0.8;
#X msg 163 22 \; pd-dels clear \; del-create 80 \; pd-del-water.pd
loadbang \; del-amount 0.894 \; dist-adjust 0.17 \;;
#X connect 2 0 9 0;
#X connect 4 0 3 0;
#X connect 5 0 3 0;
#X connect 6 0 7 0;
#X connect 7 0 8 0;
#X connect 7 0 45 0;
#X connect 8 0 41 0;
#X connect 10 0 4 1;
#X connect 11 0 10 0;
#X connect 12 0 42 0;
#X connect 13 0 29 0;
#X connect 14 0 30 0;
#X connect 16 0 11 0;
#X connect 17 0 21 1;
#X connect 17 0 49 1;
#X connect 18 0 17 0;
#X connect 19 0 20 0;
#X connect 20 0 18 0;
#X connect 21 0 48 0;
#X connect 22 0 26 1;
#X connect 22 0 53 1;
#X connect 23 0 22 0;
#X connect 24 0 25 0;
#X connect 25 0 23 0;
#X connect 26 0 60 0;
#X connect 27 0 49 0;
#X connect 27 0 21 0;
#X connect 27 0 46 0;
#X connect 28 0 2 0;
#X connect 29 0 35 0;
#X connect 30 0 36 0;
#X connect 31 0 32 0;
#X connect 32 0 30 1;
#X connect 33 0 34 0;
#X connect 34 0 29 1;
#X connect 35 0 4 0;
#X connect 36 0 4 0;
#X connect 37 0 38 0;
#X connect 38 0 36 1;
#X connect 39 0 40 0;
#X connect 40 0 35 1;
#X connect 41 0 13 0;
#X connect 41 1 14 0;
#X connect 42 0 16 0;
#X connect 44 0 3 0;
#X connect 46 0 21 0;
#X connect 46 0 2 0;
#X connect 46 1 49 0;
#X connect 46 1 2 0;
#X connect 49 0 50 0;
#X connect 51 0 47 0;
#X connect 52 0 53 0;
#X connect 52 1 26 0;
#X connect 53 0 61 0;
#X connect 54 0 55 0;
#X connect 55 0 59 0;
#X connect 56 0 59 1;
#X connect 57 0 58 0;
#X connect 58 0 54 0;
#X connect 59 0 2 1;
#X connect 62 0 53 0;
#X connect 62 0 26 0;
#X connect 63 0 52 0;
#X connect 63 0 62 0;
#X connect 64 0 65 0;
#X connect 65 0 69 0;
#X connect 66 0 71 0;
#X connect 67 0 69 1;
#X connect 68 0 70 1;
#X connect 69 0 70 0;
#X connect 70 0 63 0;
#X connect 71 0 64 0;
#X restore 13 147 pd delays;
#N canvas 604 37 661 968 make_rec 0;
#X obj 134 496 * 100;
#X obj 134 593 pack;
#X obj 135 358 t b f;
#X obj 227 496 * 30;
#X obj 134 566 +;
#X obj 172 566 t f f;
#X obj 134 311 until;
#X msg 175 311 0;
#X obj 134 335 f;
#X obj 164 335 + 1;
#X obj 134 411 t f b;
#X obj 134 435 until;
#X msg 175 435 0;
#X obj 134 459 f;
#X obj 164 459 + 1;
#X obj 134 620 t a b;
#X obj 201 624 f;
#X obj 234 625 + 1;
#X obj 167 673 pack f f f;
#X obj 134 287 t f b;
#X obj 134 387 f;
#X obj 134 531 + 10;
#X obj 227 531 + 10;
#X text 265 493 y-increment;
#X text 266 528 y-offset;
#X text 37 495 x-increment;
#X text 57 531 x-offset;
#X text 225 567 <-- y-offset-diagonal;
#X text 269 627 <-- object id;
#X msg 167 723 obj \$1 \$2 \$4 \$5-\$3;
#X obj 167 698 list append catch~ rec;
#X obj 318 342 list split 2;
#X obj 167 768 s;
#X obj 409 725 list trim;
#X obj 409 749 symbol;
#X obj 443 354 t f f;
#X obj 443 522 s pd-rec;
#X msg 560 339 clear;
#X msg 318 318 catch~ rec pd-rec-\$1;
#X obj 135 152 list split 3;
#X obj 135 181 list split 2;
#X obj 135 264 unpack;
#X obj 68 8 bng 15 250 50 0 empty empty empty 17 7 0 10 -262144 -1
-1;
#X obj 68 28 t b b;
#X obj 318 293 t f f;
#X obj 172 592 mod 350;
#X obj 443 381 - 1;
#X obj 443 433 + 10;
#X obj 134 647 t a a;
#X obj 67 666 list;
#X obj 443 462 pack;
#X msg 444 486 obj 10 \$1 pd rec-\$2;
#X obj 443 408 * 30;
#X obj 68 97 t a a;
#X msg 68 126 \$1 \$4;
#X msg 148 796 obj 10 400 r rec-\$2 \, obj 10 430 writesf~ \$1 \, vis
0;
#X obj 83 832 until;
#X msg 124 832 0;
#X obj 83 856 f;
#X obj 113 856 + 1;
#X obj 83 808 t f b;
#X obj 67 729 t a a;
#X obj 67 753 list split 1;
#X obj 166 852 + 1;
#X obj 83 880 pack;
#X msg 333 826 connect \$1 0 \$2 \$1;
#X obj 126 881 t f f;
#X obj 67 935 pack;
#X obj 67 777 t f f f;
#X msg 334 860 connect \$1 0 \$2 0;
#X msg 68 73 64 1 1 1 \, 20 1 65 2 \, 20 1 85 3 \, 20 1 105 4 \, 4
1 125 5 \, 10 1 129 6 \, 2 1 139 7, f 76;
#N canvas 0 22 450 300 rec 0;
#N canvas 0 22 450 300 rec-1 0;
#X obj 20 10 catch~ rec-1;
#X obj 50 40 catch~ rec-2;
#X obj 80 70 catch~ rec-3;
#X obj 110 100 catch~ rec-4;
#X obj 140 130 catch~ rec-5;
#X obj 170 160 catch~ rec-6;
#X obj 200 190 catch~ rec-7;
#X obj 230 220 catch~ rec-8;
#X obj 260 250 catch~ rec-9;
#X obj 290 280 catch~ rec-10;
#X obj 320 310 catch~ rec-11;
#X obj 350 340 catch~ rec-12;
#X obj 380 20 catch~ rec-13;
#X obj 410 50 catch~ rec-14;
#X obj 440 80 catch~ rec-15;
#X obj 470 110 catch~ rec-16;
#X obj 500 140 catch~ rec-17;
#X obj 530 170 catch~ rec-18;
#X obj 560 200 catch~ rec-19;
#X obj 590 230 catch~ rec-20;
#X obj 620 260 catch~ rec-21;
#X obj 650 290 catch~ rec-22;
#X obj 680 320 catch~ rec-23;
#X obj 710 0 catch~ rec-24;
#X obj 740 30 catch~ rec-25;
#X obj 770 60 catch~ rec-26;
#X obj 800 90 catch~ rec-27;
#X obj 830 120 catch~ rec-28;
#X obj 860 150 catch~ rec-29;
#X obj 890 180 catch~ rec-30;
#X obj 920 210 catch~ rec-31;
#X obj 950 240 catch~ rec-32;
#X obj 980 270 catch~ rec-33;
#X obj 1010 300 catch~ rec-34;
#X obj 1040 330 catch~ rec-35;
#X obj 1070 10 catch~ rec-36;
#X obj 1100 40 catch~ rec-37;
#X obj 1130 70 catch~ rec-38;
#X obj 1160 100 catch~ rec-39;
#X obj 1190 130 catch~ rec-40;
#X obj 1220 160 catch~ rec-41;
#X obj 1250 190 catch~ rec-42;
#X obj 1280 220 catch~ rec-43;
#X obj 1310 250 catch~ rec-44;
#X obj 1340 280 catch~ rec-45;
#X obj 1370 310 catch~ rec-46;
#X obj 1400 340 catch~ rec-47;
#X obj 1430 20 catch~ rec-48;
#X obj 1460 50 catch~ rec-49;
#X obj 1490 80 catch~ rec-50;
#X obj 1520 110 catch~ rec-51;
#X obj 1550 140 catch~ rec-52;
#X obj 1580 170 catch~ rec-53;
#X obj 1610 200 catch~ rec-54;
#X obj 1640 230 catch~ rec-55;
#X obj 1670 260 catch~ rec-56;
#X obj 1700 290 catch~ rec-57;
#X obj 1730 320 catch~ rec-58;
#X obj 1760 0 catch~ rec-59;
#X obj 1790 30 catch~ rec-60;
#X obj 1820 60 catch~ rec-61;
#X obj 1850 90 catch~ rec-62;
#X obj 1880 120 catch~ rec-63;
#X obj 1910 150 catch~ rec-64;
#X obj 10 400 r rec-1;
#X obj 10 430 writesf~ 64;
#X connect 0 0 65 0;
#X connect 1 0 65 1;
#X connect 2 0 65 2;
#X connect 3 0 65 3;
#X connect 4 0 65 4;
#X connect 5 0 65 5;
#X connect 6 0 65 6;
#X connect 7 0 65 7;
#X connect 8 0 65 8;
#X connect 9 0 65 9;
#X connect 10 0 65 10;
#X connect 11 0 65 11;
#X connect 12 0 65 12;
#X connect 13 0 65 13;
#X connect 14 0 65 14;
#X connect 15 0 65 15;
#X connect 16 0 65 16;
#X connect 17 0 65 17;
#X connect 18 0 65 18;
#X connect 19 0 65 19;
#X connect 20 0 65 20;
#X connect 21 0 65 21;
#X connect 22 0 65 22;
#X connect 23 0 65 23;
#X connect 24 0 65 24;
#X connect 25 0 65 25;
#X connect 26 0 65 26;
#X connect 27 0 65 27;
#X connect 28 0 65 28;
#X connect 29 0 65 29;
#X connect 30 0 65 30;
#X connect 31 0 65 31;
#X connect 32 0 65 32;
#X connect 33 0 65 33;
#X connect 34 0 65 34;
#X connect 35 0 65 35;
#X connect 36 0 65 36;
#X connect 37 0 65 37;
#X connect 38 0 65 38;
#X connect 39 0 65 39;
#X connect 40 0 65 40;
#X connect 41 0 65 41;
#X connect 42 0 65 42;
#X connect 43 0 65 43;
#X connect 44 0 65 44;
#X connect 45 0 65 45;
#X connect 46 0 65 46;
#X connect 47 0 65 47;
#X connect 48 0 65 48;
#X connect 49 0 65 49;
#X connect 50 0 65 50;
#X connect 51 0 65 51;
#X connect 52 0 65 52;
#X connect 53 0 65 53;
#X connect 54 0 65 54;
#X connect 55 0 65 55;
#X connect 56 0 65 56;
#X connect 57 0 65 57;
#X connect 58 0 65 58;
#X connect 59 0 65 59;
#X connect 60 0 65 60;
#X connect 61 0 65 61;
#X connect 62 0 65 62;
#X connect 63 0 65 63;
#X connect 64 0 65 0;
#X restore 10 10 pd rec-1;
#N canvas 0 22 450 300 rec-2 0;
#X obj 20 10 catch~ rec-65;
#X obj 50 40 catch~ rec-66;
#X obj 80 70 catch~ rec-67;
#X obj 110 100 catch~ rec-68;
#X obj 140 130 catch~ rec-69;
#X obj 170 160 catch~ rec-70;
#X obj 200 190 catch~ rec-71;
#X obj 230 220 catch~ rec-72;
#X obj 260 250 catch~ rec-73;
#X obj 290 280 catch~ rec-74;
#X obj 320 310 catch~ rec-75;
#X obj 350 340 catch~ rec-76;
#X obj 380 20 catch~ rec-77;
#X obj 410 50 catch~ rec-78;
#X obj 440 80 catch~ rec-79;
#X obj 470 110 catch~ rec-80;
#X obj 500 140 catch~ rec-81;
#X obj 530 170 catch~ rec-82;
#X obj 560 200 catch~ rec-83;
#X obj 590 230 catch~ rec-84;
#X obj 10 400 r rec-2;
#X obj 10 430 writesf~ 20;
#X connect 0 0 21 0;
#X connect 1 0 21 1;
#X connect 2 0 21 2;
#X connect 3 0 21 3;
#X connect 4 0 21 4;
#X connect 5 0 21 5;
#X connect 6 0 21 6;
#X connect 7 0 21 7;
#X connect 8 0 21 8;
#X connect 9 0 21 9;
#X connect 10 0 21 10;
#X connect 11 0 21 11;
#X connect 12 0 21 12;
#X connect 13 0 21 13;
#X connect 14 0 21 14;
#X connect 15 0 21 15;
#X connect 16 0 21 16;
#X connect 17 0 21 17;
#X connect 18 0 21 18;
#X connect 19 0 21 19;
#X connect 20 0 21 0;
#X restore 10 40 pd rec-2;
#N canvas 0 22 450 300 rec-3 0;
#X obj 20 10 catch~ rec-85;
#X obj 50 40 catch~ rec-86;
#X obj 80 70 catch~ rec-87;
#X obj 110 100 catch~ rec-88;
#X obj 140 130 catch~ rec-89;
#X obj 170 160 catch~ rec-90;
#X obj 200 190 catch~ rec-91;
#X obj 230 220 catch~ rec-92;
#X obj 260 250 catch~ rec-93;
#X obj 290 280 catch~ rec-94;
#X obj 320 310 catch~ rec-95;
#X obj 350 340 catch~ rec-96;
#X obj 380 20 catch~ rec-97;
#X obj 410 50 catch~ rec-98;
#X obj 440 80 catch~ rec-99;
#X obj 470 110 catch~ rec-100;
#X obj 500 140 catch~ rec-101;
#X obj 530 170 catch~ rec-102;
#X obj 560 200 catch~ rec-103;
#X obj 590 230 catch~ rec-104;
#X obj 10 400 r rec-3;
#X obj 10 430 writesf~ 20;
#X connect 0 0 21 0;
#X connect 1 0 21 1;
#X connect 2 0 21 2;
#X connect 3 0 21 3;
#X connect 4 0 21 4;
#X connect 5 0 21 5;
#X connect 6 0 21 6;
#X connect 7 0 21 7;
#X connect 8 0 21 8;
#X connect 9 0 21 9;
#X connect 10 0 21 10;
#X connect 11 0 21 11;
#X connect 12 0 21 12;
#X connect 13 0 21 13;
#X connect 14 0 21 14;
#X connect 15 0 21 15;
#X connect 16 0 21 16;
#X connect 17 0 21 17;
#X connect 18 0 21 18;
#X connect 19 0 21 19;
#X connect 20 0 21 0;
#X restore 10 70 pd rec-3;
#N canvas 0 22 450 300 rec-4 0;
#X obj 20 10 catch~ rec-105;
#X obj 50 40 catch~ rec-106;
#X obj 80 70 catch~ rec-107;
#X obj 110 100 catch~ rec-108;
#X obj 140 130 catch~ rec-109;
#X obj 170 160 catch~ rec-110;
#X obj 200 190 catch~ rec-111;
#X obj 230 220 catch~ rec-112;
#X obj 260 250 catch~ rec-113;
#X obj 290 280 catch~ rec-114;
#X obj 320 310 catch~ rec-115;
#X obj 350 340 catch~ rec-116;
#X obj 380 20 catch~ rec-117;
#X obj 410 50 catch~ rec-118;
#X obj 440 80 catch~ rec-119;
#X obj 470 110 catch~ rec-120;
#X obj 500 140 catch~ rec-121;
#X obj 530 170 catch~ rec-122;
#X obj 560 200 catch~ rec-123;
#X obj 590 230 catch~ rec-124;
#X obj 10 400 r rec-4;
#X obj 10 430 writesf~ 20;
#X connect 0 0 21 0;
#X connect 1 0 21 1;
#X connect 2 0 21 2;
#X connect 3 0 21 3;
#X connect 4 0 21 4;
#X connect 5 0 21 5;
#X connect 6 0 21 6;
#X connect 7 0 21 7;
#X connect 8 0 21 8;
#X connect 9 0 21 9;
#X connect 10 0 21 10;
#X connect 11 0 21 11;
#X connect 12 0 21 12;
#X connect 13 0 21 13;
#X connect 14 0 21 14;
#X connect 15 0 21 15;
#X connect 16 0 21 16;
#X connect 17 0 21 17;
#X connect 18 0 21 18;
#X connect 19 0 21 19;
#X connect 20 0 21 0;
#X restore 10 100 pd rec-4;
#N canvas 0 22 450 300 rec-5 0;
#X obj 20 10 catch~ rec-125;
#X obj 50 40 catch~ rec-126;
#X obj 80 70 catch~ rec-127;
#X obj 110 100 catch~ rec-128;
#X obj 10 400 r rec-5;
#X obj 10 430 writesf~ 4;
#X connect 0 0 5 0;
#X connect 1 0 5 1;
#X connect 2 0 5 2;
#X connect 3 0 5 3;
#X connect 4 0 5 0;
#X restore 10 130 pd rec-5;
#N canvas 0 22 450 300 rec-6 0;
#X obj 20 10 catch~ rec-129;
#X obj 50 40 catch~ rec-130;
#X obj 80 70 catch~ rec-131;
#X obj 110 100 catch~ rec-132;
#X obj 140 130 catch~ rec-133;
#X obj 170 160 catch~ rec-134;
#X obj 200 190 catch~ rec-135;
#X obj 230 220 catch~ rec-136;
#X obj 260 250 catch~ rec-137;
#X obj 290 280 catch~ rec-138;
#X obj 10 400 r rec-6;
#X obj 10 430 writesf~ 10;
#X connect 0 0 11 0;
#X connect 1 0 11 1;
#X connect 2 0 11 2;
#X connect 3 0 11 3;
#X connect 4 0 11 4;
#X connect 5 0 11 5;
#X connect 6 0 11 6;
#X connect 7 0 11 7;
#X connect 8 0 11 8;
#X connect 9 0 11 9;
#X connect 10 0 11 0;
#X restore 10 160 pd rec-6;
#N canvas 0 22 450 300 rec-7 0;
#X obj 20 10 catch~ rec-139;
#X obj 50 40 catch~ rec-140;
#X obj 10 400 r rec-7;
#X obj 10 430 writesf~ 2;
#X connect 0 0 3 0;
#X connect 1 0 3 1;
#X connect 2 0 3 0;
#X restore 10 190 pd rec-7;
#X restore 449 17 pd rec;
#X connect 0 0 21 0;
#X connect 1 0 15 0;
#X connect 2 0 20 0;
#X connect 2 1 3 0;
#X connect 3 0 22 0;
#X connect 4 0 1 0;
#X connect 5 0 45 0;
#X connect 5 1 4 1;
#X connect 6 0 8 0;
#X connect 7 0 8 1;
#X connect 8 0 9 0;
#X connect 8 0 2 0;
#X connect 9 0 8 1;
#X connect 10 0 11 0;
#X connect 10 1 12 0;
#X connect 11 0 13 0;
#X connect 12 0 13 1;
#X connect 13 0 14 0;
#X connect 13 0 0 0;
#X connect 14 0 13 1;
#X connect 15 0 48 0;
#X connect 15 1 16 0;
#X connect 16 0 17 0;
#X connect 16 0 18 2;
#X connect 17 0 16 1;
#X connect 18 0 30 0;
#X connect 19 0 6 0;
#X connect 19 1 7 0;
#X connect 20 0 10 0;
#X connect 21 0 4 0;
#X connect 22 0 5 0;
#X connect 29 0 32 0;
#X connect 30 0 29 0;
#X connect 31 0 30 1;
#X connect 31 1 33 0;
#X connect 33 0 34 0;
#X connect 34 0 32 1;
#X connect 35 0 46 0;
#X connect 35 1 50 1;
#X connect 37 0 36 0;
#X connect 38 0 31 0;
#X connect 39 0 40 0;
#X connect 39 1 44 0;
#X connect 40 0 41 0;
#X connect 40 1 16 1;
#X connect 41 0 19 0;
#X connect 41 1 20 1;
#X connect 42 0 43 0;
#X connect 43 0 70 0;
#X connect 43 1 37 0;
#X connect 44 0 38 0;
#X connect 44 1 35 0;
#X connect 45 0 1 1;
#X connect 46 0 52 0;
#X connect 47 0 50 0;
#X connect 48 0 49 1;
#X connect 48 1 18 0;
#X connect 49 0 61 0;
#X connect 50 0 51 0;
#X connect 51 0 36 0;
#X connect 52 0 47 0;
#X connect 53 0 54 0;
#X connect 53 1 39 0;
#X connect 54 0 49 0;
#X connect 55 0 32 0;
#X connect 56 0 58 0;
#X connect 57 0 58 1;
#X connect 58 0 59 0;
#X connect 58 0 64 0;
#X connect 59 0 58 1;
#X connect 60 0 56 0;
#X connect 60 1 57 0;
#X connect 61 0 62 0;
#X connect 61 1 55 0;
#X connect 62 0 68 0;
#X connect 63 0 66 0;
#X connect 64 0 65 0;
#X connect 65 0 32 0;
#X connect 66 0 64 1;
#X connect 66 1 67 1;
#X connect 67 0 69 0;
#X connect 68 0 67 0;
#X connect 68 1 60 0;
#X connect 68 2 63 0;
#X connect 69 0 32 0;
#X connect 70 0 53 0;
#X restore 13 124 pd make_rec;
#N canvas 595 463 407 357 playback 1;
#X msg 28 178 bang;
#X msg 78 180 stop;
#X obj 42 80 tabplay~ bere_clean;
#X obj 43 231 t a a a;
#X obj 42 104 s~ clean;
#X obj 111 238 s~ del-R;
#X obj 43 295 s~ del-L;
#X obj 43 271 tabplay~ bere_guitarra_L;
#X obj 111 211 tabplay~ bere_guitarra_R;
#X obj 42 22 r bere_playback;
#N canvas 0 22 450 300 loop 0;
#X obj 133 115 spigot 1;
#X obj 186 92 r loop;
#X obj 133 67 r end-reached;
#X obj 133 139 s bere_playback;
#X connect 0 0 3 0;
#X connect 1 0 0 1;
#X connect 2 0 0 0;
#X restore 264 15 pd loop;
#X obj 172 104 s end-reached-set;
#N canvas 0 22 450 300 playback-start 0;
#X obj 37 28 r playback-start;
#X obj 37 52 s bere_playback;
#X obj 40 95 r playback-stop;
#X msg 40 119 stop;
#X obj 40 143 s bere_playback;
#X connect 0 0 1 0;
#X connect 2 0 3 0;
#X connect 3 0 4 0;
#X restore 264 39 pd playback-start;
#X connect 0 0 3 0;
#X connect 1 0 3 0;
#X connect 2 0 4 0;
#X connect 2 1 11 0;
#X connect 3 0 7 0;
#X connect 3 1 8 0;
#X connect 7 0 6 0;
#X connect 8 0 5 0;
#X connect 9 0 2 0;
#X restore 13 99 pd playback;
#N canvas 987 288 227 189 controls 1;
#X obj 12 15 cnv 15 200 160 empty empty empty 20 12 0 14 -204786 -66577
0;
#X obj 20 88 bng 15 250 50 0 end-reached end-reached-set end-reached
17 7 0 10 -262144 -1 -1;
#X obj 20 69 tgl 15 0 loop loop-set loop 17 7 0 10 -262144 -1 -1 0
1;
#X obj 20 47 bng 15 250 50 0 playback-stop playback-stop-set playback-stop
17 7 0 10 -262144 -1 -1;
#X obj 20 27 bng 15 250 50 0 playback-start playback-start-set playback-start
17 7 0 10 -262144 -1 -1;
#X restore 339 21 pd controls;
