#N canvas 0 63 1136 704 12;
#X obj 109 115 hsl 50 15 0 1 0 0 \$1-preset-min \$1-preset-min-set
\$1-min -2 -8 0 10 -262144 -1 -1 0 1;
#X obj 110 145 hsl 50 15 0 1 0 0 \$1-preset-max \$1-preset-max-set
\$1-max -2 -8 0 10 -262144 -1 -1 200 1;
#X obj 105 169 bng 15 250 50 0 \$1-go \$1-go-set \$1-go 17 7 0 10 -262144
-1 -1;
#X obj 348 368 text get cakewalks;
#X obj 311 184 t f f f, f 13;
#X obj 349 340 f;
#X obj 348 316 t b a;
#X obj 407 530 array set;
#X obj 346 427 t b f;
#X obj 340 210 + 1;
#X obj 318 537 + 1;
#X obj 346 468 _crand 0 1;
#X obj 408 106 list;
#X msg 414 183 set \$1 \$2;
#X msg 318 560 \; clear_berelays-set bang \; update-\$1 bang;
#X obj 328 14 r \$1-go;
#X obj 425 67 r \$1-set;
#X msg 354 270 symbol \$2-\$1;
#X obj 700 195 pack;
#X obj 762 104 t b f;
#X obj 644 62 r \$1-preset-min;
#X obj 765 75 r \$1-preset-max;
#X obj 700 219 s \$1-set;
#X obj 342 235 list append \$1;
#X obj 426 142 s \$1;
#X obj 166 20 r make-rec;
#X obj 166 44 list split 3;
#X obj 305 94 f;
#X obj 310 152 iterate;
#X obj 308 127 t f f;
#X obj 270 156 f;
#X obj 347 397 iterate;
#X obj 339 49 t b b;
#X connect 3 0 31 0;
#X connect 4 1 9 0;
#X connect 4 2 5 1;
#X connect 5 0 3 0;
#X connect 6 0 5 0;
#X connect 6 1 7 2;
#X connect 8 0 11 0;
#X connect 8 1 7 1;
#X connect 9 0 23 0;
#X connect 10 0 14 0;
#X connect 11 0 7 0;
#X connect 12 0 13 0;
#X connect 12 0 24 0;
#X connect 13 0 11 0;
#X connect 15 0 32 0;
#X connect 16 0 12 1;
#X connect 17 0 6 0;
#X connect 18 0 22 0;
#X connect 19 0 18 0;
#X connect 19 1 18 1;
#X connect 20 0 18 0;
#X connect 21 0 19 0;
#X connect 23 0 17 0;
#X connect 25 0 26 0;
#X connect 26 1 27 1;
#X connect 27 0 29 0;
#X connect 28 0 4 0;
#X connect 28 1 30 0;
#X connect 29 0 28 0;
#X connect 29 1 30 1;
#X connect 30 0 10 0;
#X connect 31 0 8 0;
#X connect 32 0 27 0;
#X connect 32 1 12 0;
#X coords 0 -1 1 1 96 90 2 100 100;
