#N canvas 523 50 456 363 12;
#X obj 116 121 dbtorms;
#X obj 116 143 pack f 20;
#X obj 116 165 line~;
#X obj 56 55 catch~ dacout-\$1;
#X obj 292 229 dac~ \$1;
#X obj 116 98 r \$2;
#X obj 39 273 outlet~;
#X obj 56 236 throw~ rec-\$1;
#X obj 39 9 inlet~;
#X obj 39 184 *~;
#X obj 39 210 hip~ 3;
#X obj 39 89 hip~ 20;
#X obj 292 29 loadbang;
#X obj 292 85 f \$1;
#X obj 292 137 + 1;
#X msg 292 171 set \$1;
#X obj 335 85 f \$3;
#X obj 335 113 sel;
#X obj 292 113 mod 2;
#X obj 292 57 t b b;
#X connect 0 0 1 0;
#X connect 1 0 2 0;
#X connect 2 0 9 1;
#X connect 3 0 11 0;
#X connect 5 0 0 0;
#X connect 8 0 11 0;
#X connect 9 0 10 0;
#X connect 10 0 4 0;
#X connect 10 0 6 0;
#X connect 10 0 7 0;
#X connect 11 0 9 0;
#X connect 12 0 19 0;
#X connect 13 0 18 0;
#X connect 14 0 15 0;
#X connect 15 0 4 0;
#X connect 16 0 17 0;
#X connect 17 1 18 1;
#X connect 18 0 14 0;
#X connect 19 0 13 0;
#X connect 19 1 16 0;
