#N canvas 925 282 450 300 12;
#X obj 38 36 inlet;
#X obj 34 105 *~;
#X obj 232 66 pack f 10;
#X obj 232 90 line~;
#X obj 34 129 lop~ 10000;
#X obj 34 153 hip~ 10;
#X obj 233 43 inlet;
#X obj 34 81 delread~ \$2;
#X obj 341 45 inlet;
#X obj 34 177 throw~ \$3-\$1;
#X floatatom 353 132 0 0 0 0 - - -;
#X floatatom 252 173 5 0 0 0 - - -;
#X floatatom 38 60 5 0 0 0 - - -;
#X connect 0 0 7 0;
#X connect 0 0 12 0;
#X connect 1 0 4 0;
#X connect 2 0 3 0;
#X connect 3 0 1 1;
#X connect 4 0 5 0;
#X connect 5 0 9 0;
#X connect 6 0 2 0;
#X connect 6 0 11 0;
#X connect 7 0 1 0;
#X connect 8 0 4 1;
#X connect 8 0 10 0;
