#N canvas 530 50 450 300 12;
#X declare -path ./lib -path ../rec -path ../txt;
#N canvas 0 20 450 300 declare 0;
#X obj 20 20 declare -path ./lib -path ../rec -path ../txt;
#X obj 29 62 loadbang;
#X msg 29 86 \; pd-dsp 1 \; pd-controls vis 1 \; pd-vol vis 1 \;;
#X connect 1 0 2 0;
#X restore 14 22 pd declare;
#X text 200 20 "berelay";
#N canvas 520 56 501 670 samples 0;
#X obj 26 391 soundfiler;
#X msg 242 165 resize 100 \, const 0;
#X msg 26 44 clean;
#X msg 38 73 L;
#X msg 47 96 R;
#X obj 26 270 makefilename ../rec/%s.wav;
#X obj 26 223 makefilename bere_%s;
#X msg 26 367 read -resize \$1 \$2;
#X obj 26 294 pack s s;
#X obj 26 247 t a a;
#X text 77 47 <-- guitarra sin delays;
#X text 80 72 <-- guitarra delays left;
#X text 83 98 <-- guitarra delays right;
#X obj 26 198 symbol;
#X obj 242 203 array define bere_guitarra_L;
#X obj 242 227 array define bere_guitarra_R;
#X obj 241 252 array define bere_clean;
#X obj 38 124 symbol;
#X obj 38 151 makefilename guitarra_%s;
#X obj 26 20 r open-file;
#X obj 26 419 sel;
#X msg 235 285 list whatever bere_clean;
#X obj 314 334 openpanel;
#X obj 314 358 list append bere_clean;
#X obj 314 382 spigot 1;
#X obj 314 406 t a b;
#X msg 360 407 0;
#X obj 395 384 r open-file;
#X msg 395 408 1;
#X obj 41 622 print opened;
#X obj 26 330 t a a;
#X obj 177 349 list split 1;
#X obj 80 453 list split 1;
#X obj 43 480 /;
#X obj 41 563 list prepend;
#X obj 41 592 list trim;
#X msg 42 537 \$1 minutes long;
#X obj 43 503 fd_msecparse;
#X obj 73 478 / 1000;
#X connect 0 0 20 0;
#X connect 0 1 32 0;
#X connect 1 0 14 0;
#X connect 1 0 15 0;
#X connect 1 0 16 0;
#X connect 2 0 13 0;
#X connect 3 0 17 0;
#X connect 4 0 17 0;
#X connect 5 0 8 0;
#X connect 6 0 9 0;
#X connect 7 0 0 0;
#X connect 8 0 30 0;
#X connect 9 0 5 0;
#X connect 9 1 8 1;
#X connect 13 0 6 0;
#X connect 17 0 18 0;
#X connect 18 0 13 0;
#X connect 19 0 2 0;
#X connect 20 0 22 0;
#X connect 20 1 33 0;
#X connect 21 0 7 0;
#X connect 22 0 23 0;
#X connect 23 0 24 0;
#X connect 24 0 25 0;
#X connect 25 0 30 0;
#X connect 25 1 26 0;
#X connect 26 0 24 1;
#X connect 27 0 28 0;
#X connect 28 0 24 1;
#X connect 30 0 7 0;
#X connect 30 1 31 0;
#X connect 31 0 34 1;
#X connect 32 0 38 0;
#X connect 33 0 37 0;
#X connect 34 0 35 0;
#X connect 35 0 29 0;
#X connect 36 0 34 0;
#X connect 37 0 36 0;
#X connect 38 0 33 1;
#X restore 14 48 pd samples;
#N canvas 986 47 128 215 vol 1;
#X obj 25 29 vsl 30 128 0 127 0 0 vol vol-set vol 0 -9 0 10 -262144
-1 -1 7800 1;
#X obj 63 36 vu 15 120 vu empty -1 -8 0 10 -66577 -1 1 0;
#X obj 28 178 nbx 5 14 -1e+37 1e+37 0 0 empty vol dB 0 -8 0 10 -262144
-1 -1 78 256;
#X restore 339 43 pd vol;
#N canvas 211 47 453 284 dac 0;
#X obj 32 59 env~;
#X obj 32 83 - 100;
#X obj 32 107 s vu;
#X obj 167 112 clone -s 126 _dacout 4 sub-1 1 rec 6;
#X obj 32 31 clone _dacout 125 vol 2 rec;
#X connect 0 0 1 0;
#X connect 1 0 2 0;
#X connect 4 0 0 0;
#X restore 14 98 pd dac;
#N canvas 462 163 983 855 delays 0;
#N canvas 1499 67 304 694 dels 0;
#X restore 42 47 pd dels;
#X msg 36 84 \; pd-dels clear \;;
#X obj 215 778 delwrite~ line1 10000;
#X obj 211 628 *~;
#X obj 271 682 r~ clean;
#X obj 128 125 vsl 15 128 0 127 0 0 empty empty empty 0 -9 0 10 -262144
-1 -1 0 1;
#X obj 126 264 dbtorms;
#X msg 126 290 all \$1;
#X obj 538 529 line~;
#X msg 539 508 \$1 10;
#X obj 542 308 vsl 15 128 0 127 0 0 empty empty empty 0 -9 0 10 -262144
-1 -1 0 1;
#X obj 106 363 clone -s 1 _catchdel 5 L;
#X obj 310 353 clone -s 1 _catchdel 5 R;
#N canvas 262 112 450 555 del-create 0;
#X obj 35 32 r del-create;
#X msg 35 421 \; pd-dels obj 10 \$4 del-water \$1 \$2 \$3 \$4 \;;
#X obj 172 208 int 10;
#X obj 222 208 + 25;
#X msg 211 170 10;
#X obj 35 85 until;
#X obj 35 107 t b b;
#X obj 35 208 unpack f f f, f 14;
#X obj 35 169 spigot;
#X obj 35 140 _lorenz;
#X obj 35 248 _norm;
#X obj 82 248 _norm;
#N canvas 0 22 450 300 init 0;
#X obj 100 137 until;
#X msg 100 106 5000;
#X obj 77 6 inlet;
#X obj 100 223 outlet;
#X msg 185 137 reset \, h 0.015;
#X obj 309 64 outlet;
#X obj 100 71 t b b;
#X obj 77 31 t b b b;
#X msg 198 41 0;
#X msg 196 69 1;
#X connect 0 0 3 0;
#X connect 1 0 0 0;
#X connect 2 0 7 0;
#X connect 4 0 3 0;
#X connect 6 0 1 0;
#X connect 6 1 4 0;
#X connect 7 0 9 0;
#X connect 7 1 6 0;
#X connect 7 2 8 0;
#X connect 8 0 5 0;
#X connect 9 0 5 0;
#X restore 86 107 pd init;
#X obj 35 396 pack f f f f, f 20;
#X obj 81 285 wrap;
#X obj 35 285 wrap;
#X obj 35 57 t f b b b, f 22;
#X obj 302 229 t b b;
#X obj 35 310 clip 0.01 1;
#X obj 81 338 clip 0.01 1;
#X connect 0 0 16 0;
#X connect 2 0 3 0;
#X connect 2 0 13 3;
#X connect 3 0 2 1;
#X connect 4 0 2 1;
#X connect 5 0 6 0;
#X connect 6 0 9 0;
#X connect 6 1 2 0;
#X connect 7 0 10 0;
#X connect 7 1 11 0;
#X connect 7 2 13 2;
#X connect 8 0 7 0;
#X connect 9 0 8 0;
#X connect 10 0 15 0;
#X connect 11 0 14 0;
#X connect 12 0 9 0;
#X connect 12 1 8 1;
#X connect 13 0 1 0;
#X connect 14 0 19 0;
#X connect 15 0 18 0;
#X connect 16 0 5 0;
#X connect 16 1 12 0;
#X connect 16 2 4 0;
#X connect 16 3 17 0;
#X connect 17 0 10 1;
#X connect 17 1 11 1;
#X connect 18 0 13 0;
#X connect 19 0 13 1;
#X restore 44 23 pd del-create;
#X obj 542 468 clip 0 1;
#X obj 98 443 lop~ 20000;
#X obj 312 438 lop~ 20000;
#X obj 389 389 hsl 128 15 0 127 0 0 empty empty empty -2 -8 0 10 -262144
-1 -1 0 1;
#X obj 386 409 mtof;
#X obj 140 391 hsl 128 15 0 127 0 0 empty empty empty -2 -8 0 10 -262144
-1 -1 0 1;
#X obj 137 411 mtof;
#X obj 98 517 hip~ 300;
#X obj 317 509 hip~ 300;
#X obj 392 465 hsl 128 15 0 127 0 0 empty empty empty -2 -8 0 10 -262144
-1 -1 0 1;
#X obj 389 485 mtof;
#X obj 142 475 hsl 128 15 0 127 0 0 empty empty empty -2 -8 0 10 -262144
-1 -1 0 1;
#X obj 139 495 mtof;
#X obj 116 326 t a a;
#X obj 542 444 / 128;
#X msg 614 576 \; clear-dels clear;
#X obj 301 716 r clear-dels;
#X floatatom 202 278 5 0 0 0 - - -;
#X msg 163 22 \; pd-dels clear \; del-create 80 \; pd-del-water.pd
loadbang \; del-amount 0.894 \; dist-adjust 0.17 \;;
#X obj 654 66 tgl 15 0 empty empty empty 17 7 0 10 -262144 -1 -1 0
1;
#X obj 654 86 switch~;
#X connect 3 0 2 0;
#X connect 4 0 2 0;
#X connect 5 0 6 0;
#X connect 6 0 7 0;
#X connect 6 0 31 0;
#X connect 7 0 27 0;
#X connect 8 0 3 1;
#X connect 9 0 8 0;
#X connect 10 0 28 0;
#X connect 11 0 15 0;
#X connect 12 0 16 0;
#X connect 14 0 9 0;
#X connect 15 0 21 0;
#X connect 16 0 22 0;
#X connect 17 0 18 0;
#X connect 18 0 16 1;
#X connect 19 0 20 0;
#X connect 20 0 15 1;
#X connect 21 0 3 0;
#X connect 22 0 3 0;
#X connect 23 0 24 0;
#X connect 24 0 22 1;
#X connect 25 0 26 0;
#X connect 26 0 21 1;
#X connect 27 0 11 0;
#X connect 27 1 12 0;
#X connect 28 0 14 0;
#X connect 30 0 2 0;
#X connect 33 0 34 0;
#X restore 13 183 pd delays;
#N canvas 604 37 661 968 make_rec 0;
#X obj 134 496 * 100;
#X obj 134 593 pack;
#X obj 135 358 t b f;
#X obj 227 496 * 30;
#X obj 134 566 +;
#X obj 172 566 t f f;
#X obj 134 311 until;
#X msg 175 311 0;
#X obj 134 335 f;
#X obj 164 335 + 1;
#X obj 134 411 t f b;
#X obj 134 435 until;
#X msg 175 435 0;
#X obj 134 459 f;
#X obj 164 459 + 1;
#X obj 134 620 t a b;
#X obj 201 624 f;
#X obj 234 625 + 1;
#X obj 167 673 pack f f f;
#X obj 134 287 t f b;
#X obj 134 387 f;
#X obj 134 531 + 10;
#X obj 227 531 + 10;
#X text 265 493 y-increment;
#X text 266 528 y-offset;
#X text 37 495 x-increment;
#X text 57 531 x-offset;
#X text 225 567 <-- y-offset-diagonal;
#X text 269 627 <-- object id;
#X msg 167 723 obj \$1 \$2 \$4 \$5-\$3;
#X obj 167 698 list append catch~ rec;
#X obj 318 342 list split 2;
#X obj 167 768 s;
#X obj 409 725 list trim;
#X obj 409 749 symbol;
#X obj 443 354 t f f;
#X obj 443 522 s pd-rec;
#X msg 560 339 clear;
#X msg 318 318 catch~ rec pd-rec-\$1;
#X obj 135 152 list split 3;
#X obj 135 181 list split 2;
#X obj 135 264 unpack;
#X obj 68 8 bng 15 250 50 0 empty empty empty 17 7 0 10 -262144 -1
-1;
#X obj 68 28 t b b;
#X obj 318 293 t f f;
#X obj 172 592 mod 350;
#X obj 443 381 - 1;
#X obj 443 433 + 10;
#X obj 134 647 t a a;
#X obj 67 666 list;
#X obj 443 462 pack;
#X msg 444 486 obj 10 \$1 pd rec-\$2;
#X obj 443 408 * 30;
#X obj 68 97 t a a;
#X msg 68 126 \$1 \$4;
#X msg 148 796 obj 10 400 r rec-\$2 \, obj 10 430 writesf~ \$1 \, vis
0;
#X obj 83 832 until;
#X msg 124 832 0;
#X obj 83 856 f;
#X obj 113 856 + 1;
#X obj 83 808 t f b;
#X obj 67 729 t a a;
#X obj 67 753 list split 1;
#X obj 166 852 + 1;
#X obj 83 880 pack;
#X msg 333 826 connect \$1 0 \$2 \$1;
#X obj 126 881 t f f;
#X obj 67 935 pack;
#X obj 67 777 t f f f;
#X msg 334 860 connect \$1 0 \$2 0;
#X msg 68 73 64 1 1 1 \, 20 1 65 2 \, 20 1 85 3 \, 20 1 105 4 \, 4
1 125 5 \, 10 1 129 6 \, 2 1 139 7, f 76;
#X connect 0 0 21 0;
#X connect 1 0 15 0;
#X connect 2 0 20 0;
#X connect 2 1 3 0;
#X connect 3 0 22 0;
#X connect 4 0 1 0;
#X connect 5 0 45 0;
#X connect 5 1 4 1;
#X connect 6 0 8 0;
#X connect 7 0 8 1;
#X connect 8 0 9 0;
#X connect 8 0 2 0;
#X connect 9 0 8 1;
#X connect 10 0 11 0;
#X connect 10 1 12 0;
#X connect 11 0 13 0;
#X connect 12 0 13 1;
#X connect 13 0 14 0;
#X connect 13 0 0 0;
#X connect 14 0 13 1;
#X connect 15 0 48 0;
#X connect 15 1 16 0;
#X connect 16 0 17 0;
#X connect 16 0 18 2;
#X connect 17 0 16 1;
#X connect 18 0 30 0;
#X connect 19 0 6 0;
#X connect 19 1 7 0;
#X connect 20 0 10 0;
#X connect 21 0 4 0;
#X connect 22 0 5 0;
#X connect 29 0 32 0;
#X connect 30 0 29 0;
#X connect 31 0 30 1;
#X connect 31 1 33 0;
#X connect 33 0 34 0;
#X connect 34 0 32 1;
#X connect 35 0 46 0;
#X connect 35 1 50 1;
#X connect 37 0 36 0;
#X connect 38 0 31 0;
#X connect 39 0 40 0;
#X connect 39 1 44 0;
#X connect 40 0 41 0;
#X connect 40 1 16 1;
#X connect 41 0 19 0;
#X connect 41 1 20 1;
#X connect 42 0 43 0;
#X connect 43 0 70 0;
#X connect 43 1 37 0;
#X connect 44 0 38 0;
#X connect 44 1 35 0;
#X connect 45 0 1 1;
#X connect 46 0 52 0;
#X connect 47 0 50 0;
#X connect 48 0 49 1;
#X connect 48 1 18 0;
#X connect 49 0 61 0;
#X connect 50 0 51 0;
#X connect 51 0 36 0;
#X connect 52 0 47 0;
#X connect 53 0 54 0;
#X connect 53 1 39 0;
#X connect 54 0 49 0;
#X connect 55 0 32 0;
#X connect 56 0 58 0;
#X connect 57 0 58 1;
#X connect 58 0 59 0;
#X connect 58 0 64 0;
#X connect 59 0 58 1;
#X connect 60 0 56 0;
#X connect 60 1 57 0;
#X connect 61 0 62 0;
#X connect 61 1 55 0;
#X connect 62 0 68 0;
#X connect 63 0 66 0;
#X connect 64 0 65 0;
#X connect 65 0 32 0;
#X connect 66 0 64 1;
#X connect 66 1 67 1;
#X connect 67 0 69 0;
#X connect 68 0 67 0;
#X connect 68 1 60 0;
#X connect 68 2 63 0;
#X connect 69 0 32 0;
#X connect 70 0 53 0;
#X restore 13 124 pd make_rec;
#N canvas 987 288 313 425 controls 0;
#X obj 13 39 cnv 15 140 200 playback-canvas playback-canvas-set playback
3 12 0 14 -233017 -66577 0;
#X obj 21 164 bng 15 250 50 0 end-reached end-reached-set end 17 7
0 10 -232576 -1 -1;
#X obj 21 142 tgl 15 1 loop loop-set loop 17 7 0 10 -4032 -1 -1 1 1
;
#X obj 21 120 bng 15 250 50 0 playback-stop playback-stop-set stop
17 7 0 10 -257985 -1 -1;
#X obj 21 100 bng 15 250 50 0 playback-start playback-start-set start
17 7 0 10 -4034 -1 -1;
#X obj 173 39 cnv 15 120 200 live-canvas live-canvas-set live 3 12
0 14 -233017 -66577 0;
#X obj 183 103 vsl 15 128 0 127 0 0 live-gain live-gain-set gain 0
-9 0 10 -262144 -1 -1 8000 1;
#X obj 207 106 vu 15 120 live-vu empty -1 -8 0 10 -66577 -1 1 0;
#X obj 216 43 tgl 15 0 live live-set live 17 7 0 10 -262144 -1 -1 0
1;
#X obj 83 42 tgl 15 0 playback playback-set playback 17 7 0 10 -262144
-1 -1 0 1;
#X obj 83 104 vsl 15 128 0 127 0 0 playback-gain playback-gain-set
gain 0 -9 0 10 -262144 -1 -1 7900 1;
#X obj 107 107 vu 15 120 playback-vu empty -1 -8 0 10 -66577 -1 1 0
;
#X obj 20 70 bng 15 250 50 0 open-file open-file-set open-file 17 7
0 10 -261682 -1 -1;
#X obj 21 258 tgl 15 0 berelays berelays-set berelays 17 7 0 10 -232576
-1 -1 1 1;
#X obj 21 277 bng 15 250 50 0 randomize randomize-set randomize 17
7 0 10 -262144 -1 -1;
#X obj 22 319 hsl 50 15 0 1 0 0 pre-del-preset-min pre-del-preset-min-set
pre-del-min -2 -8 0 10 -262144 -1 -1 0 1;
#X obj 23 349 hsl 50 15 0 1 0 0 pre-del-preset-max pre-del-preset-max-set
pre-del-max -2 -8 0 10 -262144 -1 -1 4900 1;
#X obj 198 319 hsl 50 15 0 1 0 0 fb-amount-preset-min fb-amount-preset-min-set
fb-amount-min -2 -8 0 10 -262144 -1 -1 800 1;
#X obj 199 349 hsl 50 15 0 1 0 0 fb-amount-preset-max fb-amount-preset-max-set
fb-amount-max -2 -8 0 10 -262144 -1 -1 4900 1;
#X obj 115 319 hsl 50 15 0 1 0 0 fb-time-preset-min fb-time-preset-min-set
fb-time-min -2 -8 0 10 -262144 -1 -1 300 1;
#X obj 116 349 hsl 50 15 0 1 0 0 fb-time-preset-max fb-time-preset-max-set
fb-time-max -2 -8 0 10 -262144 -1 -1 4900 1;
#X obj 113 371 bng 15 250 50 0 fb-time-go fb-time-go-set fb-time-go
17 7 0 10 -262144 -1 -1;
#X obj 196 371 bng 15 250 50 0 fb-amount-go fb-amount-go-set fb-amount-go
17 7 0 10 -262144 -1 -1;
#X obj 22 371 bng 15 250 50 0 pre-del-go pre-del-go-set pre-del-go
17 7 0 10 -262144 -1 -1;
#X text 95 254 <-- prender pa q ande;
#X text 13 10 elegir entre playback o en vivo:;
#X restore 339 21 pd controls;
#N canvas 0 22 1018 771 clean 0;
#X obj 347 280 *~;
#X obj 347 337 throw~ dacout-3;
#X obj 288 206 line~;
#X msg 288 179 \$1 10;
#X obj 292 7 vsl 15 128 0 127 0 0 empty empty empty 0 -9 0 10 -262144
-1 -1 0 1;
#X obj 285 147 dbtorms;
#X obj 25 298 *~;
#X obj 790 590 line~;
#X msg 790 563 \$1 10;
#X obj 870 392 vsl 15 128 0 127 0 0 empty empty empty 0 -9 0 10 -262144
-1 -1 0 1;
#X obj 787 531 dbtorms;
#X obj 646 635 *~;
#X obj 50 39 r~ clean;
#X obj 346 205 r~ clean;
#X obj 128 131 rev3~ 100 80 3000 25;
#X obj 773 162 delwrite~ back-del 1000;
#X obj 21 336 throw~ dacout-1;
#X obj 148 299 *~;
#X obj 148 336 throw~ dacout-2;
#X obj 400 436 r~ clean;
#X obj 399 509 rev3~ 100 80 4000 25;
#X obj 399 624 *~;
#X obj 420 186 *~ 0.5;
#X obj 420 210 +~ 0.5;
#X floatatom 483 213 5 0 0 0 - - -;
#X floatatom 423 136 5 0 0 0 - - -;
#X obj 420 162 osc~ 0.25;
#X obj 422 239 *~ 0.3;
#X obj 646 689 throw~ dacout-6;
#X obj 399 692 throw~ dacout-5;
#X obj 670 501 *~ 0.1;
#X obj 599 395 delread4~ back-del 32;
#X obj 610 275 *~ 0.5;
#X obj 610 299 +~ 0.5;
#X floatatom 614 223 5 0 0 0 - - -;
#X floatatom 686 292 5 0 0 0 - - -;
#X floatatom 686 337 5 0 0 0 - - -;
#X obj 610 323 *~ 3;
#X obj 611 357 +~ 50;
#X obj 610 251 osc~ 0.8;
#X floatatom 158 75 5 0 0 0 - - -;
#X floatatom 207 79 5 0 0 0 - - -;
#X obj 774 130 r~ clean;
#X obj 780 11 tgl 15 0 empty empty empty 17 7 0 10 -262144 -1 -1 0
1;
#X obj 780 31 switch~;
#X connect 0 0 1 0;
#X connect 2 0 6 1;
#X connect 2 0 17 1;
#X connect 3 0 2 0;
#X connect 4 0 5 0;
#X connect 5 0 3 0;
#X connect 6 0 16 0;
#X connect 7 0 11 1;
#X connect 7 0 21 1;
#X connect 8 0 7 0;
#X connect 9 0 10 0;
#X connect 10 0 8 0;
#X connect 11 0 28 0;
#X connect 12 0 17 0;
#X connect 12 0 6 0;
#X connect 12 0 14 0;
#X connect 13 0 0 0;
#X connect 14 0 6 0;
#X connect 14 0 0 0;
#X connect 14 1 17 0;
#X connect 14 1 0 0;
#X connect 17 0 18 0;
#X connect 19 0 20 0;
#X connect 20 0 21 0;
#X connect 20 1 11 0;
#X connect 21 0 29 0;
#X connect 22 0 23 0;
#X connect 23 0 27 0;
#X connect 24 0 27 1;
#X connect 25 0 26 0;
#X connect 26 0 22 0;
#X connect 27 0 0 1;
#X connect 30 0 21 0;
#X connect 30 0 11 0;
#X connect 31 0 30 0;
#X connect 31 0 20 1;
#X connect 32 0 33 0;
#X connect 33 0 37 0;
#X connect 34 0 39 0;
#X connect 35 0 37 1;
#X connect 36 0 38 1;
#X connect 37 0 38 0;
#X connect 38 0 31 0;
#X connect 39 0 32 0;
#X connect 40 0 14 2;
#X connect 41 0 14 3;
#X connect 42 0 15 0;
#X connect 43 0 44 0;
#X restore 14 208 pd clean;
#N canvas 534 378 450 299 berelays 0;
#X obj 19 18 _berelays 1 0 64 1000;
#X obj 19 43 _berelays 2 65 20 1000;
#X obj 19 68 _berelays 3 85 20 1000;
#X obj 19 93 _berelays 4 105 20 1000;
#X obj 19 118 _berelays 5 125 4 1000;
#X obj 19 143 _berelays 6 129 10 1000;
#X obj 19 168 _berelays 7 139 2 1000;
#N canvas 1222 129 365 549 randomize 0;
#X obj 34 25 r randomize;
#X msg 34 49 7;
#X obj 34 73 _iterate;
#X obj 70 249 text get cakewalks;
#X obj 34 97 t f f f, f 13;
#X msg 70 150 pre-del-\$1 \, fb-time-\$1 \, fb-amount-\$1;
#X obj 70 174 symbol;
#X obj 71 221 f;
#X obj 70 197 t b a;
#X obj 129 411 array set;
#X obj 68 308 t b f;
#X obj 63 123 + 1;
#X obj 69 278 _iterate;
#X msg 40 441 \; update-\$1 bang;
#X obj 40 418 + 1;
#X obj 68 349 _crand 0 1;
#X connect 0 0 1 0;
#X connect 1 0 2 0;
#X connect 2 0 4 0;
#X connect 3 0 12 0;
#X connect 4 0 14 0;
#X connect 4 1 11 0;
#X connect 4 2 7 1;
#X connect 5 0 6 0;
#X connect 6 0 8 0;
#X connect 7 0 3 0;
#X connect 8 0 7 0;
#X connect 8 1 9 2;
#X connect 10 0 15 0;
#X connect 10 1 9 1;
#X connect 11 0 5 0;
#X connect 12 0 10 0;
#X connect 14 0 13 0;
#X connect 15 0 9 0;
#X restore 235 51 pd randomize;
#X obj 237 19 text define -k cakewalks;
#A set 64 \; 20 \; 20 \; 20 \; 4 \; 10 \; 2 \;;
#N canvas 372 509 1175 549 each 0;
#X msg 21 56 7, f 2;
#X obj 21 80 _iterate;
#X obj 57 256 text get cakewalks;
#X obj 21 104 t f f f, f 13;
#X obj 57 181 symbol;
#X obj 58 228 f;
#X obj 57 204 t b a;
#X obj 116 418 array set;
#X obj 55 315 t b f;
#X obj 50 130 + 1;
#X obj 56 285 _iterate;
#X msg 27 448 \; update-\$1 bang;
#X obj 27 425 + 1;
#X obj 55 356 _crand 0 1;
#X msg 332 60 7;
#X obj 332 84 _iterate;
#X obj 368 260 text get cakewalks;
#X obj 332 108 t f f f, f 13;
#X obj 368 185 symbol;
#X obj 369 232 f;
#X obj 368 208 t b a;
#X obj 427 422 array set;
#X obj 366 319 t b f;
#X obj 361 134 + 1;
#X obj 367 289 _iterate;
#X msg 338 452 \; update-\$1 bang;
#X obj 338 429 + 1;
#X obj 366 360 _crand 0 1;
#X msg 635 58 7;
#X obj 635 82 _iterate;
#X obj 671 258 text get cakewalks;
#X obj 635 106 t f f f, f 13;
#X obj 671 183 symbol;
#X obj 672 230 f;
#X obj 671 206 t b a;
#X obj 730 420 array set;
#X obj 669 317 t b f;
#X obj 664 132 + 1;
#X obj 670 287 _iterate;
#X msg 641 450 \; update-\$1 bang;
#X obj 641 427 + 1;
#X obj 669 358 _crand 0 1;
#X msg 59 157 fb-amount-\$1;
#X msg 360 160 fb-time-\$1;
#X msg 674 160 pre-del-\$1;
#X obj 699 51 list;
#X obj 722 16 r pre-del-set;
#X msg 738 105 set \$1 \$2;
#X obj 625 10 r pre-del-go;
#X obj 625 34 t b b;
#X obj 413 52 list;
#X msg 435 106 set \$1 \$2;
#X obj 339 35 t b b;
#X obj 436 17 r fb-time-set;
#X obj 345 8 r fb-time-go;
#X obj 137 48 list;
#X msg 123 105 set \$1 \$2;
#X obj 63 31 t b b;
#X obj 172 23 r fb-amount-set;
#X obj 69 4 r fb-amount-go;
#X obj 868 118 pack;
#X obj 900 117 t b f;
#X obj 868 142 s pre-del-set;
#X obj 874 42 r pre-del-preset-min;
#X obj 889 66 r pre-del-preset-max;
#X obj 871 262 pack;
#X obj 903 261 t b f;
#X obj 867 395 pack;
#X obj 899 394 t b f;
#X obj 873 319 r fb-time-preset-min;
#X obj 888 343 r fb-time-preset-max;
#X obj 867 419 s fb-time-set;
#X obj 877 186 r fb-amount-preset-min;
#X obj 892 210 r fb-amount-preset-max;
#X obj 871 286 s fb-amount-set;
#X obj 63 55 bng 15 250 50 0 empty empty empty 17 7 0 10 -262144 -1
-1;
#X obj 137 72 print;
#X obj 413 76 print;
#X obj 745 74 print;
#X obj 55 380 print;
#X connect 0 0 1 0;
#X connect 1 0 3 0;
#X connect 2 0 10 0;
#X connect 3 0 12 0;
#X connect 3 1 9 0;
#X connect 3 2 5 1;
#X connect 4 0 6 0;
#X connect 5 0 2 0;
#X connect 6 0 5 0;
#X connect 6 1 7 2;
#X connect 8 0 13 0;
#X connect 8 1 7 1;
#X connect 9 0 42 0;
#X connect 10 0 8 0;
#X connect 12 0 11 0;
#X connect 13 0 7 0;
#X connect 13 0 79 0;
#X connect 14 0 15 0;
#X connect 15 0 17 0;
#X connect 16 0 24 0;
#X connect 17 0 26 0;
#X connect 17 1 23 0;
#X connect 17 2 19 1;
#X connect 18 0 20 0;
#X connect 19 0 16 0;
#X connect 20 0 19 0;
#X connect 20 1 21 2;
#X connect 22 0 27 0;
#X connect 22 1 21 1;
#X connect 23 0 43 0;
#X connect 24 0 22 0;
#X connect 26 0 25 0;
#X connect 27 0 21 0;
#X connect 28 0 29 0;
#X connect 29 0 31 0;
#X connect 30 0 38 0;
#X connect 31 0 40 0;
#X connect 31 1 37 0;
#X connect 31 2 33 1;
#X connect 32 0 34 0;
#X connect 33 0 30 0;
#X connect 34 0 33 0;
#X connect 34 1 35 2;
#X connect 36 0 41 0;
#X connect 36 1 35 1;
#X connect 37 0 44 0;
#X connect 38 0 36 0;
#X connect 40 0 39 0;
#X connect 41 0 35 0;
#X connect 42 0 4 0;
#X connect 43 0 18 0;
#X connect 44 0 32 0;
#X connect 45 0 47 0;
#X connect 45 0 78 0;
#X connect 46 0 45 1;
#X connect 47 0 41 0;
#X connect 48 0 49 0;
#X connect 49 0 28 0;
#X connect 49 1 45 0;
#X connect 50 0 51 0;
#X connect 50 0 77 0;
#X connect 51 0 27 0;
#X connect 52 0 14 0;
#X connect 52 1 50 0;
#X connect 53 0 50 1;
#X connect 54 0 52 0;
#X connect 55 0 56 0;
#X connect 55 0 76 0;
#X connect 56 0 13 0;
#X connect 57 0 0 0;
#X connect 57 0 75 0;
#X connect 57 1 55 0;
#X connect 58 0 55 1;
#X connect 59 0 57 0;
#X connect 60 0 62 0;
#X connect 61 0 60 0;
#X connect 61 1 60 1;
#X connect 63 0 60 0;
#X connect 64 0 61 0;
#X connect 65 0 74 0;
#X connect 66 0 65 0;
#X connect 66 1 65 1;
#X connect 67 0 71 0;
#X connect 68 0 67 0;
#X connect 68 1 67 1;
#X connect 69 0 67 0;
#X connect 70 0 68 0;
#X connect 72 0 65 0;
#X connect 73 0 66 0;
#X restore 236 76 pd each;
#X restore 14 232 pd berelays;
#N canvas 0 22 450 300 input 0;
#X obj 224 226 s~ clean;
#X obj 224 199 catch~ input;
#N canvas 0 22 450 300 live 0;
#X obj 49 9 adc~ 1;
#X obj 49 227 *~;
#X obj 269 49 r live;
#X obj 49 123 *~;
#X obj 86 80 pack f 10;
#X obj 86 104 line~;
#X obj 86 33 r live-gain;
#X obj 269 73 _switch;
#X obj 315 165 switch~;
#X obj 49 251 throw~ input;
#X obj 196 176 env~;
#X obj 196 200 - 101;
#X obj 243 199 - 101;
#X obj 196 224 pack;
#X obj 196 248 s live-vu;
#X obj 86 57 dbtorms;
#X obj 243 175 env~ 8192;
#X connect 0 0 3 0;
#X connect 1 0 9 0;
#X connect 2 0 7 0;
#X connect 3 0 1 0;
#X connect 3 0 10 0;
#X connect 3 0 16 0;
#X connect 4 0 5 0;
#X connect 5 0 3 1;
#X connect 6 0 15 0;
#X connect 7 0 1 1;
#X connect 7 1 8 0;
#X connect 10 0 11 0;
#X connect 11 0 13 0;
#X connect 12 0 13 1;
#X connect 13 0 14 0;
#X connect 15 0 4 0;
#X connect 16 0 12 0;
#X restore 30 34 pd live;
#N canvas 546 396 409 543 playback 0;
#X obj 42 80 tabplay~ bere_clean;
#X obj 42 22 r bere_playback;
#X obj 197 81 s end-reached-set;
#X obj 42 393 *~;
#X obj 42 417 throw~ input;
#X obj 274 346 r playback;
#X obj 274 374 _switch;
#X obj 319 400 switch~;
#X obj 61 262 env~;
#X obj 61 286 - 101;
#X obj 108 285 - 101;
#X obj 61 310 pack;
#X obj 61 334 s playback-vu;
#X obj 76 108 r playback-gain;
#X obj 76 172 pack f 10;
#X obj 76 196 line~;
#X obj 42 216 *~;
#X obj 108 261 env~ 8192;
#X obj 76 140 dbtorms;
#X connect 0 0 16 0;
#X connect 0 1 2 0;
#X connect 1 0 0 0;
#X connect 3 0 4 0;
#X connect 5 0 6 0;
#X connect 6 0 3 1;
#X connect 6 1 7 0;
#X connect 8 0 9 0;
#X connect 9 0 11 0;
#X connect 10 0 11 1;
#X connect 11 0 12 0;
#X connect 13 0 18 0;
#X connect 14 0 15 0;
#X connect 15 0 16 1;
#X connect 16 0 3 0;
#X connect 16 0 8 0;
#X connect 16 0 17 0;
#X connect 17 0 10 0;
#X connect 18 0 14 0;
#X restore 31 57 pd playback;
#N canvas 0 22 720 513 live-playback-controls 0;
#X obj 48 49 r live;
#X obj 235 82 sel 1;
#X obj 48 73 sel 1;
#X obj 235 58 r playback;
#X obj 40 127 t b b;
#X obj 234 133 t b b;
#X msg 313 353 \; live-set 0 \; live-canvas-set color 10 0 2 \; playback-canvas-set
color 6 0 22;
#X msg 33 343 \; playback-set 0 \; playback-canvas-set color 10 0 2
\; live-canvas-set color 6 0 22;
#X msg 56 215 \; playback-vu -101 -101 \; playback-canvas-set color
10 0 2 \;;
#X msg 346 204 \; live-vu -101 -101 \; live-canvas-set color 10 0 2
\;;
#X connect 0 0 2 0;
#X connect 1 0 5 0;
#X connect 1 1 8 0;
#X connect 2 0 4 0;
#X connect 2 1 9 0;
#X connect 3 0 1 0;
#X connect 4 0 7 0;
#X connect 4 1 8 0;
#X connect 5 0 6 0;
#X connect 5 1 9 0;
#X restore 215 77 pd live-playback-controls;
#N canvas 0 22 450 300 loop-controls 0;
#X obj 133 115 spigot 1;
#X obj 186 92 r loop;
#X obj 133 67 r end-reached;
#X obj 133 139 s bere_playback;
#X connect 0 0 3 0;
#X connect 1 0 0 1;
#X connect 2 0 0 0;
#X restore 214 30 pd loop-controls;
#N canvas 0 22 450 300 playback-start-controls 0;
#X obj 37 28 r playback-start;
#X obj 37 52 s bere_playback;
#X obj 40 95 r playback-stop;
#X msg 40 119 stop;
#X obj 40 143 s bere_playback;
#X connect 0 0 1 0;
#X connect 2 0 3 0;
#X connect 3 0 4 0;
#X restore 214 54 pd playback-start-controls;
#X connect 1 0 0 0;
#X restore 14 73 pd input;
#N canvas 0 22 450 300 rec 0;
#N canvas 0 22 450 300 rec-1 0;
#X obj 20 10 catch~ rec-1;
#X obj 50 40 catch~ rec-2;
#X obj 80 70 catch~ rec-3;
#X obj 110 100 catch~ rec-4;
#X obj 140 130 catch~ rec-5;
#X obj 170 160 catch~ rec-6;
#X obj 200 190 catch~ rec-7;
#X obj 230 220 catch~ rec-8;
#X obj 260 250 catch~ rec-9;
#X obj 290 280 catch~ rec-10;
#X obj 320 310 catch~ rec-11;
#X obj 350 340 catch~ rec-12;
#X obj 380 20 catch~ rec-13;
#X obj 410 50 catch~ rec-14;
#X obj 440 80 catch~ rec-15;
#X obj 470 110 catch~ rec-16;
#X obj 500 140 catch~ rec-17;
#X obj 530 170 catch~ rec-18;
#X obj 560 200 catch~ rec-19;
#X obj 590 230 catch~ rec-20;
#X obj 620 260 catch~ rec-21;
#X obj 650 290 catch~ rec-22;
#X obj 680 320 catch~ rec-23;
#X obj 710 0 catch~ rec-24;
#X obj 740 30 catch~ rec-25;
#X obj 770 60 catch~ rec-26;
#X obj 800 90 catch~ rec-27;
#X obj 830 120 catch~ rec-28;
#X obj 860 150 catch~ rec-29;
#X obj 890 180 catch~ rec-30;
#X obj 920 210 catch~ rec-31;
#X obj 950 240 catch~ rec-32;
#X obj 980 270 catch~ rec-33;
#X obj 1010 300 catch~ rec-34;
#X obj 1040 330 catch~ rec-35;
#X obj 1070 10 catch~ rec-36;
#X obj 1100 40 catch~ rec-37;
#X obj 1130 70 catch~ rec-38;
#X obj 1160 100 catch~ rec-39;
#X obj 1190 130 catch~ rec-40;
#X obj 1220 160 catch~ rec-41;
#X obj 1250 190 catch~ rec-42;
#X obj 1280 220 catch~ rec-43;
#X obj 1310 250 catch~ rec-44;
#X obj 1340 280 catch~ rec-45;
#X obj 1370 310 catch~ rec-46;
#X obj 1400 340 catch~ rec-47;
#X obj 1430 20 catch~ rec-48;
#X obj 1460 50 catch~ rec-49;
#X obj 1490 80 catch~ rec-50;
#X obj 1520 110 catch~ rec-51;
#X obj 1550 140 catch~ rec-52;
#X obj 1580 170 catch~ rec-53;
#X obj 1610 200 catch~ rec-54;
#X obj 1640 230 catch~ rec-55;
#X obj 1670 260 catch~ rec-56;
#X obj 1700 290 catch~ rec-57;
#X obj 1730 320 catch~ rec-58;
#X obj 1760 0 catch~ rec-59;
#X obj 1790 30 catch~ rec-60;
#X obj 1820 60 catch~ rec-61;
#X obj 1850 90 catch~ rec-62;
#X obj 1880 120 catch~ rec-63;
#X obj 1910 150 catch~ rec-64;
#X obj 10 400 r rec-1;
#X obj 10 430 writesf~ 64;
#X connect 0 0 65 0;
#X connect 1 0 65 1;
#X connect 2 0 65 2;
#X connect 3 0 65 3;
#X connect 4 0 65 4;
#X connect 5 0 65 5;
#X connect 6 0 65 6;
#X connect 7 0 65 7;
#X connect 8 0 65 8;
#X connect 9 0 65 9;
#X connect 10 0 65 10;
#X connect 11 0 65 11;
#X connect 12 0 65 12;
#X connect 13 0 65 13;
#X connect 14 0 65 14;
#X connect 15 0 65 15;
#X connect 16 0 65 16;
#X connect 17 0 65 17;
#X connect 18 0 65 18;
#X connect 19 0 65 19;
#X connect 20 0 65 20;
#X connect 21 0 65 21;
#X connect 22 0 65 22;
#X connect 23 0 65 23;
#X connect 24 0 65 24;
#X connect 25 0 65 25;
#X connect 26 0 65 26;
#X connect 27 0 65 27;
#X connect 28 0 65 28;
#X connect 29 0 65 29;
#X connect 30 0 65 30;
#X connect 31 0 65 31;
#X connect 32 0 65 32;
#X connect 33 0 65 33;
#X connect 34 0 65 34;
#X connect 35 0 65 35;
#X connect 36 0 65 36;
#X connect 37 0 65 37;
#X connect 38 0 65 38;
#X connect 39 0 65 39;
#X connect 40 0 65 40;
#X connect 41 0 65 41;
#X connect 42 0 65 42;
#X connect 43 0 65 43;
#X connect 44 0 65 44;
#X connect 45 0 65 45;
#X connect 46 0 65 46;
#X connect 47 0 65 47;
#X connect 48 0 65 48;
#X connect 49 0 65 49;
#X connect 50 0 65 50;
#X connect 51 0 65 51;
#X connect 52 0 65 52;
#X connect 53 0 65 53;
#X connect 54 0 65 54;
#X connect 55 0 65 55;
#X connect 56 0 65 56;
#X connect 57 0 65 57;
#X connect 58 0 65 58;
#X connect 59 0 65 59;
#X connect 60 0 65 60;
#X connect 61 0 65 61;
#X connect 62 0 65 62;
#X connect 63 0 65 63;
#X connect 64 0 65 0;
#X restore 10 10 pd rec-1;
#N canvas 0 22 450 300 rec-2 0;
#X obj 20 10 catch~ rec-65;
#X obj 50 40 catch~ rec-66;
#X obj 80 70 catch~ rec-67;
#X obj 110 100 catch~ rec-68;
#X obj 140 130 catch~ rec-69;
#X obj 170 160 catch~ rec-70;
#X obj 200 190 catch~ rec-71;
#X obj 230 220 catch~ rec-72;
#X obj 260 250 catch~ rec-73;
#X obj 290 280 catch~ rec-74;
#X obj 320 310 catch~ rec-75;
#X obj 350 340 catch~ rec-76;
#X obj 380 20 catch~ rec-77;
#X obj 410 50 catch~ rec-78;
#X obj 440 80 catch~ rec-79;
#X obj 470 110 catch~ rec-80;
#X obj 500 140 catch~ rec-81;
#X obj 530 170 catch~ rec-82;
#X obj 560 200 catch~ rec-83;
#X obj 590 230 catch~ rec-84;
#X obj 10 400 r rec-2;
#X obj 10 430 writesf~ 20;
#X connect 0 0 21 0;
#X connect 1 0 21 1;
#X connect 2 0 21 2;
#X connect 3 0 21 3;
#X connect 4 0 21 4;
#X connect 5 0 21 5;
#X connect 6 0 21 6;
#X connect 7 0 21 7;
#X connect 8 0 21 8;
#X connect 9 0 21 9;
#X connect 10 0 21 10;
#X connect 11 0 21 11;
#X connect 12 0 21 12;
#X connect 13 0 21 13;
#X connect 14 0 21 14;
#X connect 15 0 21 15;
#X connect 16 0 21 16;
#X connect 17 0 21 17;
#X connect 18 0 21 18;
#X connect 19 0 21 19;
#X connect 20 0 21 0;
#X restore 10 40 pd rec-2;
#N canvas 0 22 450 300 rec-3 0;
#X obj 20 10 catch~ rec-85;
#X obj 50 40 catch~ rec-86;
#X obj 80 70 catch~ rec-87;
#X obj 110 100 catch~ rec-88;
#X obj 140 130 catch~ rec-89;
#X obj 170 160 catch~ rec-90;
#X obj 200 190 catch~ rec-91;
#X obj 230 220 catch~ rec-92;
#X obj 260 250 catch~ rec-93;
#X obj 290 280 catch~ rec-94;
#X obj 320 310 catch~ rec-95;
#X obj 350 340 catch~ rec-96;
#X obj 380 20 catch~ rec-97;
#X obj 410 50 catch~ rec-98;
#X obj 440 80 catch~ rec-99;
#X obj 470 110 catch~ rec-100;
#X obj 500 140 catch~ rec-101;
#X obj 530 170 catch~ rec-102;
#X obj 560 200 catch~ rec-103;
#X obj 590 230 catch~ rec-104;
#X obj 10 400 r rec-3;
#X obj 10 430 writesf~ 20;
#X connect 0 0 21 0;
#X connect 1 0 21 1;
#X connect 2 0 21 2;
#X connect 3 0 21 3;
#X connect 4 0 21 4;
#X connect 5 0 21 5;
#X connect 6 0 21 6;
#X connect 7 0 21 7;
#X connect 8 0 21 8;
#X connect 9 0 21 9;
#X connect 10 0 21 10;
#X connect 11 0 21 11;
#X connect 12 0 21 12;
#X connect 13 0 21 13;
#X connect 14 0 21 14;
#X connect 15 0 21 15;
#X connect 16 0 21 16;
#X connect 17 0 21 17;
#X connect 18 0 21 18;
#X connect 19 0 21 19;
#X connect 20 0 21 0;
#X restore 10 70 pd rec-3;
#N canvas 0 22 450 300 rec-4 0;
#X obj 20 10 catch~ rec-105;
#X obj 50 40 catch~ rec-106;
#X obj 80 70 catch~ rec-107;
#X obj 110 100 catch~ rec-108;
#X obj 140 130 catch~ rec-109;
#X obj 170 160 catch~ rec-110;
#X obj 200 190 catch~ rec-111;
#X obj 230 220 catch~ rec-112;
#X obj 260 250 catch~ rec-113;
#X obj 290 280 catch~ rec-114;
#X obj 320 310 catch~ rec-115;
#X obj 350 340 catch~ rec-116;
#X obj 380 20 catch~ rec-117;
#X obj 410 50 catch~ rec-118;
#X obj 440 80 catch~ rec-119;
#X obj 470 110 catch~ rec-120;
#X obj 500 140 catch~ rec-121;
#X obj 530 170 catch~ rec-122;
#X obj 560 200 catch~ rec-123;
#X obj 590 230 catch~ rec-124;
#X obj 10 400 r rec-4;
#X obj 10 430 writesf~ 20;
#X connect 0 0 21 0;
#X connect 1 0 21 1;
#X connect 2 0 21 2;
#X connect 3 0 21 3;
#X connect 4 0 21 4;
#X connect 5 0 21 5;
#X connect 6 0 21 6;
#X connect 7 0 21 7;
#X connect 8 0 21 8;
#X connect 9 0 21 9;
#X connect 10 0 21 10;
#X connect 11 0 21 11;
#X connect 12 0 21 12;
#X connect 13 0 21 13;
#X connect 14 0 21 14;
#X connect 15 0 21 15;
#X connect 16 0 21 16;
#X connect 17 0 21 17;
#X connect 18 0 21 18;
#X connect 19 0 21 19;
#X connect 20 0 21 0;
#X restore 10 100 pd rec-4;
#N canvas 0 22 450 300 rec-5 0;
#X obj 20 10 catch~ rec-125;
#X obj 50 40 catch~ rec-126;
#X obj 80 70 catch~ rec-127;
#X obj 110 100 catch~ rec-128;
#X obj 10 400 r rec-5;
#X obj 10 430 writesf~ 4;
#X connect 0 0 5 0;
#X connect 1 0 5 1;
#X connect 2 0 5 2;
#X connect 3 0 5 3;
#X connect 4 0 5 0;
#X restore 10 130 pd rec-5;
#N canvas 0 22 450 300 rec-6 0;
#X obj 20 10 catch~ rec-129;
#X obj 50 40 catch~ rec-130;
#X obj 80 70 catch~ rec-131;
#X obj 110 100 catch~ rec-132;
#X obj 140 130 catch~ rec-133;
#X obj 170 160 catch~ rec-134;
#X obj 200 190 catch~ rec-135;
#X obj 230 220 catch~ rec-136;
#X obj 260 250 catch~ rec-137;
#X obj 290 280 catch~ rec-138;
#X obj 10 400 r rec-6;
#X obj 10 430 writesf~ 10;
#X connect 0 0 11 0;
#X connect 1 0 11 1;
#X connect 2 0 11 2;
#X connect 3 0 11 3;
#X connect 4 0 11 4;
#X connect 5 0 11 5;
#X connect 6 0 11 6;
#X connect 7 0 11 7;
#X connect 8 0 11 8;
#X connect 9 0 11 9;
#X connect 10 0 11 0;
#X restore 10 160 pd rec-6;
#N canvas 0 22 450 300 rec-7 0;
#X obj 20 10 catch~ rec-139;
#X obj 50 40 catch~ rec-140;
#X obj 10 400 r rec-7;
#X obj 10 430 writesf~ 2;
#X connect 0 0 3 0;
#X connect 1 0 3 1;
#X connect 2 0 3 0;
#X restore 10 190 pd rec-7;
#X restore 14 150 pd rec;
#X msg 179 171 \; pd-_berelay-control.pd vis 1;
